<?xml version="1.0" encoding="UTF-8"?><svg id="uuid-99d409fd-b151-457c-84c4-7c6ea3228955" xmlns="http://www.w3.org/2000/svg" xmlns:xlink="http://www.w3.org/1999/xlink" viewBox="0 0 1500 500"><defs><clipPath id="uuid-7759acc8-a51a-4872-8d7c-f38c5225424d"><path d="M302.46044921875,305.6650390625c-1.47802734375-1.4775390625-2.462890625-3.6943359375-2.462890625-5.9111328125,0-4.43359375,3.4482421875-7.8818359375,7.8818359375-7.8818359375,1.97021484375,0,3.94091796875.73828125,5.41845703125,1.9697265625,22.16796875,20.443359375,40.640625,26.6015625,48.0302734375,26.6015625h.24609375c3.69482421875-1.2314453125,12.06884765625-13.0546875,72.90673828125-157.1435546875,1.23193359375-2.9560546875,3.94140625-4.9267578125,7.3896484375-4.9267578125,4.43359375,0,7.8818359375,3.4482421875,7.8818359375,7.8818359375,0,1.2314453125-.24658203125,2.216796875-.7392578125,3.2021484375-62.0693359375,147.044921875-71.92138671875,162.80859375-82.5126953125,166.0107421875-1.2314453125.4931640625-3.4482421875.7392578125-5.17236328125.7392578125-10.837890625,0-33.744140625-7.8818359375-58.86767578125-30.5419921875ZM452.21533203125,255.171875c-1.72412109375-2.462890625-3.69482421875-4.6796875-5.6650390625-6.650390625-6.650390625,5.6650390625-11.57666015625,9.11328125-15.02490234375,9.11328125-19.2119140625,0-.73876953125-34.7294921875,12.0693359375-34.7294921875,1.72412109375,0,3.4482421875.7392578125,5.17236328125,1.970703125l4.43359375-3.6943359375c21.18212890625-19.2119140625,50.49267578125-45.8134765625,71.67529296875-59.8525390625,25.6162109375-16.7490234375,40.14794921875-23.1533203125,58.375-23.1533203125,7.8818359375,0,16.74853515625,1.2314453125,27.33984375,2.9560546875,3.69482421875.7392578125,6.404296875,3.9404296875,6.404296875,7.8818359375,0,4.43359375-3.4482421875,7.8818359375-7.8818359375,7.8818359375h-1.47802734375v-.24609375c-10.0986328125-1.724609375-17.48779296875-2.7099609375-24.38427734375-2.7099609375-14.77880859375,0-25.6162109375,4.6796875-49.5078125,20.6904296875-20.197265625,13.2998046875-48.76904296875,39.162109375-69.951171875,58.1279296875l-4.68017578125,4.1875c1.970703125,2.955078125,3.94091796875,6.1572265625,6.15771484375,9.359375,12.56201171875,18.7197265625,26.84765625,39.90234375,30.78857421875,39.90234375,6.15771484375,0,22.66015625-12.5625,61.57666015625-42.611328125,1.47802734375-1.2314453125,3.2021484375-1.724609375,4.92626953125-1.724609375,4.43359375,0,7.8818359375,3.4482421875,7.8818359375,7.8818359375,0,2.462890625-1.2314453125,4.6796875-3.2021484375,6.404296875-38.669921875,29.802734375-58.8671875,45.8134765625-71.1826171875,45.8134765625-13.05419921875,0-30.2958984375-26.6015625-43.8427734375-46.798828125ZM545.81103515625,274.8759765625c0-5.41796875,1.47802734375-12.068359375,4.18701171875-18.47265625,7.38916015625-16.9951171875,21.4287109375-28.818359375,37.68505859375-31.52734375-1.2314453125-1.4775390625-1.97021484375-3.4482421875-1.97021484375-5.4189453125,0-4.1865234375,3.20166015625-7.388671875,7.14306640625-7.8818359375,2.708984375-.24609375,5.41845703125-.4921875,7.8818359375-.4921875,20.443359375,0,33.49755859375,10.3447265625,33.49755859375,27.5859375,0,7.1435546875-2.462890625,15.517578125-7.14306640625,24.138671875-11.08349609375,21.1826171875-33.25146484375,40.640625-53.94140625,40.640625-16.9951171875,0-27.33984375-12.3154296875-27.33984375-28.572265625ZM613.29931640625,255.41796875c3.6943359375-7.142578125,5.17236328125-12.0693359375,5.17236328125-16.7490234375,0-8.3740234375-3.94091796875-11.576171875-17.24169921875-11.822265625,1.23193359375,1.4775390625,1.970703125,3.2021484375,1.970703125,5.171875,0,4.43359375-3.4482421875,7.8818359375-7.8818359375,7.8818359375-13.79345703125,0-24.38427734375,7.8818359375-31.03466796875,22.4140625-1.72412109375,4.9267578125-2.70947265625,8.62109375-2.70947265625,12.5615234375,0,9.3603515625,2.95556640625,12.80859375,11.576171875,12.80859375,14.03955078125,0,30.54248046875-14.2861328125,40.1484375-32.2666015625ZM896.798828125,376.1083984375c-10.345703125-1.2314453125-21.67578125-4.92578125-32.513671875-12.5615234375l-122.66064453125-86.9462890625-18.71875,38.9169921875c-1.232421875,2.708984375-3.94140625,4.6796875-7.1435546875,4.6796875-4.43359375,0-7.8818359375-3.4482421875-7.8818359375-7.8818359375,0-1.2314453125.24609375-2.462890625.7392578125-3.4482421875l49.75341796875-103.6953125c1.232421875-2.7099609375,3.94140625-4.6796875,7.142578125-4.6796875,4.43359375,0,7.8828125,3.4482421875,7.8828125,7.8818359375,0,1.2314453125-.24609375,2.462890625-.73828125,3.4482421875l-24.13916015625,50.24609375c42.85791015625-9.60546875,105.17431640625-44.3349609375,105.17431640625-49.2607421875,0-3.94140625-35.71484375-38.6708984375-154.92822265625-38.6708984375-4.43359375,0-7.8818359375-3.4482421875-7.8818359375-7.8818359375s3.4482421875-7.8818359375,7.8818359375-7.8818359375c127.34033203125,0,170.69189453125,40.640625,170.69189453125,54.4345703125,0,15.0244140625-59.115234375,47.537109375-104.435546875,61.083984375l108.62109375,76.84765625c8.62109375,6.1572265625,16.50390625,8.6201171875,24.87890625,9.60546875,3.939453125.4931640625,7.142578125,3.6953125,7.142578125,7.8818359375,0,4.43359375-3.44921875,7.8818359375-7.8828125,7.8818359375h-.984375ZM968.71875,366.9951171875c0-1.7236328125.4921875-2.955078125,1.232421875-4.1865234375,2.708984375-4.43359375,27.83203125-53.44921875,50.4921875-101.232421875,16.99609375-35.71484375,32.01953125-70.4443359375,38.916015625-85.71484375.494140625-1.478515625-.4921875-1.970703125-1.4765625-.9853515625-8.8671875,9.11328125-31.52734375,34.236328125-53.94140625,59.359375-32.759765625,36.7001953125-64.533203125,74.6318359375-76.6015625,74.6318359375-10.837890625,0-14.28515625-73.892578125-16.75-94.828125-.24609375-1.478515625-1.23046875-1.724609375-1.96875-.4931640625-5.173828125,9.11328125-14.041015625,25.8623046875-19.212890625,35.2216796875-9.359375,17.48828125-16.748046875,31.28125-19.705078125,34.9755859375l-.24609375.2470703125c-1.23046875,1.7236328125-3.447265625,2.708984375-5.91015625,2.708984375-4.43359375,0-7.8828125-3.4482421875-7.8828125-7.8818359375,0-2.216796875.73828125-3.6943359375,1.970703125-5.1728515625.73828125-.73828125,9.11328125-15.763671875,18.2265625-32.7587890625,13.79296875-25.8623046875,29.802734375-61.083984375,41.1328125-61.083984375,10.345703125,0,10.099609375,29.310546875,12.31640625,58.8671875,1.724609375,21.4287109375,3.201171875,35.9609375,4.92578125,46.3056640625.24609375,1.232421875,1.23046875,1.478515625,1.970703125.4931640625,18.71875-20.197265625,26.107421875-28.3251953125,55.912109375-61.5771484375,43.595703125-49.0146484375,58.375-68.7197265625,72.16796875-68.7197265625,6.650390625,0,16.009765625,4.6806640625,13.546875,16.5029296875-5.912109375,30.2958984375-86.455078125,187.9326171875-94.58203125,199.5087890625-1.478515625,2.216796875-3.6953125,3.6943359375-6.650390625,3.6943359375-4.43359375,0-7.8828125-3.4482421875-7.8828125-7.8818359375ZM1053.201171875,282.51171875c0-38.669921875,41.37890625-65.271484375,80.296875-67.734375h.984375c4.43359375-.24609375,7.8828125,3.4482421875,7.8828125,7.8818359375,0,3.94140625-2.95703125,7.3896484375-6.896484375,7.8818359375-34.484375,4.1875-66.50390625,22.90625-66.50390625,51.970703125,0,6.158203125,1.232421875,7.6357421875,5.171875,7.6357421875,5.666015625,0,35.46875-21.1826171875,56.158203125-43.349609375l.986328125-1.970703125c1.72265625-3.6943359375,3.939453125-6.896484375,7.634765625-7.1435546875,15.763671875-.984375,16.009765625,4.9267578125,7.63671875,14.5322265625l-3.203125,3.6953125c-1.970703125,3.6943359375-3.94140625,7.634765625-5.912109375,11.330078125-4.43359375,8.6201171875-8.126953125,15.5166015625-10.09765625,20.443359375,12.314453125-4.9267578125,33.744140625-21.921875,59.60546875-44.0888671875,1.478515625-1.2314453125,3.203125-1.970703125,5.173828125-1.970703125,4.43359375,0,7.880859375,3.4482421875,7.880859375,7.8818359375,0,2.462890625-.984375,4.43359375-2.708984375,5.9111328125-30.54296875,26.35546875-58.62109375,49.015625-75.6171875,49.26171875-7.142578125,0-11.576171875-4.92578125-11.576171875-11.576171875,0-2.4638671875.494140625-5.1728515625,1.478515625-8.12890625-15.517578125,12.0693359375-30.54296875,20.9365234375-37.439453125,20.9365234375-10.8359375,0-20.935546875-8.8671875-20.935546875-23.3994140625Z" fill="none" stroke-width="0"/></clipPath><linearGradient id="uuid-e2c67e99-fecf-42e8-ad82-ad890cd694d4" x1="749.998748454802808" y1="97.341017067414214" x2="749.998748454802808" y2="387.98279198147884" gradientUnits="userSpaceOnUse"><stop offset=".1" stop-color="#a6ce39"/><stop offset=".900000034097853" stop-color="#ffa12a"/></linearGradient><linearGradient id="uuid-d8077449-9d1c-4cd3-a134-6aaec134ccca" x1="1243.902712786653865" y1="213.416383101272913" x2="1324.736958559671393" y2="132.582137328255385" gradientTransform="translate(48.424589633148571 -242.976439092068176) rotate(11.000154114116945)" xlink:href="#uuid-e2c67e99-fecf-42e8-ad82-ad890cd694d4"/><linearGradient id="uuid-d89a6996-e76e-4770-8b1b-259a1fc45466" x1="1250.872894193553293" y1="192.505931740563028" x2="1317.766823582766392" y2="125.612002351349943" gradientTransform="translate(48.424589633148571 -242.976439092068176) rotate(11.000154114116945)" xlink:href="#uuid-e2c67e99-fecf-42e8-ad82-ad890cd694d4"/><linearGradient id="uuid-6bdce97d-dcf7-491a-837c-642a8894a086" x1="1243.902758653757701" y1="185.51638320922666" x2="1324.737005515961073" y2="104.682136347023359" gradientTransform="translate(48.424589633148571 -242.976439092068176) rotate(11.000154114116945)" xlink:href="#uuid-e2c67e99-fecf-42e8-ad82-ad890cd694d4"/><linearGradient id="uuid-d2b21138-1f4b-4bf4-82f1-12d9a0d0d5fa" x1="1250.872940605235272" y1="164.605930214719592" x2="1317.766869994446324" y2="97.712000825508625" gradientTransform="translate(48.424589633148571 -242.976439092068176) rotate(11.000154114116945)" xlink:href="#uuid-e2c67e99-fecf-42e8-ad82-ad890cd694d4"/><linearGradient id="uuid-c4f10159-0945-4f2a-9d89-1fa47f8308e5" x1="1243.902805065445136" y1="157.6163816833905" x2="1324.737051927646689" y2="76.782134821188848" gradientTransform="translate(48.424589633148571 -242.976439092068176) rotate(11.000154114116945)" xlink:href="#uuid-e2c67e99-fecf-42e8-ad82-ad890cd694d4"/><linearGradient id="uuid-647b5806-bcd0-4511-aedd-11fae7a8eb1c" x1="1250.872987016919069" y1="136.705928688884342" x2="1317.766916406130349" y2="69.811999299673019" gradientTransform="translate(48.424589633148571 -242.976439092068176) rotate(11.000154114116945)" xlink:href="#uuid-e2c67e99-fecf-42e8-ad82-ad890cd694d4"/><linearGradient id="uuid-152244a7-e3d6-48a5-a3dc-d8643461ee28" x1="1243.90285267519539" y1="129.71638135561534" x2="1324.737097141246977" y2="48.88213688956381" gradientTransform="translate(48.424589633148571 -242.976439092068176) rotate(11.000154114116945)" xlink:href="#uuid-e2c67e99-fecf-42e8-ad82-ad890cd694d4"/><linearGradient id="uuid-3f159c4b-8555-488a-9a0c-ffac3d2b765b" x1="1250.873034137883224" y1="108.805927872315806" x2="1317.766962108538792" y2="41.911999901660124" gradientTransform="translate(48.424589633148571 -242.976439092068176) rotate(11.000154114116945)" xlink:href="#uuid-e2c67e99-fecf-42e8-ad82-ad890cd694d4"/></defs><g clip-path="url(#uuid-7759acc8-a51a-4872-8d7c-f38c5225424d)"><rect x="299.998737473796609" y="97.341017067414214" width="900.000021962011488" height="290.641774914065536" fill="url(#uuid-e2c67e99-fecf-42e8-ad82-ad890cd694d4)" stroke-width="0"/></g><path d="M302.88134765625,395.830078125h6.8486328125v13.697265625l11.41357421875-13.697265625h7.67626953125l-13.3828125,15.9794921875,16.20751953125,18.2626953125h-8.90283203125l-13.01171875-14.78125v14.78125h-6.8486328125v-34.2421875Z" fill="#ffa12a" stroke-width="0"/><path d="M337.22265625,426.9619140625c-2.21630859375-2.2255859375-3.32421875-4.9931640625-3.32421875-8.3037109375,0-3.3095703125,1.10791015625-6.078125,3.32421875-8.3037109375,2.2158203125-2.2255859375,4.9794921875-3.337890625,8.28955078125-3.337890625s6.07763671875,1.1123046875,8.3037109375,3.337890625c2.2255859375,2.2255859375,3.33837890625,4.994140625,3.33837890625,8.3037109375,0,3.310546875-1.1083984375,6.078125-3.32421875,8.3037109375-2.21630859375,2.2255859375-4.9892578125,3.3388671875-8.31787109375,3.3388671875-3.31005859375,0-6.07373046875-1.11328125-8.28955078125-3.3388671875ZM345.51220703125,424.7646484375c1.73046875,0,3.1337890625-.580078125,4.208984375-1.740234375,1.07421875-1.16015625,1.61181640625-2.6064453125,1.61181640625-4.337890625,0-1.73046875-.53759765625-3.181640625-1.61181640625-4.3515625-1.0751953125-1.169921875-2.48779296875-1.7548828125-4.23779296875-1.7548828125-1.7119140625,0-3.1103515625.5849609375-4.1943359375,1.7548828125-1.08447265625,1.169921875-1.62646484375,2.62109375-1.62646484375,4.3515625,0,1.7314453125.5419921875,3.177734375,1.62646484375,4.337890625,1.083984375,1.16015625,2.49169921875,1.740234375,4.22314453125,1.740234375Z" fill="#ffa12a" stroke-width="0"/><path d="M367.79736328125,415.462890625v14.609375h-6.3916015625v-22.171875l6.3916015625-.6845703125v2.0546875c1.4267578125-1.3310546875,3.2529296875-2.0068359375,5.47900390625-2.0263671875,2.89111328125,0,5.09765625.8759765625,6.61962890625,2.6259765625,1.673828125-1.75,4.18505859375-2.6259765625,7.533203125-2.6259765625,2.8916015625,0,5.09375.8759765625,6.60595703125,2.6259765625s2.2685546875,3.765625,2.2685546875,6.048828125v14.1533203125h-6.36328125v-12.5556640625c0-1.521484375-.34228515625-2.7001953125-1.02734375-3.5380859375-.6845703125-.8369140625-1.79736328125-1.2744140625-3.33837890625-1.3125-1.25537109375.095703125-2.349609375.9326171875-3.28173828125,2.5107421875-.076171875.4765625-.11376953125.9521484375-.11376953125,1.4267578125v13.46875h-6.39208984375v-12.5556640625c0-1.521484375-.34228515625-2.7001953125-1.02734375-3.5380859375-.6845703125-.8369140625-1.79736328125-1.2744140625-3.33837890625-1.3125-1.388671875.076171875-2.5966796875,1.0087890625-3.6240234375,2.796875Z" fill="#ffa12a" stroke-width="0"/><path d="M408.2587890625,415.462890625v14.609375h-6.3916015625v-22.171875l6.3916015625-.6845703125v2.0546875c1.4267578125-1.3310546875,3.2529296875-2.0068359375,5.47900390625-2.0263671875,2.89111328125,0,5.09765625.8759765625,6.61962890625,2.6259765625,1.673828125-1.75,4.18505859375-2.6259765625,7.533203125-2.6259765625,2.8916015625,0,5.09375.8759765625,6.60595703125,2.6259765625s2.2685546875,3.765625,2.2685546875,6.048828125v14.1533203125h-6.36328125v-12.5556640625c0-1.521484375-.34228515625-2.7001953125-1.02734375-3.5380859375-.6845703125-.8369140625-1.79736328125-1.2744140625-3.33837890625-1.3125-1.25537109375.095703125-2.349609375.9326171875-3.28173828125,2.5107421875-.076171875.4765625-.11376953125.9521484375-.11376953125,1.4267578125v13.46875h-6.39208984375v-12.5556640625c0-1.521484375-.34228515625-2.7001953125-1.02734375-3.5380859375-.6845703125-.8369140625-1.79736328125-1.2744140625-3.33837890625-1.3125-1.388671875.076171875-2.5966796875,1.0087890625-3.6240234375,2.796875Z" fill="#ffa12a" stroke-width="0"/><path d="M456.16845703125,421.96875v-14.7529296875h6.3916015625v22.8564453125h-6.3916015625v-2.0830078125c-1.541015625,1.3701171875-3.3671875,2.0546875-5.478515625,2.0546875-2.89208984375,0-5.0986328125-.875-6.6201171875-2.625-1.5224609375-1.75-2.283203125-3.7666015625-2.283203125-6.0498046875v-14.1533203125h6.39208984375v12.5556640625c0,1.521484375.38037109375,2.701171875,1.14111328125,3.5380859375s1.912109375,1.2841796875,3.453125,1.3408203125c1.3125-.0947265625,2.44384765625-.98828125,3.3955078125-2.681640625Z" fill="#ffa12a" stroke-width="0"/><path d="M474.458984375,415.5478515625v14.5244140625h-6.39208984375v-22.171875l6.39208984375-.6845703125v2.0830078125c1.54052734375-1.369140625,3.36669921875-2.0546875,5.478515625-2.0546875,2.89111328125,0,5.09765625.8759765625,6.6201171875,2.6259765625,1.521484375,1.75,2.28271484375,3.765625,2.28271484375,6.048828125v14.1533203125h-6.3916015625v-12.5556640625c0-1.521484375-.380859375-2.7001953125-1.1416015625-3.5380859375-.76123046875-.8369140625-1.91162109375-1.2744140625-3.45263671875-1.3125-1.3125.076171875-2.44482421875,1.037109375-3.3955078125,2.8818359375Z" fill="#ffa12a" stroke-width="0"/><path d="M494.603515625,409.9833984375c2.89111328125-1.826171875,6.2392578125-2.7392578125,10.0439453125-2.7392578125,2.73974609375,0,4.908203125.76171875,6.505859375,2.283203125,1.59814453125,1.5224609375,2.39697265625,3.8046875,2.39697265625,6.8486328125v13.6962890625h-6.3916015625v-1.826171875c-1.86474609375,1.2177734375-3.5380859375,1.826171875-5.02197265625,1.826171875-3.0439453125,0-5.32666015625-.646484375-6.8486328125-1.9404296875-1.52197265625-1.29296875-2.28271484375-3.08203125-2.28271484375-5.3642578125,0-2.130859375.7177734375-4.033203125,2.154296875-5.70703125,1.43603515625-1.673828125,3.76171875-2.5107421875,6.97705078125-2.5107421875,1.48388671875,0,3.1572265625.4560546875,5.02197265625,1.369140625v-.6845703125c-.03857421875-1.673828125-1.25537109375-2.5869140625-3.65234375-2.7392578125-2.7392578125,0-4.8701171875.4560546875-6.39208984375,1.369140625l-2.5107421875-3.880859375ZM507.15869140625,423.2236328125v-2.5673828125c-.60888671875-1.1796875-2.0546875-1.76953125-4.33740234375-1.76953125-2.7392578125.3046875-4.18505859375,1.369140625-4.33740234375,3.1962890625.15234375,1.806640625,1.59814453125,2.7861328125,4.33740234375,2.9384765625,2.28271484375,0,3.728515625-.5986328125,4.33740234375-1.7978515625Z" fill="#ffa12a" stroke-width="0"/><path d="M519.228515625,430.072265625v-34.2421875h6.39208984375v34.2421875h-6.39208984375Z" fill="#ffa12a" stroke-width="0"/><path d="M531.0986328125,418.658203125c0-3.34765625,1.06494140625-6.0869140625,3.19580078125-8.2177734375,2.13037109375-2.130859375,4.8603515625-3.1962890625,8.189453125-3.1962890625,3.34814453125,0,6.01123046875,1.0654296875,7.98974609375,3.1962890625,1.97802734375,2.130859375,2.9677734375,4.8701171875,2.9677734375,8.2177734375v2.283203125h-15.72265625c.15185546875,1.2177734375.6845703125,2.16796875,1.59765625,2.853515625.9130859375.6845703125,1.96923828125,1.02734375,3.16748046875,1.02734375,2.13037109375,0,4.03271484375-.609375,5.70703125-1.826171875l3.65234375,3.65234375c-1.67431640625,2.2822265625-4.7939453125,3.423828125-9.359375,3.423828125-3.3486328125,0-6.0830078125-1.0654296875-8.20361328125-3.1962890625-2.12158203125-2.1298828125-3.181640625-4.869140625-3.181640625-8.2177734375ZM545.6796875,413.5224609375c-.9130859375-.685546875-1.978515625-1.02734375-3.19580078125-1.02734375-1.2177734375,0-2.2783203125.341796875-3.181640625,1.02734375-.90380859375.6845703125-1.35546875,1.6357421875-1.35546875,2.853515625h9.1025390625c0-1.2177734375-.45654296875-2.1689453125-1.36962890625-2.853515625Z" fill="#ffa12a" stroke-width="0"/><path d="M571.34619140625,407.88671875c1.18896484375.5234375,2.306640625,1.2890625,3.35302734375,2.296875l-3.56689453125,4.0234375c-1.02734375-1.236328125-2.3212890625-1.8544921875-3.880859375-1.8544921875-1.54052734375,0-2.56787109375.28515625-3.08154296875.85546875-.513671875.5712890625-.513671875,1.08984375,0,1.5556640625s1.541015625.8515625,3.08154296875,1.1552734375c2.263671875.2099609375,4.11865234375.8564453125,5.564453125,1.9404296875,1.4453125,1.083984375,2.16845703125,2.9677734375,2.16845703125,5.6494140625,0,2.1689453125-.8515625,3.84375-2.5537109375,5.0224609375-1.70263671875,1.1796875-3.68603515625,1.76953125-5.94921875,1.76953125-2.1689453125,0-3.9716796875-.3095703125-5.40771484375-.927734375-1.4365234375-.6181640625-2.66796875-1.4404296875-3.6953125-2.4677734375l3.53857421875-3.9951171875c1.02734375,1.236328125,2.625,1.9501953125,4.7939453125,2.1396484375,1.75,0,2.8818359375-.28515625,3.3955078125-.85546875.513671875-.5712890625.58935546875-1.1416015625.22802734375-1.7119140625-.361328125-.5712890625-1.5693359375-.951171875-3.62353515625-1.1416015625-1.86474609375-.208984375-3.56689453125-.7802734375-5.10791015625-1.7119140625-1.541015625-.9326171875-2.31103515625-2.6826171875-2.31103515625-5.2509765625,0-2.3583984375.87939453125-4.1611328125,2.63916015625-5.4072265625,1.75927734375-1.24609375,3.5712890625-1.869140625,5.43603515625-1.869140625,2.13037109375,0,3.7900390625.26171875,4.97900390625.78515625Z" fill="#ffa12a" stroke-width="0"/><path d="M595.50048828125,416.3466796875c.03759765625-3.1572265625.4658203125-6.1728515625,1.2841796875-9.044921875.8369140625-3.005859375,2.12060546875-5.859375,3.85205078125-8.560546875,1.0458984375-1.6552734375,1.99755859375-2.9677734375,2.853515625-3.9375l.798828125-.8564453125h6.36328125c-.1142578125.228515625-.32373046875.513671875-.6279296875.8564453125-.4755859375.5126953125-.80859375.9033203125-.99853515625,1.169921875-1.693359375,2.5673828125-3.06298828125,5.3828125-4.10888671875,8.4462890625-1.04638671875,3.0625-1.5693359375,6.439453125-1.5693359375,10.1298828125,0,.6083984375.00927734375,1.2080078125.0283203125,1.796875-.01904296875.5712890625-.0283203125,1.1796875-.0283203125,1.826171875,0,3.7099609375.52294921875,7.0771484375,1.5693359375,10.1015625,1.0458984375,3.0244140625,2.41552734375,5.8115234375,4.10888671875,8.361328125.18994140625.265625.52294921875.6748046875.99853515625,1.2265625.28564453125.3427734375.49462890625.63671875.6279296875.884765625h-6.36328125l-.798828125-.884765625c-.85595703125-.970703125-1.8076171875-2.2734375-2.853515625-3.9091796875-1.7314453125-2.701171875-3.02490234375-5.5546875-3.880859375-8.560546875-.798828125-2.8720703125-1.2177734375-5.8876953125-1.25537109375-9.0458984375Z" fill="#ffa12a" stroke-width="0"/><path d="M617.64306640625,430.072265625v-34.2421875h24.0546875v6.392578125h-17.20654296875v7.3046875h12.6982421875v6.36328125h-12.6982421875v14.181640625h-6.84814453125Z" fill="#ffa12a" stroke-width="0"/><path d="M646.83349609375,399.46875c.6083984375-.6181640625,1.4267578125-.927734375,2.45361328125-.927734375,1.10302734375,0,1.95947265625.3095703125,2.568359375.927734375.6083984375.6181640625.9130859375,1.3837890625.9130859375,2.296875s-.3046875,1.6748046875-.9130859375,2.283203125c-.60888671875.6083984375-1.44580078125.9130859375-2.51123046875.9130859375s-1.90234375-.3046875-2.5107421875-.9130859375c-.609375-.6083984375-.9130859375-1.3701171875-.9130859375-2.283203125s.3037109375-1.6787109375.9130859375-2.296875ZM652.54052734375,430.072265625v-22.8564453125h-6.39208984375v22.8564453125h6.39208984375Z" fill="#ffa12a" stroke-width="0"/><path d="M658.1044921875,430.072265625v-34.2421875h6.39208984375v34.2421875h-6.39208984375Z" fill="#ffa12a" stroke-width="0"/><path d="M677.4794921875,415.462890625v14.609375h-6.3916015625v-22.171875l6.3916015625-.6845703125v2.0546875c1.4267578125-1.3310546875,3.2529296875-2.0068359375,5.47900390625-2.0263671875,2.89111328125,0,5.09765625.8759765625,6.61962890625,2.6259765625,1.673828125-1.75,4.18505859375-2.6259765625,7.533203125-2.6259765625,2.8916015625,0,5.09375.8759765625,6.60595703125,2.6259765625s2.2685546875,3.765625,2.2685546875,6.048828125v14.1533203125h-6.36328125v-12.5556640625c0-1.521484375-.34228515625-2.7001953125-1.02734375-3.5380859375-.6845703125-.8369140625-1.79736328125-1.2744140625-3.33837890625-1.3125-1.25537109375.095703125-2.349609375.9326171875-3.28173828125,2.5107421875-.076171875.4765625-.11376953125.9521484375-.11376953125,1.4267578125v13.46875h-6.39208984375v-12.5556640625c0-1.521484375-.34228515625-2.7001953125-1.02734375-3.5380859375-.6845703125-.8369140625-1.79736328125-1.2744140625-3.33837890625-1.3125-1.388671875.076171875-2.5966796875,1.0087890625-3.6240234375,2.796875Z" fill="#ffa12a" stroke-width="0"/><path d="M711.17822265625,420.912109375v-4.5361328125h14.1533203125v4.5361328125h-14.1533203125Z" fill="#ffa12a" stroke-width="0"/><path d="M746.0478515625,425.392578125c-.85595703125,3.005859375-2.14990234375,5.859375-3.880859375,8.560546875-1.04638671875,1.6357421875-1.9970703125,2.9384765625-2.853515625,3.9091796875l-.798828125.884765625h-6.36328125c.1142578125-.2666015625.3232421875-.5615234375.6279296875-.884765625.47509765625-.533203125.80810546875-.94140625.99853515625-1.2265625,1.69287109375-2.5498046875,3.0625-5.3369140625,4.10888671875-8.361328125s1.56982421875-6.3916015625,1.56982421875-10.1015625c0-.626953125-.009765625-1.236328125-.02880859375-1.826171875.01904296875-.5888671875.02880859375-1.1884765625.02880859375-1.796875,0-3.6904296875-.5234375-7.0673828125-1.56982421875-10.1298828125-1.04638671875-3.0634765625-2.416015625-5.87890625-4.10888671875-8.4462890625-.1904296875-.2666015625-.5234375-.6572265625-.99853515625-1.169921875-.28564453125-.3427734375-.4951171875-.6279296875-.6279296875-.8564453125h6.36328125l.798828125.8564453125c.8564453125.951171875,1.80712890625,2.263671875,2.853515625,3.9375,1.73095703125,2.701171875,3.01513671875,5.5546875,3.8525390625,8.560546875.8173828125,2.8720703125,1.24560546875,5.8876953125,1.28369140625,9.044921875-.0380859375,3.177734375-.45654296875,6.1923828125-1.25537109375,9.0458984375Z" fill="#ffa12a" stroke-width="0"/><path d="M775.294921875,415.1484375l8.533203125,14.923828125h-7.84765625l-8.21875-14.1533203125h-6.248046875v14.1533203125h-6.8486328125v-34.2421875h14.9228515625c7.990234375,0,11.986328125,3.2919921875,11.986328125,9.873046875.017578125,4.9462890625-2.07421875,8.0947265625-6.279296875,9.4453125ZM761.513671875,409.52734375h9.587890625c2.7578125-.0380859375,4.17578125-1.2939453125,4.251953125-3.7666015625-.076171875-2.244140625-1.46484375-3.4140625-4.166015625-3.509765625h-9.673828125v7.2763671875Z" fill="#ffa12a" stroke-width="0"/><path d="M785.654296875,418.658203125c0-3.34765625,1.064453125-6.0869140625,3.1953125-8.2177734375s4.861328125-3.1962890625,8.189453125-3.1962890625c3.34765625,0,6.01171875,1.0654296875,7.990234375,3.1962890625s2.966796875,4.8701171875,2.966796875,8.2177734375v2.283203125h-15.72265625c.15234375,1.2177734375.685546875,2.16796875,1.599609375,2.853515625.912109375.6845703125,1.96875,1.02734375,3.166015625,1.02734375,2.130859375,0,4.033203125-.609375,5.70703125-1.826171875l3.65234375,3.65234375c-1.673828125,2.2822265625-4.79296875,3.423828125-9.359375,3.423828125-3.34765625,0-6.08203125-1.0654296875-8.203125-3.1962890625-2.12109375-2.1298828125-3.181640625-4.869140625-3.181640625-8.2177734375ZM800.236328125,413.5224609375c-.9140625-.685546875-1.98046875-1.02734375-3.197265625-1.02734375s-2.27734375.341796875-3.181640625,1.02734375c-.90234375.6845703125-1.35546875,1.6357421875-1.35546875,2.853515625h9.103515625c0-1.2177734375-.45703125-2.1689453125-1.369140625-2.853515625Z" fill="#ffa12a" stroke-width="0"/><path d="M815.271484375,427.21875c-2.283203125-1.90234375-3.423828125-4.375-3.423828125-7.4189453125v-2.283203125c0-3.04296875,1.140625-5.5166015625,3.423828125-7.4189453125,2.283203125-1.9013671875,4.955078125-2.853515625,8.01953125-2.853515625,3.65234375,0,6.685546875,1.2939453125,9.1015625,3.880859375l-4.564453125,3.4248046875c-1.37109375-1.3701171875-2.892578125-2.0546875-4.56640625-2.0546875-1.521484375,0-2.853515625.6083984375-3.994140625,1.826171875-1.142578125,1.2177734375-1.712890625,2.6630859375-1.712890625,4.3369140625,0,1.6748046875.533203125,3.1201171875,1.59765625,4.337890625,1.06640625,1.216796875,2.435546875,1.826171875,4.109375,1.826171875s3.1953125-.685546875,4.56640625-2.0546875l4.564453125,3.423828125c-2.435546875,2.587890625-5.478515625,3.880859375-9.130859375,3.880859375-3.04296875,0-5.70703125-.951171875-7.990234375-2.853515625Z" fill="#ffa12a" stroke-width="0"/><path d="M843.322265625,414.634765625v15.4375h-6.392578125v-34.2421875h6.392578125v13.46875c1.541015625-1.369140625,3.3671875-2.0546875,5.478515625-2.0546875,2.890625,0,5.09765625.8759765625,6.619140625,2.6259765625s2.283203125,3.765625,2.283203125,6.048828125v14.1533203125h-6.392578125v-12.5556640625c0-1.521484375-.380859375-2.7001953125-1.140625-3.5380859375-.76171875-.8369140625-1.912109375-1.2744140625-3.453125-1.3125-1.3125.076171875-2.443359375.732421875-3.39453125,1.96875Z" fill="#ffa12a" stroke-width="0"/><path d="M872.3125,430.072265625c-2.587890625,0-4.63671875-.72265625-6.1484375-2.1689453125-1.513671875-1.4453125-2.26953125-3.3095703125-2.26953125-5.5927734375v-9.873046875h-3.423828125v-5.1640625h3.423828125v-6.1923828125l6.392578125-.6845703125v6.876953125h3.423828125v5.1640625h-3.423828125v8.9599609375c0,1.2177734375.255859375,2.07421875.76953125,2.568359375.513671875.4951171875,1.169921875.7421875,1.96875.7421875.248046875,0,.818359375-.095703125,1.712890625-.28515625l1.341796875,4.5654296875c-1.103515625.72265625-2.359375,1.083984375-3.767578125,1.083984375Z" fill="#ffa12a" stroke-width="0"/><path d="M878.76171875,418.658203125c0-3.34765625,1.064453125-6.0869140625,3.1953125-8.2177734375s4.861328125-3.1962890625,8.189453125-3.1962890625c3.34765625,0,6.01171875,1.0654296875,7.990234375,3.1962890625s2.966796875,4.8701171875,2.966796875,8.2177734375v2.283203125h-15.72265625c.15234375,1.2177734375.685546875,2.16796875,1.599609375,2.853515625.912109375.6845703125,1.96875,1.02734375,3.166015625,1.02734375,2.130859375,0,4.033203125-.609375,5.70703125-1.826171875l3.65234375,3.65234375c-1.673828125,2.2822265625-4.79296875,3.423828125-9.359375,3.423828125-3.34765625,0-6.08203125-1.0654296875-8.203125-3.1962890625-2.12109375-2.1298828125-3.181640625-4.869140625-3.181640625-8.2177734375ZM893.34375,413.5224609375c-.9140625-.685546875-1.98046875-1.02734375-3.197265625-1.02734375s-2.27734375.341796875-3.181640625,1.02734375c-.90234375.6845703125-1.35546875,1.6357421875-1.35546875,2.853515625h9.103515625c0-1.2177734375-.45703125-2.1689453125-1.369140625-2.853515625Z" fill="#ffa12a" stroke-width="0"/><path d="M922.58984375,430.072265625v-34.2421875h2.283203125l14.837890625,16.892578125,14.8671875-16.892578125h2.28125v34.2421875h-6.84765625l-.029296875-19.8603515625-10.271484375,11.4140625-10.2734375-11.4140625v19.8603515625h-6.84765625Z" fill="#ffa12a" stroke-width="0"/><path d="M963.56640625,409.9833984375c2.890625-1.826171875,6.23828125-2.7392578125,10.04296875-2.7392578125,2.740234375,0,4.908203125.76171875,6.505859375,2.283203125,1.599609375,1.5224609375,2.3984375,3.8046875,2.3984375,6.8486328125v13.6962890625h-6.392578125v-1.826171875c-1.865234375,1.2177734375-3.5390625,1.826171875-5.021484375,1.826171875-3.044921875,0-5.328125-.646484375-6.849609375-1.9404296875-1.521484375-1.29296875-2.28125-3.08203125-2.28125-5.3642578125,0-2.130859375.716796875-4.033203125,2.154296875-5.70703125,1.435546875-1.673828125,3.76171875-2.5107421875,6.9765625-2.5107421875,1.482421875,0,3.15625.4560546875,5.021484375,1.369140625v-.6845703125c-.0390625-1.673828125-1.255859375-2.5869140625-3.65234375-2.7392578125-2.740234375,0-4.87109375.4560546875-6.392578125,1.369140625l-2.509765625-3.880859375ZM976.12109375,423.2236328125v-2.5673828125c-.609375-1.1796875-2.0546875-1.76953125-4.337890625-1.76953125-2.73828125.3046875-4.185546875,1.369140625-4.3359375,3.1962890625.150390625,1.806640625,1.59765625,2.7861328125,4.3359375,2.9384765625,2.283203125,0,3.728515625-.5986328125,4.337890625-1.7978515625Z" fill="#ffa12a" stroke-width="0"/><path d="M994.58203125,415.5478515625v14.5244140625h-6.390625v-22.171875l6.390625-.6845703125v2.0830078125c1.541015625-1.369140625,3.3671875-2.0546875,5.478515625-2.0546875,2.892578125,0,5.09765625.8759765625,6.62109375,2.6259765625,1.521484375,1.75,2.28125,3.765625,2.28125,6.048828125v14.1533203125h-6.390625v-12.5556640625c0-1.521484375-.380859375-2.7001953125-1.142578125-3.5380859375-.759765625-.8369140625-1.91015625-1.2744140625-3.451171875-1.3125-1.3125.076171875-2.4453125,1.037109375-3.396484375,2.8818359375Z" fill="#ffa12a" stroke-width="0"/><path d="M1014.728515625,409.9833984375c2.890625-1.826171875,6.23828125-2.7392578125,10.04296875-2.7392578125,2.740234375,0,4.908203125.76171875,6.505859375,2.283203125,1.599609375,1.5224609375,2.3984375,3.8046875,2.3984375,6.8486328125v13.6962890625h-6.392578125v-1.826171875c-1.865234375,1.2177734375-3.5390625,1.826171875-5.021484375,1.826171875-3.044921875,0-5.328125-.646484375-6.849609375-1.9404296875-1.521484375-1.29296875-2.28125-3.08203125-2.28125-5.3642578125,0-2.130859375.716796875-4.033203125,2.154296875-5.70703125,1.435546875-1.673828125,3.76171875-2.5107421875,6.9765625-2.5107421875,1.482421875,0,3.15625.4560546875,5.021484375,1.369140625v-.6845703125c-.0390625-1.673828125-1.255859375-2.5869140625-3.65234375-2.7392578125-2.740234375,0-4.87109375.4560546875-6.392578125,1.369140625l-2.509765625-3.880859375ZM1027.283203125,423.2236328125v-2.5673828125c-.609375-1.1796875-2.0546875-1.76953125-4.337890625-1.76953125-2.73828125.3046875-4.185546875,1.369140625-4.3359375,3.1962890625.150390625,1.806640625,1.59765625,2.7861328125,4.3359375,2.9384765625,2.283203125,0,3.728515625-.5986328125,4.337890625-1.7978515625Z" fill="#ffa12a" stroke-width="0"/><path d="M1060.896484375,407.9296875v20.31640625c0,3.1962890625-.951171875,5.8681640625-2.853515625,8.0185546875-1.90234375,2.1494140625-4.298828125,3.28125-7.19140625,3.3955078125l-1.369140625.142578125c-4.4140625-.095703125-7.837890625-1.3603515625-10.2734375-3.794921875l2.96875-3.4248046875c1.673828125,1.2177734375,3.708984375,1.90234375,6.10546875,2.0546875,2.435546875,0,4.08203125-.5703125,4.9375-1.7119140625s1.283203125-2.396484375,1.283203125-3.7666015625v-1.1416015625c-1.7109375,1.3701171875-3.689453125,2.0546875-5.93359375,2.0546875-3.501953125,0-6.126953125-1.02734375-7.876953125-3.08203125s-2.625-4.8310546875-2.625-8.33203125c0-3.34765625.951171875-6.0869140625,2.853515625-8.2177734375s4.603515625-3.1962890625,8.103515625-3.1962890625c2.587890625.15234375,4.4140625.8466796875,5.478515625,2.0830078125v-2.0830078125l6.392578125.685546875ZM1054.50390625,420.712890625v-3.6806640625c-.3046875-2.5498046875-1.90234375-4.052734375-4.79296875-4.5087890625-3.8046875.1328125-5.859375,2.0263671875-6.1640625,5.6787109375.15234375,4.2607421875,2.20703125,6.4677734375,6.1640625,6.6201171875,2.890625-.45703125,4.48828125-1.826171875,4.79296875-4.109375Z" fill="#ffa12a" stroke-width="0"/><path d="M1064.234375,418.658203125c0-3.34765625,1.064453125-6.0869140625,3.1953125-8.2177734375s4.861328125-3.1962890625,8.189453125-3.1962890625c3.34765625,0,6.01171875,1.0654296875,7.990234375,3.1962890625s2.966796875,4.8701171875,2.966796875,8.2177734375v2.283203125h-15.72265625c.15234375,1.2177734375.685546875,2.16796875,1.599609375,2.853515625.912109375.6845703125,1.96875,1.02734375,3.166015625,1.02734375,2.130859375,0,4.033203125-.609375,5.70703125-1.826171875l3.65234375,3.65234375c-1.673828125,2.2822265625-4.79296875,3.423828125-9.359375,3.423828125-3.34765625,0-6.08203125-1.0654296875-8.203125-3.1962890625-2.12109375-2.1298828125-3.181640625-4.869140625-3.181640625-8.2177734375ZM1078.81640625,413.5224609375c-.9140625-.685546875-1.98046875-1.02734375-3.197265625-1.02734375s-2.27734375.341796875-3.181640625,1.02734375c-.90234375.6845703125-1.35546875,1.6357421875-1.35546875,2.853515625h9.103515625c0-1.2177734375-.45703125-2.1689453125-1.369140625-2.853515625Z" fill="#ffa12a" stroke-width="0"/><path d="M1097.904296875,415.462890625v14.609375h-6.390625v-22.171875l6.390625-.6845703125v2.0546875c1.427734375-1.3310546875,3.25390625-2.0068359375,5.478515625-2.0263671875,2.892578125,0,5.099609375.8759765625,6.62109375,2.6259765625,1.673828125-1.75,4.18359375-2.6259765625,7.533203125-2.6259765625,2.890625,0,5.09375.8759765625,6.60546875,2.6259765625s2.26953125,3.765625,2.26953125,6.048828125v14.1533203125h-6.36328125v-12.5556640625c0-1.521484375-.34375-2.7001953125-1.02734375-3.5380859375-.685546875-.8369140625-1.798828125-1.2744140625-3.33984375-1.3125-1.255859375.095703125-2.349609375.9326171875-3.28125,2.5107421875-.076171875.4765625-.11328125.9521484375-.11328125,1.4267578125v13.46875h-6.392578125v-12.5556640625c0-1.521484375-.341796875-2.7001953125-1.02734375-3.5380859375-.685546875-.8369140625-1.796875-1.2744140625-3.337890625-1.3125-1.388671875.076171875-2.59765625,1.0087890625-3.625,2.796875Z" fill="#ffa12a" stroke-width="0"/><path d="M1130.861328125,418.658203125c0-3.34765625,1.06640625-6.0869140625,3.197265625-8.2177734375,2.12890625-2.130859375,4.859375-3.1962890625,8.189453125-3.1962890625,3.34765625,0,6.009765625,1.0654296875,7.98828125,3.1962890625s2.96875,4.8701171875,2.96875,8.2177734375v2.283203125h-15.72265625c.15234375,1.2177734375.685546875,2.16796875,1.59765625,2.853515625.9140625.6845703125,1.96875,1.02734375,3.16796875,1.02734375,2.12890625,0,4.033203125-.609375,5.70703125-1.826171875l3.65234375,3.65234375c-1.673828125,2.2822265625-4.794921875,3.423828125-9.359375,3.423828125-3.349609375,0-6.083984375-1.0654296875-8.205078125-3.1962890625-2.12109375-2.1298828125-3.181640625-4.869140625-3.181640625-8.2177734375ZM1145.443359375,413.5224609375c-.912109375-.685546875-1.978515625-1.02734375-3.1953125-1.02734375-1.21875,0-2.279296875.341796875-3.181640625,1.02734375-.904296875.6845703125-1.35546875,1.6357421875-1.35546875,2.853515625h9.1015625c0-1.2177734375-.455078125-2.1689453125-1.369140625-2.853515625Z" fill="#ffa12a" stroke-width="0"/><path d="M1164.6171875,415.5478515625v14.5244140625h-6.390625v-22.171875l6.390625-.6845703125v2.0830078125c1.541015625-1.369140625,3.3671875-2.0546875,5.478515625-2.0546875,2.892578125,0,5.09765625.8759765625,6.62109375,2.6259765625,1.521484375,1.75,2.28125,3.765625,2.28125,6.048828125v14.1533203125h-6.390625v-12.5556640625c0-1.521484375-.380859375-2.7001953125-1.142578125-3.5380859375-.759765625-.8369140625-1.91015625-1.2744140625-3.451171875-1.3125-1.3125.076171875-2.4453125,1.037109375-3.396484375,2.8818359375Z" fill="#ffa12a" stroke-width="0"/><path d="M1194.634765625,430.072265625c-2.587890625,0-4.63671875-.72265625-6.1484375-2.1689453125-1.513671875-1.4453125-2.26953125-3.3095703125-2.26953125-5.5927734375v-9.873046875h-3.423828125v-5.1640625h3.423828125v-6.1923828125l6.392578125-.6845703125v6.876953125h3.423828125v5.1640625h-3.423828125v8.9599609375c0,1.2177734375.255859375,2.07421875.76953125,2.568359375.513671875.4951171875,1.169921875.7421875,1.96875.7421875.248046875,0,.818359375-.095703125,1.712890625-.28515625l1.341796875,4.5654296875c-1.103515625.72265625-2.359375,1.083984375-3.767578125,1.083984375Z" fill="#ffa12a" stroke-width="0"/><path id="uuid-f8c2a491-6efd-4307-918c-50c228b9626a" d="M1216.954454284017629,146.20202227574282c2.366084822950143-12.172168272431009,31.95609264128143-16.607495293946158,66.116677735615667-9.96719587271582,34.160585094328781,6.640299421223062,59.934327538820071,21.837499455510624,57.568242715877204,34.009667727939814M1216.954454284017629,146.20202227574282l-5.323690487673957,27.387376740672153c-.572439806077455,2.944879058371043.542979661839126,6.115974376131817,2.99174305698034,9.240648690832131,7.66261350388595,9.84297665826216,28.759740019069795,19.750624910552688,54.576501114697749,24.769011547898117,25.914929722273882,5.037469128839803,49.108240200766886,3.637331832553173,59.88110765507372-2.520189076909446,3.440994721602692-1.979794702549952,5.66312881865997-4.502120248228493,6.235568624739244-7.446999306596808l5.323690487675776-27.387376740672153" fill="url(#uuid-d8077449-9d1c-4cd3-a134-6aaec134ccca)" stroke="#404040" stroke-miterlimit="10" stroke-width="4"/><path d="M1340.639374735510501,170.244494130966814c-2.366084822941048,12.172168272431918-31.956092641275973,16.607495293945249-66.11667773561021,9.967195872721277-34.160585094334238-6.640299421233067-59.934327538823709-21.837499455511534-57.568242715882661-34.009667727945271,2.366084822950143-12.172168272431009,31.95609264128143-16.607495293946158,66.116677735615667-9.96719587271582,34.160585094328781,6.640299421223062,59.934327538820071,21.837499455510624,57.568242715877204,34.009667727939814Z" fill="url(#uuid-d89a6996-e76e-4770-8b1b-259a1fc45466)" stroke="#6693ed" stroke-miterlimit="10" stroke-width="4"/><path id="uuid-07cca0bc-aa3b-4f48-abda-76589c6c7244" d="M1222.278144771695224,118.814645535071577c2.366084822931953-12.172168272436465,31.95609264126324-16.60749529394343,66.116677735601115-9.967195872717639,34.160585094341513,6.640299421229429,59.934327538827347,21.837499455507896,57.568242715879023,34.009667727938904M1222.278144771695224,118.814645535071577l-5.323690487677595,27.387376740671243c-.572439806077455,2.944879058369224.542978206047337,6.11598186534502,2.991743056974883,9.240648690827584,7.662612048101437,9.842984147482639,28.759738563283463,19.750632399769529,54.576499658907778,24.769019037117687,25.914929722273882,5.03746912884526,49.108240200770524,3.637331832548625,59.881109110867328-2.520196566127197,3.440993265810903-1.979787213334021,5.663128818661789-4.502120248225765,6.235568624742882-7.44699930659408l5.323690487664862-27.387376740673972" fill="url(#uuid-6bdce97d-dcf7-491a-837c-642a8894a086)" stroke="#404040" stroke-miterlimit="10" stroke-width="4"/><path d="M1345.963065223175363,142.857117390292842c-2.366084822946505,12.172168272435556-31.956092641274154,16.607495293947977-66.116677735606572,9.967195872720367-34.160585094339694-6.6402994212267-59.934327538818252-21.837499455507896-57.568242715873566-34.009667727941633,2.366084822931953-12.172168272436465,31.95609264126324-16.60749529394343,66.116677735601115-9.967195872717639,34.160585094341513,6.640299421229429,59.934327538827347,21.837499455507896,57.568242715879023,34.009667727938904Z" fill="url(#uuid-d2b21138-1f4b-4bf4-82f1-12d9a0d0d5fa)" stroke="#6693ed" stroke-miterlimit="10" stroke-width="4"/><path id="uuid-86a32dfe-f39d-4767-82d8-1b2bbc6c37d0" d="M1227.601835259358268,91.427268794402153c2.366084822944686-12.172168272436465,31.956092641275973-16.607495293950706,66.116677735608391-9.967195872724005,34.160585094334238,6.640299421234886,59.93432753882189,21.837499455512443,57.568242715882661,34.00966772794618M1227.601835259358268,91.427268794402153l-5.323690487663043,27.387376740669424c-.572439806077455,2.944879058369224.542978206040061,6.115981865342292,2.991743056969426,9.240648690831222,7.662613503887769,9.842976658267617,28.759738563285282,19.75063239976771,54.57649965890414,24.769019037110411,25.914929722282977,5.037469128843441,49.108240200772343,3.637331832554992,59.881109110869147-2.52019656612265,3.440993265812722-1.979787213337659,5.663128818665427-4.502120248223946,6.235568624737425-7.446999306597718l5.323690487673957-27.387376740668515" fill="url(#uuid-c4f10159-0945-4f2a-9d89-1fa47f8308e5)" stroke="#404040" stroke-miterlimit="10" stroke-width="4"/><path d="M1351.28675571084932,115.469740649624327c-2.366084822944686,12.172168272431918-31.956092641270516,16.607495293945249-66.116677735608391,9.967195872713091-34.160585094326962-6.640299421223062-59.934327538820071-21.837499455502439-57.568242715882661-34.009667727935266,2.366084822944686-12.172168272436465,31.956092641275973-16.607495293950706,66.116677735608391-9.967195872724005,34.160585094334238,6.640299421234886,59.93432753882189,21.837499455512443,57.568242715882661,34.00966772794618Z" fill="url(#uuid-647b5806-bcd0-4511-aedd-11fae7a8eb1c)" stroke="#6693ed" stroke-miterlimit="10" stroke-width="4"/><path id="uuid-93eb08eb-2122-4397-97e6-3599113772ea" d="M1232.925525019138149,64.039895798334328c2.366084459001286-12.172166400126116,31.956092277328935-16.607493421641266,66.116677371661353-9.967194000412746,34.160585094339694,6.64029942122761,59.934327538829166,21.837499455507896,57.568243079824242,34.009665855634921M1232.925525019138149,64.039895798334328l-5.323689759779882,27.387372996067825c-.572439806081093,2.944879058363767.542978206049156,6.115981865337744,2.99174305698034,9.240648690824855,7.662613503880493,9.84297665826125,28.759738563278006,19.750632399772257,54.576499658902321,24.769019037110411,25.914929722282977,5.037469128847079,49.108240200770524,3.63733183255772,59.88110911086369-2.52019656612174,3.440993265818179-1.979787213334021,5.663128818669065-4.502120248224855,6.235568624744701-7.446999306591351l5.323690487673957-27.387376740674881" fill="url(#uuid-152244a7-e3d6-48a5-a3dc-d8643461ee28)" stroke="#404040" stroke-miterlimit="10" stroke-width="4"/><path d="M1356.610445470623745,88.082367653556503c-2.366084095041515,12.1721645278285-31.956091913381897,16.607491549337283-66.116677007714316,9.967192128110582-34.160585094334238-6.64029942122761-59.934327538816433-21.837499455506077-57.568242715868109-34.009667727942542,2.366084458990372-12.172166400126116,31.956092277321659-16.607493421640356,66.11667737164862-9.967194000411837,34.160585094336056,6.640299421225791,59.93432753882189,21.837499455505167,57.568242351933804,34.009669600243797Z" fill="url(#uuid-3f159c4b-8555-488a-9a0c-ffac3d2b765b)" stroke="#404040" stroke-miterlimit="10" stroke-width="4"/></svg>