<?xml version="1.0" encoding="UTF-8"?><svg id="uuid-34faf2f9-a400-4d71-85f6-f89d79803e7c" xmlns="http://www.w3.org/2000/svg" xmlns:xlink="http://www.w3.org/1999/xlink" viewBox="0 0 900.000021962013307 297.980271995085786"><defs><clipPath id="uuid-6d725c72-cb8d-4d6b-a11b-b650427f0ffe"><path d="M224.388957838703391,269.654100120085786c0-1.7236328125.49267578125-2.955078125,1.2314453125-4.1865234375,2.70947265625-4.43359375,27.8330078125-53.44921875,50.4931640625-101.232421875,16.9951171875-35.71435546875,32.02001953125-70.44384765625,38.91650390625-85.71484375.49267578125-1.47802734375-.49267578125-1.97021484375-1.47802734375-.9853515625-8.86669921875,9.11376953125-31.52734375,34.23681640625-53.94140625,59.35986328125-32.7587890625,36.69970703125-64.5322265625,74.63134765625-76.6015625,74.63134765625-10.83740234375,0-14.28564453125-73.89208984375-16.74853515625-94.828125-.24658203125-1.47802734375-1.23193359375-1.72412109375-1.970703125-.49267578125-5.17236328125,9.11328125-14.03955078125,25.8623046875-19.2119140625,35.2216796875-9.35986328125,17.48779296875-16.7490234375,31.28076171875-19.70458984375,34.97509765625l-.24609375.2470703125c-1.23193359375,1.7236328125-3.4482421875,2.708984375-5.91162109375,2.708984375-4.43359375,0-7.8818359375-3.4482421875-7.8818359375-7.8818359375,0-2.216796875.73876953125-3.6943359375,1.970703125-5.1728515625.73876953125-.73828125,9.11328125-15.763671875,18.2265625-32.75830078125,13.79345703125-25.8623046875,29.80322265625-61.083984375,41.13330078125-61.083984375,10.3447265625,0,10.0986328125,29.310546875,12.3154296875,58.8671875,1.72412109375,21.42822265625,3.2021484375,35.96044921875,4.92626953125,46.30517578125.24609375,1.232421875,1.2314453125,1.478515625,1.97021484375.4931640625,18.71923828125-20.197265625,26.10888671875-28.3251953125,55.912109375-61.57666015625,43.59619140625-49.01513671875,58.37451171875-68.7197265625,72.16796875-68.7197265625,6.650390625,0,16.009765625,4.68017578125,13.546875,16.5029296875-5.91162109375,30.29541015625-86.4541015625,187.93212890625-94.58203125,199.50830078125-1.47802734375,2.216796875-3.69482421875,3.6943359375-6.650390625,3.6943359375-4.43359375,0-7.8818359375-3.4482421875-7.8818359375-7.8818359375ZM635.966106276203391,267.191209495085786c-69.951171875-8.3740234375-175.86328125-34.4833984375-247.78466796875-51.478515625l-3.94091796875-.9853515625c-14.5322265625,29.8037109375-21.92138671875,39.1630859375-29.064453125,39.1630859375-12.3154296875,0-63.79345703125-57.8818359375-47.291015625-69.2119140625,5.6650390625-4.1875,30.78857421875,2.462890625,67.48828125,11.576171875,12.80810546875-28.3251953125,33.25146484375-74.63037109375,65.763671875-149.01513671875,1.2314453125-2.9560546875,4.1875-4.92626953125,7.3896484375-4.92626953125,4.43359375,0,7.8818359375,3.4482421875,7.8818359375,7.8818359375,0,1.2314453125-.24609375,2.216796875-.7392578125,3.20166015625-30.29541015625,69.458984375-50.49267578125,116.01025390625-64.5322265625,146.79931640625h.73876953125c71.92138671875,17.4873046875,176.84912109375,43.103515625,246.06103515625,51.2314453125,3.94140625.4931640625,6.896484375,3.94140625,6.896484375,7.8818359375,0,4.43359375-3.4482421875,8.1279296875-7.8818359375,7.8818359375h-.9853515625ZM368.722942213703391,211.279100120085786c-16.25634765625-4.1865234375-41.8720703125-12.5615234375-44.0888671875-9.60546875s26.60107421875,36.453125,30.5419921875,36.453125c.73876953125,0,3.94091796875-5.6650390625,13.546875-26.84765625ZM526.850871901203391,202.412889182585786c0-12.5625,13.79296875-39.1630859375,26.8466796875-64.77880859375,6.650390625-13.0546875,13.30078125-26.1083984375,18.4736328125-37.1923828125.9853515625-2.95556640625,3.9404296875-4.92626953125,7.142578125-4.92626953125,4.43359375,0,7.8818359375,3.4482421875,7.8818359375,7.8818359375,0,1.2314453125-.24609375,2.46337890625-.7392578125,3.4482421875-5.171875,11.33056640625-12.068359375,24.87744140625-18.71875,37.93115234375-11.576171875,22.90673828125-22.4140625,44.58154296875-24.630859375,54.43408203125,47.044921875-17.734375,152.4638671875-85.71484375,154.927734375-116.74951171875.24609375-3.94091796875-10.837890625-5.6650390625-28.326171875-5.6650390625-107.3896484375,0-151.724609375,14.03955078125-185.7158203125,33.498046875-1.2314453125.4921875-2.462890625.98486328125-3.9404296875.98486328125-4.43359375,0-7.8818359375-3.4482421875-7.8818359375-7.8818359375,0-2.95556640625,1.7236328125-5.41845703125,4.1875-6.896484375,35.7138671875-20.197265625,83.0048828125-35.46826171875,193.3505859375-35.46826171875,22.9072265625,0,46.552734375,1.47802734375,46.552734375,18.2265625,0,1.47802734375-.4931640625,3.69482421875-.9853515625,5.1728515625-16.9951171875,53.6943359375-165.5185546875,138.91650390625-182.759765625,128.81787109375-3.6953125-2.216796875-5.6650390625-6.1572265625-5.6650390625-10.8369140625ZM682.019817213703391,200.196092307585786c-2.216796875-2.4638671875-1.970703125-8.375,3.6943359375-8.375-4.1865234375-1.970703125-5.171875-5.4189453125-3.2021484375-10.0986328125l69.212890625-162.06982421875c1.2314453125-2.95556640625,4.1875-4.92578125,7.3896484375-4.92578125,4.4326171875,0,7.880859375,3.4482421875,7.880859375,7.8818359375,0,1.2314453125-.24609375,2.216796875-.73828125,3.20166015625l-47.044921875,109.85302734375c14.0400390625-12.5615234375,27.8330078125-19.4580078125,40.1484375-19.4580078125,13.546875,0,22.1669921875,6.1572265625,22.1669921875,17.98046875,0,8.1279296875-4.6796875,18.9658203125-13.546875,33.74365234375-15.2705078125,25.8623046875-52.708984375,37.4384765625-71.4287109375,37.4384765625-6.158203125,0-11.576171875-1.4775390625-14.5322265625-5.171875ZM754.680950026203391,160.047654807585786c7.8818359375-13.54638671875,11.0830078125-21.18212890625,11.0830078125-25.86181640625q0-2.216796875-6.4033203125-2.216796875c-16.7490234375,0-40.640625,20.197265625-62.31640625,57.63525390625,15.763671875-.24609375,45.5673828125-9.8525390625,57.63671875-29.556640625Z" fill="none" stroke-width="0"/></clipPath><linearGradient id="uuid-a717892f-fb11-4bd1-90f0-96264c742884" x1="450.000010981007108" y1="0" x2="450.000010981007108" y2="290.641774914064627" gradientUnits="userSpaceOnUse"><stop offset=".099999997868884" stop-color="#a6ce39"/><stop offset=".900000034097853" stop-color="#ffa12a"/></linearGradient></defs><g clip-path="url(#uuid-6d725c72-cb8d-4d6b-a11b-b650427f0ffe)"><rect width="900.000021962013307" height="290.641774914065536" fill="url(#uuid-a717892f-fb11-4bd1-90f0-96264c742884)" stroke-width="0"/></g></svg>