<?xml version="1.0" encoding="UTF-8"?><svg id="uuid-07a0af39-8330-461e-b173-8090d4de0f8f" xmlns="http://www.w3.org/2000/svg" xmlns:xlink="http://www.w3.org/1999/xlink" viewBox="0 0 1500 500"><defs><clipPath id="uuid-668c1c74-bb1a-4936-9b80-b1be8edcc67b"><path d="M302.46044921875,305.6650390625c-1.47802734375-1.4775390625-2.462890625-3.6943359375-2.462890625-5.9111328125,0-4.43359375,3.4482421875-7.8818359375,7.8818359375-7.8818359375,1.97021484375,0,3.94091796875.73828125,5.41845703125,1.9697265625,22.16796875,20.443359375,40.640625,26.6015625,48.0302734375,26.6015625h.24609375c3.69482421875-1.2314453125,12.06884765625-13.0546875,72.90673828125-157.1435546875,1.23193359375-2.9560546875,3.94140625-4.9267578125,7.3896484375-4.9267578125,4.43359375,0,7.8818359375,3.4482421875,7.8818359375,7.8818359375,0,1.2314453125-.24658203125,2.216796875-.7392578125,3.2021484375-62.0693359375,147.044921875-71.92138671875,162.80859375-82.5126953125,166.0107421875-1.2314453125.4931640625-3.4482421875.7392578125-5.17236328125.7392578125-10.837890625,0-33.744140625-7.8818359375-58.86767578125-30.5419921875ZM452.21533203125,255.171875c-1.72412109375-2.462890625-3.69482421875-4.6796875-5.6650390625-6.650390625-6.650390625,5.6650390625-11.57666015625,9.11328125-15.02490234375,9.11328125-19.2119140625,0-.73876953125-34.7294921875,12.0693359375-34.7294921875,1.72412109375,0,3.4482421875.7392578125,5.17236328125,1.970703125l4.43359375-3.6943359375c21.18212890625-19.2119140625,50.49267578125-45.8134765625,71.67529296875-59.8525390625,25.6162109375-16.7490234375,40.14794921875-23.1533203125,58.375-23.1533203125,7.8818359375,0,16.74853515625,1.2314453125,27.33984375,2.9560546875,3.69482421875.7392578125,6.404296875,3.9404296875,6.404296875,7.8818359375,0,4.43359375-3.4482421875,7.8818359375-7.8818359375,7.8818359375h-1.47802734375v-.24609375c-10.0986328125-1.724609375-17.48779296875-2.7099609375-24.38427734375-2.7099609375-14.77880859375,0-25.6162109375,4.6796875-49.5078125,20.6904296875-20.197265625,13.2998046875-48.76904296875,39.162109375-69.951171875,58.1279296875l-4.68017578125,4.1875c1.970703125,2.955078125,3.94091796875,6.1572265625,6.15771484375,9.359375,12.56201171875,18.7197265625,26.84765625,39.90234375,30.78857421875,39.90234375,6.15771484375,0,22.66015625-12.5625,61.57666015625-42.611328125,1.47802734375-1.2314453125,3.2021484375-1.724609375,4.92626953125-1.724609375,4.43359375,0,7.8818359375,3.4482421875,7.8818359375,7.8818359375,0,2.462890625-1.2314453125,4.6796875-3.2021484375,6.404296875-38.669921875,29.802734375-58.8671875,45.8134765625-71.1826171875,45.8134765625-13.05419921875,0-30.2958984375-26.6015625-43.8427734375-46.798828125ZM545.81103515625,274.8759765625c0-5.41796875,1.47802734375-12.068359375,4.18701171875-18.47265625,7.38916015625-16.9951171875,21.4287109375-28.818359375,37.68505859375-31.52734375-1.2314453125-1.4775390625-1.97021484375-3.4482421875-1.97021484375-5.4189453125,0-4.1865234375,3.20166015625-7.388671875,7.14306640625-7.8818359375,2.708984375-.24609375,5.41845703125-.4921875,7.8818359375-.4921875,20.443359375,0,33.49755859375,10.3447265625,33.49755859375,27.5859375,0,7.1435546875-2.462890625,15.517578125-7.14306640625,24.138671875-11.08349609375,21.1826171875-33.25146484375,40.640625-53.94140625,40.640625-16.9951171875,0-27.33984375-12.3154296875-27.33984375-28.572265625ZM613.29931640625,255.41796875c3.6943359375-7.142578125,5.17236328125-12.0693359375,5.17236328125-16.7490234375,0-8.3740234375-3.94091796875-11.576171875-17.24169921875-11.822265625,1.23193359375,1.4775390625,1.970703125,3.2021484375,1.970703125,5.171875,0,4.43359375-3.4482421875,7.8818359375-7.8818359375,7.8818359375-13.79345703125,0-24.38427734375,7.8818359375-31.03466796875,22.4140625-1.72412109375,4.9267578125-2.70947265625,8.62109375-2.70947265625,12.5615234375,0,9.3603515625,2.95556640625,12.80859375,11.576171875,12.80859375,14.03955078125,0,30.54248046875-14.2861328125,40.1484375-32.2666015625ZM896.798828125,376.1083984375c-10.345703125-1.2314453125-21.67578125-4.92578125-32.513671875-12.5615234375l-122.66064453125-86.9462890625-18.71875,38.9169921875c-1.232421875,2.708984375-3.94140625,4.6796875-7.1435546875,4.6796875-4.43359375,0-7.8818359375-3.4482421875-7.8818359375-7.8818359375,0-1.2314453125.24609375-2.462890625.7392578125-3.4482421875l49.75341796875-103.6953125c1.232421875-2.7099609375,3.94140625-4.6796875,7.142578125-4.6796875,4.43359375,0,7.8828125,3.4482421875,7.8828125,7.8818359375,0,1.2314453125-.24609375,2.462890625-.73828125,3.4482421875l-24.13916015625,50.24609375c42.85791015625-9.60546875,105.17431640625-44.3349609375,105.17431640625-49.2607421875,0-3.94140625-35.71484375-38.6708984375-154.92822265625-38.6708984375-4.43359375,0-7.8818359375-3.4482421875-7.8818359375-7.8818359375s3.4482421875-7.8818359375,7.8818359375-7.8818359375c127.34033203125,0,170.69189453125,40.640625,170.69189453125,54.4345703125,0,15.0244140625-59.115234375,47.537109375-104.435546875,61.083984375l108.62109375,76.84765625c8.62109375,6.1572265625,16.50390625,8.6201171875,24.87890625,9.60546875,3.939453125.4931640625,7.142578125,3.6953125,7.142578125,7.8818359375,0,4.43359375-3.44921875,7.8818359375-7.8828125,7.8818359375h-.984375ZM968.71875,366.9951171875c0-1.7236328125.4921875-2.955078125,1.232421875-4.1865234375,2.708984375-4.43359375,27.83203125-53.44921875,50.4921875-101.232421875,16.99609375-35.71484375,32.01953125-70.4443359375,38.916015625-85.71484375.494140625-1.478515625-.4921875-1.970703125-1.4765625-.9853515625-8.8671875,9.11328125-31.52734375,34.236328125-53.94140625,59.359375-32.759765625,36.7001953125-64.533203125,74.6318359375-76.6015625,74.6318359375-10.837890625,0-14.28515625-73.892578125-16.75-94.828125-.24609375-1.478515625-1.23046875-1.724609375-1.96875-.4931640625-5.173828125,9.11328125-14.041015625,25.8623046875-19.212890625,35.2216796875-9.359375,17.48828125-16.748046875,31.28125-19.705078125,34.9755859375l-.24609375.2470703125c-1.23046875,1.7236328125-3.447265625,2.708984375-5.91015625,2.708984375-4.43359375,0-7.8828125-3.4482421875-7.8828125-7.8818359375,0-2.216796875.73828125-3.6943359375,1.970703125-5.1728515625.73828125-.73828125,9.11328125-15.763671875,18.2265625-32.7587890625,13.79296875-25.8623046875,29.802734375-61.083984375,41.1328125-61.083984375,10.345703125,0,10.099609375,29.310546875,12.31640625,58.8671875,1.724609375,21.4287109375,3.201171875,35.9609375,4.92578125,46.3056640625.24609375,1.232421875,1.23046875,1.478515625,1.970703125.4931640625,18.71875-20.197265625,26.107421875-28.3251953125,55.912109375-61.5771484375,43.595703125-49.0146484375,58.375-68.7197265625,72.16796875-68.7197265625,6.650390625,0,16.009765625,4.6806640625,13.546875,16.5029296875-5.912109375,30.2958984375-86.455078125,187.9326171875-94.58203125,199.5087890625-1.478515625,2.216796875-3.6953125,3.6943359375-6.650390625,3.6943359375-4.43359375,0-7.8828125-3.4482421875-7.8828125-7.8818359375ZM1053.201171875,282.51171875c0-38.669921875,41.37890625-65.271484375,80.296875-67.734375h.984375c4.43359375-.24609375,7.8828125,3.4482421875,7.8828125,7.8818359375,0,3.94140625-2.95703125,7.3896484375-6.896484375,7.8818359375-34.484375,4.1875-66.50390625,22.90625-66.50390625,51.970703125,0,6.158203125,1.232421875,7.6357421875,5.171875,7.6357421875,5.666015625,0,35.46875-21.1826171875,56.158203125-43.349609375l.986328125-1.970703125c1.72265625-3.6943359375,3.939453125-6.896484375,7.634765625-7.1435546875,15.763671875-.984375,16.009765625,4.9267578125,7.63671875,14.5322265625l-3.203125,3.6953125c-1.970703125,3.6943359375-3.94140625,7.634765625-5.912109375,11.330078125-4.43359375,8.6201171875-8.126953125,15.5166015625-10.09765625,20.443359375,12.314453125-4.9267578125,33.744140625-21.921875,59.60546875-44.0888671875,1.478515625-1.2314453125,3.203125-1.970703125,5.173828125-1.970703125,4.43359375,0,7.880859375,3.4482421875,7.880859375,7.8818359375,0,2.462890625-.984375,4.43359375-2.708984375,5.9111328125-30.54296875,26.35546875-58.62109375,49.015625-75.6171875,49.26171875-7.142578125,0-11.576171875-4.92578125-11.576171875-11.576171875,0-2.4638671875.494140625-5.1728515625,1.478515625-8.12890625-15.517578125,12.0693359375-30.54296875,20.9365234375-37.439453125,20.9365234375-10.8359375,0-20.935546875-8.8671875-20.935546875-23.3994140625Z" fill="none" stroke-width="0"/></clipPath><linearGradient id="uuid-706ec1d8-b21d-4090-966c-562c4824ec6d" x1="749.998748454802808" y1="97.341017067414214" x2="749.998748454802808" y2="387.98279198147884" gradientUnits="userSpaceOnUse"><stop offset=".1" stop-color="#a6ce39"/><stop offset=".900000034097853" stop-color="#ffa12a"/></linearGradient></defs><g clip-path="url(#uuid-668c1c74-bb1a-4936-9b80-b1be8edcc67b)"><rect x="299.998737473796609" y="97.341017067414214" width="900.000021962011488" height="290.641774914065536" fill="url(#uuid-706ec1d8-b21d-4090-966c-562c4824ec6d)" stroke-width="0"/></g></svg>