<?xml version="1.0" encoding="UTF-8"?><svg id="uuid-8701c226-a5cb-4fef-80fe-6d209b300857" xmlns="http://www.w3.org/2000/svg" xmlns:xlink="http://www.w3.org/1999/xlink" viewBox="0 0 1500 500"><defs><clipPath id="uuid-68cc5e58-84a3-4532-9a3c-a71d00e9c3f4"><path d="M302.46044921875,305.6650390625c-1.47802734375-1.4775390625-2.462890625-3.6943359375-2.462890625-5.9111328125,0-4.43359375,3.4482421875-7.8818359375,7.8818359375-7.8818359375,1.97021484375,0,3.94091796875.73828125,5.41845703125,1.9697265625,22.16796875,20.443359375,40.640625,26.6015625,48.0302734375,26.6015625h.24609375c3.69482421875-1.2314453125,12.06884765625-13.0546875,72.90673828125-157.1435546875,1.23193359375-2.95556640625,3.94140625-4.92626953125,7.3896484375-4.92626953125,4.43359375,0,7.8818359375,3.4482421875,7.8818359375,7.8818359375,0,1.2314453125-.24658203125,2.216796875-.7392578125,3.2021484375-62.0693359375,147.04443359375-71.92138671875,162.80810546875-82.5126953125,166.01025390625-1.2314453125.4931640625-3.4482421875.7392578125-5.17236328125.7392578125-10.837890625,0-33.744140625-7.8818359375-58.86767578125-30.5419921875ZM452.21533203125,255.171875c-1.72412109375-2.462890625-3.69482421875-4.67919921875-5.6650390625-6.64990234375-6.650390625,5.66455078125-11.57666015625,9.11279296875-15.02490234375,9.11279296875-19.2119140625,0-.73876953125-34.72900390625,12.0693359375-34.72900390625,1.72412109375,0,3.4482421875.7392578125,5.17236328125,1.970703125l4.43359375-3.6943359375c21.18212890625-19.21240234375,50.49267578125-45.8134765625,71.67529296875-59.85302734375,25.6162109375-16.74853515625,40.14794921875-23.15283203125,58.375-23.15283203125,7.8818359375,0,16.74853515625,1.2314453125,27.33984375,2.95556640625,3.69482421875.7392578125,6.404296875,3.94091796875,6.404296875,7.8818359375,0,4.43359375-3.4482421875,7.8818359375-7.8818359375,7.8818359375h-1.47802734375v-.24609375c-10.0986328125-1.72412109375-17.48779296875-2.70947265625-24.38427734375-2.70947265625-14.77880859375,0-25.6162109375,4.6796875-49.5078125,20.68994140625-20.197265625,13.30029296875-48.76904296875,39.16259765625-69.951171875,58.12841796875l-4.68017578125,4.1875c1.970703125,2.955078125,3.94091796875,6.1572265625,6.15771484375,9.359375,12.56201171875,18.71923828125,26.84765625,39.90185546875,30.78857421875,39.90185546875,6.15771484375,0,22.66015625-12.5625,61.57666015625-42.61083984375,1.47802734375-1.2314453125,3.2021484375-1.724609375,4.92626953125-1.724609375,4.43359375,0,7.8818359375,3.4482421875,7.8818359375,7.8818359375,0,2.46240234375-1.2314453125,4.67919921875-3.2021484375,6.40380859375-38.669921875,29.802734375-58.8671875,45.8134765625-71.1826171875,45.8134765625-13.05419921875,0-30.2958984375-26.6015625-43.8427734375-46.798828125ZM545.80859375,274.8759765625c0-5.41796875,1.47802734375-12.068359375,4.18701171875-18.47265625,7.3896484375-16.99462890625,21.4287109375-28.81787109375,37.68505859375-31.52685546875-1.2314453125-1.4775390625-1.97021484375-3.4482421875-1.97021484375-5.4189453125,0-4.1865234375,3.2021484375-7.38916015625,7.142578125-7.8818359375,2.70947265625-.24609375,5.4189453125-.4921875,7.8818359375-.4921875,20.44384765625,0,33.498046875,10.3447265625,33.498046875,27.5859375,0,7.1435546875-2.462890625,15.51708984375-7.14306640625,24.13818359375-11.08349609375,21.1826171875-33.25146484375,40.640625-53.94091796875,40.640625-16.99560546875,0-27.34033203125-12.3154296875-27.34033203125-28.572265625ZM613.296875,255.41796875c3.6943359375-7.14208984375,5.17236328125-12.06884765625,5.17236328125-16.74853515625,0-8.3740234375-3.94091796875-11.576171875-17.24169921875-11.822265625,1.23193359375,1.4775390625,1.970703125,3.2021484375,1.970703125,5.171875,0,4.43359375-3.4482421875,7.8818359375-7.8818359375,7.8818359375-13.79345703125,0-24.38427734375,7.8818359375-31.03466796875,22.41357421875-1.72412109375,4.9267578125-2.70947265625,8.62109375-2.70947265625,12.5615234375,0,9.3603515625,2.95556640625,12.80859375,11.57666015625,12.80859375,14.0390625,0,30.5419921875-14.2861328125,40.14794921875-32.2666015625ZM896.794921875,376.1083984375c-10.34375-1.2314453125-21.673828125-4.92578125-32.51171875-12.5615234375l-122.66162109375-86.9462890625-18.71875,38.9169921875c-1.2314453125,2.708984375-3.94140625,4.6796875-7.1435546875,4.6796875-4.43359375,0-7.8818359375-3.4482421875-7.8818359375-7.8818359375,0-1.2314453125.24609375-2.462890625.7392578125-3.4482421875l49.75439453125-103.6953125c1.23046875-2.70947265625,3.94140625-4.6796875,7.142578125-4.6796875,4.43359375,0,7.880859375,3.4482421875,7.880859375,7.8818359375,0,1.2314453125-.24609375,2.462890625-.73828125,3.4482421875l-24.13818359375,50.24609375c42.85693359375-9.60546875,105.17333984375-44.33447265625,105.17333984375-49.2607421875,0-3.94091796875-35.71484375-38.67041015625-154.92724609375-38.67041015625-4.43359375,0-7.8818359375-3.4482421875-7.8818359375-7.8818359375s3.4482421875-7.8818359375,7.8818359375-7.8818359375c127.34130859375,0,170.69091796875,40.640625,170.69091796875,54.43408203125,0,15.02490234375-59.11328125,47.537109375-104.43359375,61.083984375l108.62109375,76.84765625c8.62109375,6.1572265625,16.501953125,8.6201171875,24.876953125,9.60546875,3.94140625.4931640625,7.142578125,3.6953125,7.142578125,7.8818359375,0,4.43359375-3.447265625,7.8818359375-7.880859375,7.8818359375h-.986328125ZM968.71484375,366.9951171875c0-1.7236328125.4921875-2.955078125,1.23046875-4.1865234375,2.708984375-4.43359375,27.833984375-53.44921875,50.494140625-101.232421875,16.994140625-35.71435546875,32.01953125-70.44384765625,38.916015625-85.71484375.4921875-1.47802734375-.4921875-1.97021484375-1.478515625-.9853515625-8.8671875,9.11376953125-31.52734375,34.23681640625-53.94140625,59.35986328125-32.7578125,36.69970703125-64.53125,74.63134765625-76.6015625,74.63134765625-10.8359375,0-14.28515625-73.89208984375-16.748046875-94.828125-.24609375-1.47802734375-1.232421875-1.72412109375-1.970703125-.49267578125-5.171875,9.11328125-14.0390625,25.8623046875-19.2109375,35.2216796875-9.361328125,17.48779296875-16.75,31.28076171875-19.705078125,34.97509765625l-.24609375.2470703125c-1.232421875,1.7236328125-3.44921875,2.708984375-5.912109375,2.708984375-4.43359375,0-7.880859375-3.4482421875-7.880859375-7.8818359375,0-2.216796875.73828125-3.6943359375,1.96875-5.1728515625.740234375-.73828125,9.11328125-15.763671875,18.228515625-32.75830078125,13.79296875-25.8623046875,29.802734375-61.083984375,41.1328125-61.083984375,10.34375,0,10.09765625,29.310546875,12.314453125,58.8671875,1.724609375,21.42822265625,3.203125,35.96044921875,4.92578125,46.30517578125.248046875,1.232421875,1.232421875,1.478515625,1.970703125.4931640625,18.720703125-20.197265625,26.109375-28.3251953125,55.912109375-61.57666015625,43.595703125-49.01513671875,58.375-68.7197265625,72.16796875-68.7197265625,6.650390625,0,16.009765625,4.68017578125,13.546875,16.5029296875-5.91015625,30.29541015625-86.453125,187.93212890625-94.58203125,199.50830078125-1.4765625,2.216796875-3.693359375,3.6943359375-6.650390625,3.6943359375-4.43359375,0-7.880859375-3.4482421875-7.880859375-7.8818359375ZM1053.193359375,282.51171875c0-38.66943359375,41.37890625-65.27099609375,80.296875-67.73388671875h.984375c4.43359375-.24609375,7.8828125,3.4482421875,7.8828125,7.8818359375,0,3.94140625-2.95703125,7.3896484375-6.896484375,7.8818359375-34.484375,4.1875-66.50390625,22.90576171875-66.50390625,51.97021484375,0,6.158203125,1.232421875,7.6357421875,5.171875,7.6357421875,5.666015625,0,35.46875-21.1826171875,56.158203125-43.34912109375l.986328125-1.970703125c1.72265625-3.6943359375,3.939453125-6.896484375,7.634765625-7.1435546875,15.763671875-.984375,16.009765625,4.9267578125,7.63671875,14.53173828125l-3.203125,3.6953125c-1.970703125,3.6943359375-3.94140625,7.634765625-5.912109375,11.330078125-4.43359375,8.6201171875-8.126953125,15.5166015625-10.09765625,20.443359375,12.314453125-4.9267578125,33.744140625-21.921875,59.60546875-44.08837890625,1.478515625-1.2314453125,3.203125-1.970703125,5.173828125-1.970703125,4.43359375,0,7.880859375,3.4482421875,7.880859375,7.8818359375,0,2.46240234375-.984375,4.43310546875-2.708984375,5.91064453125-30.54296875,26.35546875-58.62109375,49.015625-75.6171875,49.26171875-7.142578125,0-11.576171875-4.92578125-11.576171875-11.576171875,0-2.4638671875.494140625-5.1728515625,1.478515625-8.12890625-15.517578125,12.0693359375-30.54296875,20.9365234375-37.439453125,20.9365234375-10.8359375,0-20.935546875-8.8671875-20.935546875-23.3994140625Z" fill="none" stroke-width="0"/></clipPath><linearGradient id="uuid-d5c1516e-ed93-491a-bb8f-d2cd5c1e0b5c" x1="749.998748454803717" y1="97.341017067414214" x2="749.998748454803717" y2="387.98279198147884" gradientUnits="userSpaceOnUse"><stop offset=".1" stop-color="#a6ce39"/><stop offset=".900000034097853" stop-color="#ffa12a"/></linearGradient><linearGradient id="uuid-9f3f059e-a48f-4c1f-acd9-b0e31f43ee80" x1="1290.756176518600114" y1="246.56615312140184" x2="1290.756176518600114" y2="227.213502982193972" gradientTransform="translate(-69.890104847818293 167.503764715278521) rotate(12.000240311052028) scale(1 -1)" gradientUnits="userSpaceOnUse"><stop offset="0" stop-color="#d3d4db"/><stop offset=".4375" stop-color="#4e4f5f"/><stop offset=".625" stop-color="#d3d4db"/><stop offset="1" stop-color="#d3d4db"/></linearGradient><linearGradient id="uuid-cb5a469e-b2d0-46cf-a47f-18ad561e620f" x1="1290.904465735360645" y1="224.773374466559289" x2="1290.904465735360645" y2="224.252523218518235" gradientTransform="translate(-67.618416963889103 156.816533908264319) rotate(12.000240311052028) scale(1 -1)" gradientUnits="userSpaceOnUse"><stop offset="0" stop-color="#d3d4db"/><stop offset="1" stop-color="#0c0c0d"/></linearGradient><linearGradient id="uuid-1846d80e-559b-44dd-85d4-71601de659fb" x1="1366.409746462011753" y1="268.318373003528905" x2="1244.824882073387698" y2="358.24104891879125" gradientTransform="translate(934.76836721405175 -1172.022580031105917) rotate(90) scale(1 -1)" gradientUnits="userSpaceOnUse"><stop offset="0" stop-color="#afafaf"/><stop offset="1" stop-color="#ebecef"/></linearGradient><linearGradient id="uuid-76ace5ef-894a-41f5-b743-80213293fa4d" x1="1159.706114843485921" y1="117.773142369640482" x2="1359.121609565881954" y2="117.773142369640482" gradientTransform="translate(1112.761244008263702 -1138.605303550771396) rotate(77.999759688948842)" gradientUnits="userSpaceOnUse"><stop offset=".1" stop-color="#a6ce39"/><stop offset=".900000034097853" stop-color="#ffa12a"/></linearGradient></defs><g clip-path="url(#uuid-68cc5e58-84a3-4532-9a3c-a71d00e9c3f4)"><rect x="299.998737473796609" y="97.341017067414214" width="900.000021962013307" height="290.641774914065536" fill="url(#uuid-d5c1516e-ed93-491a-bb8f-d2cd5c1e0b5c)" stroke-width="0"/></g><path d="M302.88134765625,395.830078125h6.8486328125v13.697265625l11.41357421875-13.697265625h7.67626953125l-13.3828125,15.9794921875,16.20751953125,18.2626953125h-8.90283203125l-13.01171875-14.78125v14.78125h-6.8486328125v-34.2421875Z" fill="#ffa12a" stroke-width="0"/><path d="M337.22265625,426.9619140625c-2.21630859375-2.2255859375-3.32421875-4.9931640625-3.32421875-8.3037109375,0-3.3095703125,1.10791015625-6.078125,3.32421875-8.3037109375,2.2158203125-2.2255859375,4.9794921875-3.337890625,8.28955078125-3.337890625s6.07763671875,1.1123046875,8.3037109375,3.337890625c2.2255859375,2.2255859375,3.33837890625,4.994140625,3.33837890625,8.3037109375,0,3.310546875-1.1083984375,6.078125-3.32421875,8.3037109375-2.21630859375,2.2255859375-4.9892578125,3.3388671875-8.31787109375,3.3388671875-3.31005859375,0-6.07373046875-1.11328125-8.28955078125-3.3388671875ZM345.51220703125,424.7646484375c1.73046875,0,3.1337890625-.580078125,4.208984375-1.740234375,1.07421875-1.16015625,1.61181640625-2.6064453125,1.61181640625-4.337890625,0-1.73046875-.53759765625-3.181640625-1.61181640625-4.3515625-1.0751953125-1.169921875-2.48779296875-1.7548828125-4.23779296875-1.7548828125-1.7119140625,0-3.1103515625.5849609375-4.1943359375,1.7548828125-1.08447265625,1.169921875-1.62646484375,2.62109375-1.62646484375,4.3515625,0,1.7314453125.5419921875,3.177734375,1.62646484375,4.337890625,1.083984375,1.16015625,2.49169921875,1.740234375,4.22314453125,1.740234375Z" fill="#ffa12a" stroke-width="0"/><path d="M367.79736328125,415.462890625v14.609375h-6.3916015625v-22.171875l6.3916015625-.6845703125v2.0546875c1.4267578125-1.3310546875,3.2529296875-2.0068359375,5.47900390625-2.0263671875,2.89111328125,0,5.09765625.8759765625,6.61962890625,2.6259765625,1.673828125-1.75,4.18505859375-2.6259765625,7.533203125-2.6259765625,2.8916015625,0,5.09375.8759765625,6.60595703125,2.6259765625s2.2685546875,3.765625,2.2685546875,6.048828125v14.1533203125h-6.36328125v-12.5556640625c0-1.521484375-.34228515625-2.7001953125-1.02734375-3.5380859375-.6845703125-.8369140625-1.79736328125-1.2744140625-3.33837890625-1.3125-1.25537109375.095703125-2.349609375.9326171875-3.28173828125,2.5107421875-.076171875.4755859375-.11376953125.9521484375-.11376953125,1.4267578125v13.46875h-6.39208984375v-12.5556640625c0-1.521484375-.34228515625-2.7001953125-1.02734375-3.5380859375-.6845703125-.8369140625-1.79736328125-1.2744140625-3.33837890625-1.3125-1.388671875.076171875-2.5966796875,1.0087890625-3.6240234375,2.796875Z" fill="#ffa12a" stroke-width="0"/><path d="M408.2587890625,415.462890625v14.609375h-6.3916015625v-22.171875l6.3916015625-.6845703125v2.0546875c1.4267578125-1.3310546875,3.2529296875-2.0068359375,5.47900390625-2.0263671875,2.89111328125,0,5.09765625.8759765625,6.61962890625,2.6259765625,1.673828125-1.75,4.18505859375-2.6259765625,7.533203125-2.6259765625,2.8916015625,0,5.09375.8759765625,6.60595703125,2.6259765625s2.2685546875,3.765625,2.2685546875,6.048828125v14.1533203125h-6.36328125v-12.5556640625c0-1.521484375-.34228515625-2.7001953125-1.02734375-3.5380859375-.6845703125-.8369140625-1.79736328125-1.2744140625-3.33837890625-1.3125-1.25537109375.095703125-2.349609375.9326171875-3.28173828125,2.5107421875-.076171875.4755859375-.11376953125.9521484375-.11376953125,1.4267578125v13.46875h-6.39208984375v-12.5556640625c0-1.521484375-.34228515625-2.7001953125-1.02734375-3.5380859375-.6845703125-.8369140625-1.79736328125-1.2744140625-3.33837890625-1.3125-1.388671875.076171875-2.5966796875,1.0087890625-3.6240234375,2.796875Z" fill="#ffa12a" stroke-width="0"/><path d="M456.16845703125,421.96875v-14.7529296875h6.3916015625v22.8564453125h-6.3916015625v-2.0830078125c-1.541015625,1.3701171875-3.3671875,2.0546875-5.478515625,2.0546875-2.89208984375,0-5.0986328125-.875-6.6201171875-2.625-1.5224609375-1.75-2.283203125-3.7666015625-2.283203125-6.0498046875v-14.1533203125h6.39208984375v12.5556640625c0,1.521484375.38037109375,2.701171875,1.14111328125,3.5380859375s1.912109375,1.2841796875,3.453125,1.3408203125c1.3125-.0947265625,2.44384765625-.98828125,3.3955078125-2.681640625Z" fill="#ffa12a" stroke-width="0"/><path d="M474.458984375,415.5478515625v14.5244140625h-6.39208984375v-22.171875l6.39208984375-.6845703125v2.0830078125c1.54052734375-1.369140625,3.36669921875-2.0546875,5.478515625-2.0546875,2.89111328125,0,5.09765625.8759765625,6.6201171875,2.6259765625,1.521484375,1.75,2.28271484375,3.765625,2.28271484375,6.048828125v14.1533203125h-6.3916015625v-12.5556640625c0-1.521484375-.380859375-2.7001953125-1.1416015625-3.5380859375-.76123046875-.8369140625-1.91162109375-1.2744140625-3.45263671875-1.3125-1.3125.076171875-2.44482421875,1.037109375-3.3955078125,2.8818359375Z" fill="#ffa12a" stroke-width="0"/><path d="M494.603515625,409.9833984375c2.89111328125-1.826171875,6.2392578125-2.7392578125,10.0439453125-2.7392578125,2.73974609375,0,4.908203125.76171875,6.505859375,2.283203125,1.59814453125,1.5224609375,2.39697265625,3.8046875,2.39697265625,6.8486328125v13.6962890625h-6.3916015625v-1.826171875c-1.86474609375,1.2177734375-3.5380859375,1.826171875-5.02197265625,1.826171875-3.0439453125,0-5.32666015625-.646484375-6.8486328125-1.9404296875-1.52197265625-1.29296875-2.28271484375-3.08203125-2.28271484375-5.3642578125,0-2.130859375.7177734375-4.033203125,2.154296875-5.70703125,1.43603515625-1.673828125,3.76171875-2.5107421875,6.97705078125-2.5107421875,1.48388671875,0,3.1572265625.4560546875,5.02197265625,1.369140625v-.6845703125c-.03857421875-1.673828125-1.25537109375-2.5869140625-3.65234375-2.7392578125-2.7392578125,0-4.8701171875.4560546875-6.39208984375,1.369140625l-2.5107421875-3.880859375ZM507.15869140625,423.2236328125v-2.5673828125c-.60888671875-1.1796875-2.0546875-1.76953125-4.33740234375-1.76953125-2.7392578125.3046875-4.18505859375,1.369140625-4.33740234375,3.1962890625.15234375,1.806640625,1.59814453125,2.7861328125,4.33740234375,2.9384765625,2.28271484375,0,3.728515625-.5986328125,4.33740234375-1.7978515625Z" fill="#ffa12a" stroke-width="0"/><path d="M519.228515625,430.072265625v-34.2421875h6.39208984375v34.2421875h-6.39208984375Z" fill="#ffa12a" stroke-width="0"/><path d="M531.0986328125,418.658203125c0-3.34765625,1.06494140625-6.0869140625,3.19580078125-8.2177734375,2.13037109375-2.130859375,4.8603515625-3.1962890625,8.189453125-3.1962890625,3.34814453125,0,6.01123046875,1.0654296875,7.98974609375,3.1962890625,1.97802734375,2.130859375,2.9677734375,4.8701171875,2.9677734375,8.2177734375v2.283203125h-15.72265625c.15185546875,1.2177734375.6845703125,2.16796875,1.59765625,2.853515625.9130859375.6845703125,1.96923828125,1.02734375,3.16748046875,1.02734375,2.13037109375,0,4.03271484375-.609375,5.70703125-1.826171875l3.65234375,3.65234375c-1.67431640625,2.2822265625-4.7939453125,3.423828125-9.359375,3.423828125-3.3486328125,0-6.0830078125-1.0654296875-8.20361328125-3.1962890625-2.12158203125-2.1298828125-3.181640625-4.869140625-3.181640625-8.2177734375ZM545.6796875,413.5224609375c-.9130859375-.685546875-1.978515625-1.02734375-3.19580078125-1.02734375-1.2177734375,0-2.2783203125.341796875-3.181640625,1.02734375-.90380859375.6845703125-1.35546875,1.6357421875-1.35546875,2.853515625h9.1025390625c0-1.2177734375-.45654296875-2.1689453125-1.36962890625-2.853515625Z" fill="#ffa12a" stroke-width="0"/><path d="M571.34619140625,407.88671875c1.18896484375.5234375,2.306640625,1.2890625,3.35302734375,2.296875l-3.56689453125,4.0234375c-1.02734375-1.236328125-2.32080078125-1.8544921875-3.880859375-1.8544921875-1.54052734375,0-2.56787109375.28515625-3.08154296875.85546875-.513671875.5712890625-.513671875,1.08984375,0,1.5556640625s1.541015625.8515625,3.08154296875,1.1552734375c2.263671875.2099609375,4.11865234375.8564453125,5.564453125,1.9404296875,1.4453125,1.083984375,2.16845703125,2.9677734375,2.16845703125,5.6494140625,0,2.1689453125-.8515625,3.84375-2.5537109375,5.0224609375-1.70263671875,1.1796875-3.68603515625,1.76953125-5.94921875,1.76953125-2.1689453125,0-3.9716796875-.3095703125-5.40771484375-.927734375-1.4365234375-.6181640625-2.66796875-1.4404296875-3.6953125-2.4677734375l3.53857421875-3.9951171875c1.02734375,1.236328125,2.625,1.9501953125,4.7939453125,2.1396484375,1.75,0,2.8818359375-.28515625,3.3955078125-.85546875.513671875-.5712890625.58935546875-1.1416015625.22802734375-1.7119140625-.361328125-.5712890625-1.5693359375-.951171875-3.62353515625-1.1416015625-1.86474609375-.208984375-3.56689453125-.7802734375-5.10791015625-1.7119140625-1.541015625-.9326171875-2.31103515625-2.6826171875-2.31103515625-5.2509765625,0-2.3583984375.87939453125-4.1611328125,2.63916015625-5.4072265625,1.75927734375-1.24609375,3.5712890625-1.869140625,5.43603515625-1.869140625,2.13037109375,0,3.7900390625.26171875,4.97900390625.78515625Z" fill="#ffa12a" stroke-width="0"/><path d="M595.50048828125,416.3466796875c.03759765625-3.1572265625.4658203125-6.1728515625,1.2841796875-9.044921875.8369140625-3.005859375,2.12060546875-5.859375,3.85205078125-8.560546875,1.0458984375-1.6552734375,1.99755859375-2.9677734375,2.853515625-3.9375l.798828125-.8564453125h6.36328125c-.1142578125.228515625-.32373046875.513671875-.6279296875.8564453125-.4755859375.5126953125-.80859375.9033203125-.99853515625,1.169921875-1.693359375,2.5673828125-3.06298828125,5.3828125-4.10888671875,8.4462890625-1.04638671875,3.0625-1.5693359375,6.439453125-1.5693359375,10.1298828125,0,.6083984375.00927734375,1.2080078125.0283203125,1.796875-.01904296875.5712890625-.0283203125,1.1796875-.0283203125,1.826171875,0,3.7099609375.52294921875,7.0771484375,1.5693359375,10.1015625,1.0458984375,3.0244140625,2.41552734375,5.8115234375,4.10888671875,8.361328125.18994140625.265625.52294921875.6748046875.99853515625,1.2265625.28564453125.3427734375.49462890625.63671875.6279296875.884765625h-6.36328125l-.798828125-.884765625c-.85595703125-.970703125-1.8076171875-2.2734375-2.853515625-3.9091796875-1.7314453125-2.701171875-3.02490234375-5.5546875-3.880859375-8.560546875-.798828125-2.8720703125-1.2177734375-5.8876953125-1.25537109375-9.0458984375Z" fill="#ffa12a" stroke-width="0"/><path d="M617.64306640625,430.072265625v-34.2421875h24.0546875v6.392578125h-17.20654296875v7.3046875h12.6982421875v6.36328125h-12.6982421875v14.181640625h-6.84814453125Z" fill="#ffa12a" stroke-width="0"/><path d="M646.83349609375,399.46875c.6083984375-.6181640625,1.4267578125-.927734375,2.45361328125-.927734375,1.103515625,0,1.95947265625.3095703125,2.568359375.927734375.6083984375.6181640625.9130859375,1.3837890625.9130859375,2.296875s-.3046875,1.673828125-.9130859375,2.283203125c-.60888671875.6083984375-1.44580078125.9130859375-2.51123046875.9130859375s-1.90234375-.3046875-2.5107421875-.9130859375c-.609375-.609375-.9130859375-1.3701171875-.9130859375-2.283203125s.3037109375-1.6787109375.9130859375-2.296875ZM652.54052734375,430.072265625v-22.8564453125h-6.39208984375v22.8564453125h6.39208984375Z" fill="#ffa12a" stroke-width="0"/><path d="M658.1044921875,430.072265625v-34.2421875h6.39208984375v34.2421875h-6.39208984375Z" fill="#ffa12a" stroke-width="0"/><path d="M677.4794921875,415.462890625v14.609375h-6.3916015625v-22.171875l6.3916015625-.6845703125v2.0546875c1.4267578125-1.3310546875,3.2529296875-2.0068359375,5.47900390625-2.0263671875,2.89111328125,0,5.09765625.8759765625,6.61962890625,2.6259765625,1.673828125-1.75,4.18505859375-2.6259765625,7.533203125-2.6259765625,2.8916015625,0,5.09375.8759765625,6.60595703125,2.6259765625s2.2685546875,3.765625,2.2685546875,6.048828125v14.1533203125h-6.36328125v-12.5556640625c0-1.521484375-.34228515625-2.7001953125-1.02734375-3.5380859375-.6845703125-.8369140625-1.79736328125-1.2744140625-3.33837890625-1.3125-1.25537109375.095703125-2.349609375.9326171875-3.28173828125,2.5107421875-.076171875.4755859375-.11376953125.9521484375-.11376953125,1.4267578125v13.46875h-6.39208984375v-12.5556640625c0-1.521484375-.34228515625-2.7001953125-1.02734375-3.5380859375-.6845703125-.8369140625-1.79736328125-1.2744140625-3.33837890625-1.3125-1.388671875.076171875-2.5966796875,1.0087890625-3.6240234375,2.796875Z" fill="#ffa12a" stroke-width="0"/><path d="M711.17822265625,420.912109375v-4.5361328125h14.1533203125v4.5361328125h-14.1533203125Z" fill="#ffa12a" stroke-width="0"/><path d="M746.0478515625,425.392578125c-.85595703125,3.005859375-2.14990234375,5.859375-3.880859375,8.560546875-1.04638671875,1.6357421875-1.9970703125,2.9384765625-2.853515625,3.9091796875l-.798828125.884765625h-6.36328125c.1142578125-.2666015625.3232421875-.5615234375.6279296875-.884765625.47509765625-.533203125.80810546875-.94140625.99853515625-1.2265625,1.69287109375-2.5498046875,3.0625-5.3369140625,4.10888671875-8.361328125s1.56982421875-6.3916015625,1.56982421875-10.1015625c0-.626953125-.009765625-1.236328125-.02880859375-1.826171875.01904296875-.5888671875.02880859375-1.1884765625.02880859375-1.796875,0-3.6904296875-.5234375-7.0673828125-1.56982421875-10.1298828125-1.04638671875-3.0634765625-2.416015625-5.87890625-4.10888671875-8.4462890625-.1904296875-.2666015625-.5234375-.6572265625-.99853515625-1.169921875-.28564453125-.3427734375-.4951171875-.6279296875-.6279296875-.8564453125h6.36328125l.798828125.8564453125c.8564453125.951171875,1.80712890625,2.263671875,2.853515625,3.9375,1.73095703125,2.701171875,3.01513671875,5.5546875,3.8525390625,8.560546875.8173828125,2.8720703125,1.24560546875,5.8876953125,1.28369140625,9.044921875-.0380859375,3.177734375-.45654296875,6.1923828125-1.25537109375,9.0458984375Z" fill="#ffa12a" stroke-width="0"/><path d="M775.2958984375,415.1484375l8.5322265625,14.923828125h-7.8466796875l-8.21875-14.1533203125h-6.2490234375v14.1533203125h-6.8486328125v-34.2421875h14.923828125c7.990234375,0,11.9853515625,3.2919921875,11.9853515625,9.873046875.0185546875,4.9462890625-2.07421875,8.0947265625-6.2783203125,9.4453125ZM761.513671875,409.52734375h9.587890625c2.7578125-.0380859375,4.17578125-1.2939453125,4.251953125-3.7666015625-.076171875-2.244140625-1.46484375-3.4140625-4.166015625-3.509765625h-9.673828125v7.2763671875Z" fill="#ffa12a" stroke-width="0"/><path d="M785.654296875,418.658203125c0-3.34765625,1.0654296875-6.0869140625,3.1962890625-8.2177734375,2.1298828125-2.130859375,4.8603515625-3.1962890625,8.189453125-3.1962890625,3.34765625,0,6.0107421875,1.0654296875,7.9892578125,3.1962890625s2.9677734375,4.8701171875,2.9677734375,8.2177734375v2.283203125h-15.72265625c.15234375,1.2177734375.685546875,2.16796875,1.5986328125,2.853515625.9130859375.6845703125,1.96875,1.02734375,3.1669921875,1.02734375,2.1298828125,0,4.033203125-.609375,5.70703125-1.826171875l3.65234375,3.65234375c-1.673828125,2.2822265625-4.7939453125,3.423828125-9.359375,3.423828125-3.3486328125,0-6.0830078125-1.0654296875-8.2041015625-3.1962890625-2.12109375-2.1298828125-3.181640625-4.869140625-3.181640625-8.2177734375ZM800.236328125,413.5224609375c-.9130859375-.685546875-1.9794921875-1.02734375-3.1962890625-1.02734375-1.2177734375,0-2.2783203125.341796875-3.181640625,1.02734375-.9033203125.6845703125-1.35546875,1.6357421875-1.35546875,2.853515625h9.1025390625c0-1.2177734375-.4560546875-2.1689453125-1.369140625-2.853515625Z" fill="#ffa12a" stroke-width="0"/><path d="M815.2724609375,427.21875c-2.283203125-1.90234375-3.423828125-4.375-3.423828125-7.4189453125v-2.283203125c0-3.04296875,1.140625-5.5166015625,3.423828125-7.4189453125,2.2822265625-1.9013671875,4.955078125-2.853515625,8.0185546875-2.853515625,3.65234375,0,6.6865234375,1.2939453125,9.1025390625,3.880859375l-4.5654296875,3.4248046875c-1.3701171875-1.3701171875-2.892578125-2.0546875-4.56640625-2.0546875-1.521484375,0-2.853515625.6083984375-3.994140625,1.826171875-1.1416015625,1.2177734375-1.712890625,2.6630859375-1.712890625,4.3369140625,0,1.6748046875.533203125,3.1201171875,1.5986328125,4.337890625,1.0654296875,1.216796875,2.4345703125,1.826171875,4.1083984375,1.826171875s3.1962890625-.685546875,4.56640625-2.0546875l4.5654296875,3.423828125c-2.435546875,2.587890625-5.478515625,3.880859375-9.1318359375,3.880859375-3.04296875,0-5.70703125-.951171875-7.9892578125-2.853515625Z" fill="#ffa12a" stroke-width="0"/><path d="M843.322265625,414.634765625v15.4375h-6.3916015625v-34.2421875h6.3916015625v13.46875c1.541015625-1.369140625,3.3671875-2.0546875,5.478515625-2.0546875,2.8916015625,0,5.09765625.8759765625,6.6201171875,2.6259765625,1.521484375,1.75,2.2822265625,3.765625,2.2822265625,6.048828125v14.1533203125h-6.3916015625v-12.5556640625c0-1.521484375-.380859375-2.7001953125-1.1416015625-3.5380859375-.7607421875-.8369140625-1.9111328125-1.2744140625-3.4521484375-1.3125-1.3125.076171875-2.4443359375.732421875-3.3955078125,1.96875Z" fill="#ffa12a" stroke-width="0"/><path d="M872.3134765625,430.072265625c-2.587890625,0-4.63671875-.72265625-6.1494140625-2.1689453125-1.5126953125-1.4453125-2.2685546875-3.3095703125-2.2685546875-5.5927734375v-9.873046875h-3.423828125v-5.1640625h3.423828125v-6.1923828125l6.3916015625-.6845703125v6.876953125h3.4248046875v5.1640625h-3.4248046875v8.9599609375c0,1.2177734375.2568359375,2.07421875.7705078125,2.568359375.513671875.4951171875,1.169921875.7421875,1.96875.7421875.2470703125,0,.818359375-.095703125,1.712890625-.28515625l1.3408203125,4.5654296875c-1.103515625.72265625-2.359375,1.083984375-3.7666015625,1.083984375Z" fill="#ffa12a" stroke-width="0"/><path d="M878.76171875,418.658203125c0-3.34765625,1.0654296875-6.0869140625,3.1962890625-8.2177734375,2.1298828125-2.130859375,4.8603515625-3.1962890625,8.189453125-3.1962890625,3.34765625,0,6.0107421875,1.0654296875,7.9892578125,3.1962890625s2.9677734375,4.8701171875,2.9677734375,8.2177734375v2.283203125h-15.72265625c.15234375,1.2177734375.685546875,2.16796875,1.5986328125,2.853515625.9130859375.6845703125,1.96875,1.02734375,3.1669921875,1.02734375,2.1298828125,0,4.033203125-.609375,5.70703125-1.826171875l3.65234375,3.65234375c-1.673828125,2.2822265625-4.7939453125,3.423828125-9.359375,3.423828125-3.3486328125,0-6.0830078125-1.0654296875-8.2041015625-3.1962890625-2.12109375-2.1298828125-3.181640625-4.869140625-3.181640625-8.2177734375ZM893.34375,413.5224609375c-.9130859375-.685546875-1.9794921875-1.02734375-3.1962890625-1.02734375-1.2177734375,0-2.2783203125.341796875-3.181640625,1.02734375-.9033203125.6845703125-1.35546875,1.6357421875-1.35546875,2.853515625h9.1025390625c0-1.2177734375-.4560546875-2.1689453125-1.369140625-2.853515625Z" fill="#ffa12a" stroke-width="0"/><path d="M922.5908203125,430.072265625v-34.2421875h2.2822265625l14.837890625,16.892578125,14.8671875-16.892578125h2.2822265625v34.2421875h-6.84765625l-.029296875-19.8603515625-10.2724609375,11.4140625-10.2724609375-11.4140625v19.8603515625h-6.84765625Z" fill="#ffa12a" stroke-width="0"/><path d="M963.56640625,409.9833984375c2.8916015625-1.826171875,6.2392578125-2.7392578125,10.0439453125-2.7392578125,2.7392578125,0,4.908203125.76171875,6.505859375,2.283203125,1.5986328125,1.5224609375,2.3974609375,3.8046875,2.3974609375,6.8486328125v13.6962890625h-6.3916015625v-1.826171875c-1.865234375,1.2177734375-3.5390625,1.826171875-5.0224609375,1.826171875-3.0439453125,0-5.3271484375-.646484375-6.8486328125-1.9404296875-1.5224609375-1.29296875-2.2822265625-3.08203125-2.2822265625-5.3642578125,0-2.130859375.7177734375-4.033203125,2.154296875-5.70703125,1.435546875-1.673828125,3.76171875-2.5107421875,6.9765625-2.5107421875,1.4833984375,0,3.1572265625.4560546875,5.0224609375,1.369140625v-.6845703125c-.0390625-1.673828125-1.255859375-2.5869140625-3.6533203125-2.7392578125-2.7392578125,0-4.8701171875.4560546875-6.3916015625,1.369140625l-2.5107421875-3.880859375ZM976.1220703125,423.2236328125v-2.5673828125c-.609375-1.1796875-2.0546875-1.76953125-4.337890625-1.76953125-2.7392578125.3046875-4.185546875,1.369140625-4.3369140625,3.1962890625.1513671875,1.806640625,1.59765625,2.7861328125,4.3369140625,2.9384765625,2.283203125,0,3.728515625-.5986328125,4.337890625-1.7978515625Z" fill="#ffa12a" stroke-width="0"/><path d="M994.5830078125,415.5478515625v14.5244140625h-6.3916015625v-22.171875l6.3916015625-.6845703125v2.0830078125c1.541015625-1.369140625,3.3671875-2.0546875,5.478515625-2.0546875,2.8916015625,0,5.09765625.8759765625,6.6201171875,2.6259765625,1.521484375,1.75,2.2822265625,3.765625,2.2822265625,6.048828125v14.1533203125h-6.3916015625v-12.5556640625c0-1.521484375-.380859375-2.7001953125-1.1416015625-3.5380859375-.7607421875-.8369140625-1.9111328125-1.2744140625-3.4521484375-1.3125-1.3125.076171875-2.4443359375,1.037109375-3.3955078125,2.8818359375Z" fill="#ffa12a" stroke-width="0"/><path d="M1014.728515625,409.9833984375c2.8916015625-1.826171875,6.2392578125-2.7392578125,10.0439453125-2.7392578125,2.7392578125,0,4.908203125.76171875,6.505859375,2.283203125,1.5986328125,1.5224609375,2.3974609375,3.8046875,2.3974609375,6.8486328125v13.6962890625h-6.3916015625v-1.826171875c-1.865234375,1.2177734375-3.5390625,1.826171875-5.0224609375,1.826171875-3.0439453125,0-5.3271484375-.646484375-6.8486328125-1.9404296875-1.5224609375-1.29296875-2.2822265625-3.08203125-2.2822265625-5.3642578125,0-2.130859375.7177734375-4.033203125,2.154296875-5.70703125,1.435546875-1.673828125,3.76171875-2.5107421875,6.9765625-2.5107421875,1.4833984375,0,3.1572265625.4560546875,5.0224609375,1.369140625v-.6845703125c-.0390625-1.673828125-1.255859375-2.5869140625-3.6533203125-2.7392578125-2.7392578125,0-4.8701171875.4560546875-6.3916015625,1.369140625l-2.5107421875-3.880859375ZM1027.2841796875,423.2236328125v-2.5673828125c-.609375-1.1796875-2.0546875-1.76953125-4.337890625-1.76953125-2.7392578125.3046875-4.185546875,1.369140625-4.3369140625,3.1962890625.1513671875,1.806640625,1.59765625,2.7861328125,4.3369140625,2.9384765625,2.283203125,0,3.728515625-.5986328125,4.337890625-1.7978515625Z" fill="#ffa12a" stroke-width="0"/><path d="M1060.896484375,407.9296875v20.31640625c0,3.1962890625-.951171875,5.8681640625-2.853515625,8.0185546875-1.90234375,2.1494140625-4.298828125,3.28125-7.1904296875,3.3955078125l-1.369140625.142578125c-4.4140625-.095703125-7.837890625-1.3603515625-10.2734375-3.794921875l2.9677734375-3.4248046875c1.673828125,1.2177734375,3.7099609375,1.90234375,6.1064453125,2.0546875,2.435546875,0,4.0810546875-.5703125,4.9365234375-1.7119140625.8564453125-1.1416015625,1.2841796875-2.396484375,1.2841796875-3.7666015625v-1.1416015625c-1.7119140625,1.3701171875-3.6904296875,2.0546875-5.9345703125,2.0546875-3.5009765625,0-6.1259765625-1.02734375-7.8759765625-3.08203125-1.7509765625-2.0546875-2.625-4.8310546875-2.625-8.33203125,0-3.34765625.951171875-6.0869140625,2.853515625-8.2177734375,1.9013671875-2.130859375,4.603515625-3.1962890625,8.103515625-3.1962890625,2.5869140625.15234375,4.4130859375.8466796875,5.478515625,2.0830078125v-2.0830078125l6.3916015625.685546875ZM1054.5048828125,420.712890625v-3.6806640625c-.3046875-2.5498046875-1.90234375-4.052734375-4.7939453125-4.5087890625-3.8046875.1328125-5.859375,2.0263671875-6.1630859375,5.6787109375.15234375,4.2607421875,2.2060546875,6.4677734375,6.1630859375,6.6201171875,2.8916015625-.45703125,4.4892578125-1.826171875,4.7939453125-4.109375Z" fill="#ffa12a" stroke-width="0"/><path d="M1064.234375,418.658203125c0-3.34765625,1.0654296875-6.0869140625,3.1962890625-8.2177734375,2.1298828125-2.130859375,4.8603515625-3.1962890625,8.189453125-3.1962890625,3.34765625,0,6.0107421875,1.0654296875,7.9892578125,3.1962890625s2.9677734375,4.8701171875,2.9677734375,8.2177734375v2.283203125h-15.72265625c.15234375,1.2177734375.685546875,2.16796875,1.5986328125,2.853515625.9130859375.6845703125,1.96875,1.02734375,3.1669921875,1.02734375,2.1298828125,0,4.033203125-.609375,5.70703125-1.826171875l3.65234375,3.65234375c-1.673828125,2.2822265625-4.7939453125,3.423828125-9.359375,3.423828125-3.3486328125,0-6.0830078125-1.0654296875-8.2041015625-3.1962890625-2.12109375-2.1298828125-3.181640625-4.869140625-3.181640625-8.2177734375ZM1078.81640625,413.5224609375c-.9130859375-.685546875-1.9794921875-1.02734375-3.1962890625-1.02734375-1.2177734375,0-2.2783203125.341796875-3.181640625,1.02734375-.9033203125.6845703125-1.35546875,1.6357421875-1.35546875,2.853515625h9.1025390625c0-1.2177734375-.4560546875-2.1689453125-1.369140625-2.853515625Z" fill="#ffa12a" stroke-width="0"/><path d="M1097.9052734375,415.462890625v14.609375h-6.3916015625v-22.171875l6.3916015625-.6845703125v2.0546875c1.4267578125-1.3310546875,3.2529296875-2.0068359375,5.478515625-2.0263671875,2.8916015625,0,5.0986328125.8759765625,6.6201171875,2.6259765625,1.673828125-1.75,4.1845703125-2.6259765625,7.533203125-2.6259765625,2.8916015625,0,5.09375.8759765625,6.6064453125,2.6259765625,1.51171875,1.75,2.2685546875,3.765625,2.2685546875,6.048828125v14.1533203125h-6.36328125v-12.5556640625c0-1.521484375-.3427734375-2.7001953125-1.02734375-3.5380859375-.685546875-.8369140625-1.7978515625-1.2744140625-3.3388671875-1.3125-1.255859375.095703125-2.349609375.9326171875-3.28125,2.5107421875-.076171875.4755859375-.1142578125.9521484375-.1142578125,1.4267578125v13.46875h-6.3916015625v-12.5556640625c0-1.521484375-.3427734375-2.7001953125-1.02734375-3.5380859375-.685546875-.8369140625-1.7978515625-1.2744140625-3.3388671875-1.3125-1.388671875.076171875-2.5966796875,1.0087890625-3.6240234375,2.796875Z" fill="#ffa12a" stroke-width="0"/><path d="M1130.8623046875,418.658203125c0-3.34765625,1.0654296875-6.0869140625,3.1962890625-8.2177734375,2.1298828125-2.130859375,4.8603515625-3.1962890625,8.189453125-3.1962890625,3.34765625,0,6.0107421875,1.0654296875,7.9892578125,3.1962890625s2.9677734375,4.8701171875,2.9677734375,8.2177734375v2.283203125h-15.72265625c.15234375,1.2177734375.685546875,2.16796875,1.5986328125,2.853515625.9130859375.6845703125,1.96875,1.02734375,3.1669921875,1.02734375,2.1298828125,0,4.033203125-.609375,5.70703125-1.826171875l3.65234375,3.65234375c-1.673828125,2.2822265625-4.7939453125,3.423828125-9.359375,3.423828125-3.3486328125,0-6.0830078125-1.0654296875-8.2041015625-3.1962890625-2.12109375-2.1298828125-3.181640625-4.869140625-3.181640625-8.2177734375ZM1145.4443359375,413.5224609375c-.9130859375-.685546875-1.9794921875-1.02734375-3.1962890625-1.02734375-1.2177734375,0-2.2783203125.341796875-3.181640625,1.02734375-.9033203125.6845703125-1.35546875,1.6357421875-1.35546875,2.853515625h9.1025390625c0-1.2177734375-.4560546875-2.1689453125-1.369140625-2.853515625Z" fill="#ffa12a" stroke-width="0"/><path d="M1164.6181640625,415.5478515625v14.5244140625h-6.3916015625v-22.171875l6.3916015625-.6845703125v2.0830078125c1.541015625-1.369140625,3.3671875-2.0546875,5.478515625-2.0546875,2.8916015625,0,5.09765625.8759765625,6.6201171875,2.6259765625,1.521484375,1.75,2.2822265625,3.765625,2.2822265625,6.048828125v14.1533203125h-6.3916015625v-12.5556640625c0-1.521484375-.380859375-2.7001953125-1.1416015625-3.5380859375-.7607421875-.8369140625-1.9111328125-1.2744140625-3.4521484375-1.3125-1.3125.076171875-2.4443359375,1.037109375-3.3955078125,2.8818359375Z" fill="#ffa12a" stroke-width="0"/><path d="M1194.6357421875,430.072265625c-2.587890625,0-4.63671875-.72265625-6.1494140625-2.1689453125-1.5126953125-1.4453125-2.2685546875-3.3095703125-2.2685546875-5.5927734375v-9.873046875h-3.423828125v-5.1640625h3.423828125v-6.1923828125l6.3916015625-.6845703125v6.876953125h3.4248046875v5.1640625h-3.4248046875v8.9599609375c0,1.2177734375.2568359375,2.07421875.7705078125,2.568359375.513671875.4951171875,1.169921875.7421875,1.96875.7421875.2470703125,0,.818359375-.095703125,1.712890625-.28515625l1.3408203125,4.5654296875c-1.103515625.72265625-2.359375,1.083984375-3.7666015625,1.083984375Z" fill="#ffa12a" stroke-width="0"/><path id="uuid-da86885b-1ae0-4682-94ea-166d0356351a" d="M1227.959873500361937,176.986020933548389s-1.446471062738055,5.487519800602058-2.802005960560564,9.702791280118618c-1.355534897827965,4.215271479512012-2.48908037993715,7.828961109166812-3.195926549551587,9.424993859388451-.706866032125617,1.595956304450738-.961734358950707,1.915304568969077-2.550041732018144,2.03723428721969-1.588333286183115.121924210134239-6.379707387070084.091233683232531-6.438365132968102.367190989463779-.080491911236095.378676859427287.117979017919424.212227592892305,1.297552252421156.462958794776569l25.270115713370615,5.371439686121448,4.457883495537317.94757193024634,25.261339808048433,5.369574271392594c1.179538683692954.250723857729099,1.328831058102878.35921340463301,1.408364557435561-.014954574308831.058654073825892-.275940030824131-4.365723690658342-2.077008474057038-5.767002748703817-2.834407510428719-1.401417261278766-.757428412981426-1.495510805161757-1.150916230754774-1.49210916213633-2.896437702687763.0033942988739-1.745486921125121.428896116221949-5.509751205316206.905087028633716-9.911936873691957.476190912409947-4.402185668374841,1.395632582401959-10.001731334949,1.395632582401959-10.001731334949l-18.959992606038213-3.614163055206518-18.790531545872-4.410124047454701Z" fill="url(#uuid-9f3f059e-a48f-4c1f-acd9-b0e31f43ee80)" stroke="rgba(87,87,87,.63986998796463)" stroke-width=".200000002980232"/><path id="uuid-e149b2d7-a6cd-44c7-8d22-627d2e7f2c25" d="M1212.995001797486111,198.719766833377435l57.836437914473208,12.293767921035396c.031363496269478.00666665441895.051246596080091.037272759341249.044578105624169.068644893316559l-.159680235410633.751220950378411c-.006664818381978.031354858570921-.037281397046172.05124476004039-.068644893313831.04457810562144l-57.836437914473208-12.293767921034487c-.031363496271297-.00666665441895-.05124659608191-.037272759342159-.044578105620531-.068644893316559l.159680235410633-.751220950381139c.006664818376521-.031354858567283.037281397040715-.051244760038571.068644893310193-.044578105619621Z" fill="url(#uuid-cb5a469e-b2d0-46cf-a47f-18ad561e620f)" stroke="rgba(60,60,60,.282959997653961)" stroke-width=".200000002980232"/><path id="uuid-0a368f1a-6868-4553-bd56-3ac2849b7f41" d="M1220.855003834589297,197.801996141113705c-.331325960794857.209386007324611-.762343093001618.29753357836853-1.44255201411579.34975751847287-1.588333286183115.121924210135148-6.280379350318981.088801993430025-6.339033424139416.364742024257794-.079537171417542.374185254343502.018560932077889.214658197717654,1.198108253471219.465383891483725l11.233297011433024,2.387760232586515c-1.113833377348783-.659519352459938-2.31051155512796-1.385615994608997-2.849882414238891-2.07569005905134-.535125910842908-.684603600348055-1.154982887557708-1.139797113218265-1.799876948498422-1.491940755482574l-.000060463911723-.000012852266991Z" fill="rgba(225,225,229,.125400006771088)" stroke-width="0"/><path id="uuid-648ee330-e5a9-4944-b3b7-1a92de70b2dc" d="M1267.214940457881312,209.475661144268088c-.993293450846977-.791940951037759-3.023870402046668-2.178468970777431-4.63384149227204-2.79192234106722-1.321715015754307-.503628952717008-2.756136612220871-.392251170539566-4.268162472802942-.261889093817445-1.823831391124259.157235014343314-2.763887062495996.251438886961296-1.877106077399731.633565836773414.886788329245974.382092399001522,6.999551891947704,1.681427200827784,7.431756591202429,1.773297040301259.43220469924745.091869839477113,3.347337469416743.64698127257634,3.347337469416743.64698127257634l.00001598185554-.000032714766348Z" fill="rgba(225,225,229,.212219998240471)" stroke-width="0"/><rect id="uuid-383042ba-a2b9-4c9c-b025-8dfc2c51fa46" x="1192.57977490112512" y="20.684266330885279" width="133.903079793992674" height="194.767862282251144" rx="5.787276440648601" ry="5.787276440648601" transform="translate(882.166841072800025 1325.526389784020012) rotate(-77.999759688947975)" fill="url(#uuid-1846d80e-559b-44dd-85d4-71601de659fb)" stroke-width="0"/><rect id="uuid-f9b2ebd2-2118-4be3-8725-4a66bfeebc71" x="1200.13624700737796" y="28.327915992171157" width="118.555230855022273" height="178.890452835748533" rx=".578727533681871" ry=".578727533681871" transform="translate(882.362416054519144 1325.177795684486455) rotate(-77.999759688948842)" fill="url(#uuid-76ace5ef-894a-41f5-b743-80213293fa4d)" fill-opacity=".66237998008728" stroke-width="0"/></svg>