<?xml version="1.0" encoding="UTF-8"?><svg id="uuid-902d5867-f623-484d-9cbd-0d399f327fe5" xmlns="http://www.w3.org/2000/svg" xmlns:xlink="http://www.w3.org/1999/xlink" viewBox="0 0 1500 500"><defs><linearGradient id="uuid-57262efd-68a1-4c76-ac36-4eb8c4b3447d" x1="1290.756176518616485" y1="246.566153121354546" x2="1290.756176518616485" y2="227.213502982145258" gradientTransform="translate(-69.890104847821931 167.503764715231227) rotate(12.000240311051998) scale(1 -1)" gradientUnits="userSpaceOnUse"><stop offset="0" stop-color="#d3d4db"/><stop offset=".4375" stop-color="#4e4f5f"/><stop offset=".625" stop-color="#d3d4db"/><stop offset="1" stop-color="#d3d4db"/></linearGradient><linearGradient id="uuid-e494c12b-5e21-4832-a4bf-a8b140def1e7" x1="1290.904465735373378" y1="224.773374466526548" x2="1290.904465735373378" y2="224.252523218486033" gradientTransform="translate(-67.618416963892741 156.816533908231577) rotate(12.000240311051998) scale(1 -1)" gradientUnits="userSpaceOnUse"><stop offset="0" stop-color="#d3d4db"/><stop offset="1" stop-color="#0c0c0d"/></linearGradient><linearGradient id="uuid-4069240f-671a-4a83-90d8-22c7245ee02c" x1="1366.409746462029943" y1="268.31837300348343" x2="1244.824882073404297" y2="358.241048918745832" gradientTransform="translate(934.768367214093587 -1172.022580031116604) rotate(89.999999999999986) scale(1 -1)" gradientUnits="userSpaceOnUse"><stop offset="0" stop-color="#afafaf"/><stop offset="1" stop-color="#ebecef"/></linearGradient><linearGradient id="uuid-4f7ab01f-e8f0-4136-85f6-52957a662104" x1="1159.70611484348774" y1="117.773142369639572" x2="1359.121609565881954" y2="117.773142369639572" gradientTransform="translate(1112.761244008268704 -1138.605303550773215) rotate(77.999759688948998)" gradientUnits="userSpaceOnUse"><stop offset=".1" stop-color="#a6ce39"/><stop offset=".900000034097853" stop-color="#ffa12a"/></linearGradient><clipPath id="uuid-7d2e7fea-f906-425f-bc8e-35ab7d8f09e5"><path d="M524.38818359375,344.712890625c0-1.7236328125.49267578125-2.955078125,1.2314453125-4.1865234375,2.70947265625-4.43359375,27.8330078125-53.44921875,50.4931640625-101.23291015625,16.9951171875-35.71484375,32.02001953125-70.4443359375,38.91650390625-85.71533203125.49267578125-1.47802734375-.49267578125-1.97021484375-1.47802734375-.9853515625-8.86669921875,9.11376953125-31.52734375,34.23681640625-53.94140625,59.35986328125-32.7587890625,36.7001953125-64.5322265625,74.63232421875-76.6015625,74.63232421875-10.83740234375,0-14.28564453125-73.89306640625-16.74853515625-94.8291015625-.24658203125-1.47802734375-1.23193359375-1.72412109375-1.970703125-.49267578125-5.17236328125,9.11328125-14.03955078125,25.8623046875-19.2119140625,35.2216796875-9.35986328125,17.48828125-16.7490234375,31.28173828125-19.70458984375,34.97607421875l-.24609375.2470703125c-1.23193359375,1.7236328125-3.4482421875,2.708984375-5.91162109375,2.708984375-4.43359375,0-7.8818359375-3.4482421875-7.8818359375-7.8818359375,0-2.216796875.73876953125-3.6943359375,1.970703125-5.1728515625.73876953125-.73876953125,9.11328125-15.76416015625,18.2265625-32.75927734375,13.79345703125-25.8623046875,29.80322265625-61.083984375,41.13330078125-61.083984375,10.3447265625,0,10.0986328125,29.310546875,12.3154296875,58.8671875,1.72412109375,21.4287109375,3.2021484375,35.96142578125,4.92626953125,46.30615234375.24609375,1.232421875,1.2314453125,1.478515625,1.97021484375.4931640625,18.71923828125-20.19775390625,26.10888671875-28.32568359375,55.912109375-61.57763671875,43.59619140625-49.01513671875,58.37451171875-68.7197265625,72.16796875-68.7197265625,6.650390625,0,16.009765625,4.68017578125,13.546875,16.5029296875-5.91162109375,30.29541015625-86.4541015625,187.93310546875-94.58203125,199.50927734375-1.47802734375,2.216796875-3.69482421875,3.6943359375-6.650390625,3.6943359375-4.43359375,0-7.8818359375-3.4482421875-7.8818359375-7.8818359375ZM935.96484375,342.25c-69.951171875-8.3740234375-175.86328125-34.4833984375-247.7841796875-51.478515625l-3.94091796875-.9853515625c-14.5322265625,29.8037109375-21.92138671875,39.1630859375-29.064453125,39.1630859375-12.3154296875,0-63.79345703125-57.8818359375-47.291015625-69.2119140625,5.6650390625-4.1875,30.78857421875,2.462890625,67.48828125,11.576171875,12.80810546875-28.32568359375,33.25146484375-74.63134765625,65.763671875-149.01611328125,1.2314453125-2.9560546875,4.1875-4.92626953125,7.3896484375-4.92626953125,4.43310546875,0,7.88134765625,3.4482421875,7.88134765625,7.8818359375,0,1.2314453125-.24609375,2.216796875-.7392578125,3.20166015625-30.294921875,69.458984375-50.4921875,116.0107421875-64.53173828125,146.80029296875h.73876953125c71.9208984375,17.4873046875,176.8486328125,43.103515625,246.060546875,51.2314453125,3.94140625.4931640625,6.896484375,3.94140625,6.896484375,7.8818359375,0,4.43359375-3.4482421875,8.1279296875-7.8818359375,7.8818359375h-.9853515625ZM668.72216796875,286.337890625c-16.25634765625-4.1865234375-41.8720703125-12.5615234375-44.0888671875-9.60546875s26.60107421875,36.453125,30.5419921875,36.453125c.73876953125,0,3.94091796875-5.6650390625,13.546875-26.84765625ZM826.849609375,277.4716796875c0-12.5625,13.79296875-39.16357421875,26.8466796875-64.77978515625,6.650390625-13.0546875,13.30078125-26.1083984375,18.4736328125-37.1923828125.9853515625-2.95556640625,3.9404296875-4.92626953125,7.142578125-4.92626953125,4.43359375,0,7.8818359375,3.4482421875,7.8818359375,7.8818359375,0,1.2314453125-.24609375,2.46337890625-.7392578125,3.4482421875-5.171875,11.33056640625-12.068359375,24.87744140625-18.71875,37.93115234375-11.576171875,22.9072265625-22.4140625,44.58251953125-24.630859375,54.43505859375,47.044921875-17.734375,152.4638671875-85.7158203125,154.927734375-116.75048828125.24609375-3.94091796875-10.837890625-5.6650390625-28.326171875-5.6650390625-107.3896484375,0-151.724609375,14.03955078125-185.7158203125,33.498046875-1.2314453125.4921875-2.462890625.98486328125-3.9404296875.98486328125-4.43359375,0-7.8818359375-3.4482421875-7.8818359375-7.8818359375,0-2.95556640625,1.7236328125-5.41845703125,4.1875-6.896484375,35.7138671875-20.197265625,83.0048828125-35.46826171875,193.3505859375-35.46826171875,22.9072265625,0,46.552734375,1.47802734375,46.552734375,18.2265625,0,1.47802734375-.4931640625,3.69482421875-.9853515625,5.1728515625-16.9951171875,53.6943359375-165.5185546875,138.91748046875-182.759765625,128.81884765625-3.6953125-2.216796875-5.6650390625-6.1572265625-5.6650390625-10.8369140625ZM982.0185546875,275.2548828125c-2.216796875-2.4638671875-1.970703125-8.375,3.6943359375-8.375-4.1865234375-1.970703125-5.171875-5.4189453125-3.2021484375-10.0986328125l69.212890625-162.07080078125c1.2314453125-2.95556640625,4.1875-4.92578125,7.3896484375-4.92578125,4.4326171875,0,7.880859375,3.4482421875,7.880859375,7.8818359375,0,1.2314453125-.24609375,2.216796875-.73828125,3.20166015625l-47.044921875,109.85302734375c14.0400390625-12.5615234375,27.8330078125-19.4580078125,40.1484375-19.4580078125,13.546875,0,22.1669921875,6.1572265625,22.1669921875,17.98046875,0,8.1279296875-4.6796875,18.9658203125-13.546875,33.744140625-15.2705078125,25.86279296875-52.708984375,37.43896484375-71.4287109375,37.43896484375-6.158203125,0-11.576171875-1.4775390625-14.5322265625-5.171875ZM1054.6796875,235.10595703125c7.8818359375-13.546875,11.0830078125-21.1826171875,11.0830078125-25.8623046875q0-2.216796875-6.4033203125-2.216796875c-16.7490234375,0-40.640625,20.197265625-62.31640625,57.63623046875,15.763671875-.24609375,45.5673828125-9.8525390625,57.63671875-29.55712890625Z" fill="none" stroke-width="0"/></clipPath><linearGradient id="uuid-e97e9742-540a-4a6e-bfa0-36160cc326e8" x1="749.999108450543645" y1="75.05814959273448" x2="749.999108450543645" y2="365.699924506799107" gradientUnits="userSpaceOnUse"><stop offset=".1" stop-color="#a6ce39"/><stop offset=".900000034097853" stop-color="#ffa12a"/></linearGradient></defs><path id="uuid-343ffa8d-fe9c-4c51-bbad-3c62e1230a40" d="M1227.959873500360118,176.986020933548389s-1.446471062739874,5.487519800602058-2.802005960560564,9.702791280118618c-1.355534897829784,4.215271479512012-2.489080379938969,7.828961109166812-3.195926549549768,9.424993859388451-.706866032129255,1.595956304450738-.961734358950707,1.915304568969077-2.550041732019963,2.03723428721969-1.588333286179477.121924210134239-6.379707387070084.091233683232531-6.438365132969921.367190989463779-.080491911230638.378676859427287.117979017919424.212227592892305,1.297552252419337.462958794777478l25.270115713381529,5.371439686120539,4.457883495530041.94757193024634,25.261339808048433,5.369574271392594c1.179538683691135.250723857729099,1.328831058101059.35921340463301,1.408364557441018-.014954574308831.058654073820435-.275940030824131-4.365723690660161-2.077008474057038-5.767002748711093-2.834407510428719-1.401417261278766-.757428412981426-1.495510805159938-1.150916230753865-1.492109162129054-2.896437702687763.003394298870262-1.745486921125121.42889611622013-5.509751205316206.905087028630078-9.911936873691957s1.39563258240014-10.001731334949,1.39563258240014-10.001731334949l-18.959992606040032-3.614163055206518-18.790531545870181-4.410124047454701Z" fill="url(#uuid-57262efd-68a1-4c76-ac36-4eb8c4b3447d)" stroke="rgba(87,87,87,.63986998796463)" stroke-width=".200000002980232"/><path id="uuid-0f1b5de7-de08-4cd7-94dc-f48376397f2e" d="M1212.995001797489749,198.719766833377435l57.83643791446957,12.293767921035396c.031363496271297.00666665441895.051246596080091.037272759341249.044578105620531.068644893316559l-.159680235410633.751220950378411c-.00666481837834.031354858570921-.037281397038896.05124476004039-.068644893308374.04457810562144l-57.836437914471389-12.293767921034487c-.031363496278573-.00666665441895-.051246596089186-.037272759342159-.044578105618712-.068644893316559l.159680235408814-.751220950381139c.006664818371064-.031354858567283.037281397040715-.051244760039481.068644893310193-.044578105619621Z" fill="url(#uuid-e494c12b-5e21-4832-a4bf-a8b140def1e7)" stroke="rgba(60,60,60,.282959997653961)" stroke-width=".200000002980232"/><path id="uuid-d8682038-2ac6-40ef-bff2-051689cecbfa" d="M1220.855003834589297,197.801996141113705c-.331325960800314.209386007324611-.762343092999799.29753357836853-1.442552014119428.34975751847287-1.588333286179477.121924210135148-6.280379350318981.088801993430025-6.339033424139416.364742024257794-.079537171410266.374185254343502.018560932079708.214658197717654,1.198108253480314.465383891483725l11.233297011429386,2.387760232586515c-1.113833377350602-.659519352459938-2.310511555129779-1.385615994608997-2.84988241424071-2.07569005905134-.53512591083927-.684603600348055-1.154982887559527-1.139797113218265-1.799876948500241-1.491940755482574l-.000060463909904-.000012852266991Z" fill="rgba(225,225,229,.125400006771088)" stroke-width="0"/><path id="uuid-9600b91e-ce6d-4fe7-ba43-e85e6fdd42c5" d="M1267.214940457879493,209.475661144268088c-.993293450848796-.791940951037759-3.023870402050306-2.178468970777431-4.633841492270221-2.79192234106722-1.32171501574885-.503628952717008-2.756136612219052-.392251170539566-4.268162472799304-.261889093817445-1.823831391129715.157235014343314-2.763887062499634.251438886961296-1.877106077399731.633565836773414.886788329240517.382092399001522,6.999551891940428,1.681427200827784,7.43175659120061,1.773297040301259.432204699249269.091869839477113,3.347337469418562.64698127257634,3.347337469418562.64698127257634l.000015981850083-.000032714766348Z" fill="rgba(225,225,229,.212219998240471)" stroke-width="0"/><rect id="uuid-d658bfb9-5700-4755-98aa-cfa1d310f53d" x="1192.579774901121709" y="20.684266330884284" width="133.903079793992674" height="194.767862282251144" rx="5.787275336820587" ry="5.787275336820587" transform="translate(882.16684107279832 1325.526389784016146) rotate(-77.999759688947975)" fill="url(#uuid-4069240f-671a-4a83-90d8-22c7245ee02c)" stroke-width="0"/><rect id="uuid-5b92b912-2ea5-46ab-be6e-110dc2d76ece" x="1200.136247007380234" y="28.327915992173928" width="118.555230855020909" height="178.890452835743474" rx=".578727533675716" ry=".578727533675716" transform="translate(882.362416054523351 1325.177795684489411) rotate(-77.999759688948998)" fill="url(#uuid-4f7ab01f-e8f0-4136-85f6-52957a662104)" fill-opacity=".66237998008728" stroke-width="0"/><g clip-path="url(#uuid-7d2e7fea-f906-425f-bc8e-35ab7d8f09e5)"><rect x="299.999097469536537" y="75.05814959273448" width="900.000021962013307" height="290.641774914065536" fill="url(#uuid-e97e9742-540a-4a6e-bfa0-36160cc326e8)" stroke-width="0"/></g><path d="M485.90087890625,407.7890625v-34.2421875h2.28271484375l14.83837890625,16.892578125,14.8662109375-16.892578125h2.283203125v34.2421875h-6.8486328125l-.0283203125-19.8603515625-10.2724609375,11.4140625-10.27294921875-11.4140625v19.8603515625h-6.84814453125Z" fill="#ffa12a" stroke-width="0"/><path d="M528.46044921875,404.6787109375c-2.21630859375-2.2255859375-3.32421875-4.9931640625-3.32421875-8.3037109375,0-3.3095703125,1.10791015625-6.078125,3.32421875-8.3037109375,2.2158203125-2.2255859375,4.9794921875-3.337890625,8.28955078125-3.337890625s6.07763671875,1.1123046875,8.3037109375,3.337890625c2.2255859375,2.2255859375,3.33837890625,4.994140625,3.33837890625,8.3037109375,0,3.310546875-1.1083984375,6.078125-3.32421875,8.3037109375-2.21630859375,2.2255859375-4.9892578125,3.3388671875-8.31787109375,3.3388671875-3.31005859375,0-6.07373046875-1.11328125-8.28955078125-3.3388671875ZM536.75,402.4814453125c1.73046875,0,3.1337890625-.580078125,4.208984375-1.740234375,1.07421875-1.16015625,1.61181640625-2.6064453125,1.61181640625-4.337890625,0-1.73046875-.53759765625-3.181640625-1.61181640625-4.3515625-1.0751953125-1.169921875-2.48779296875-1.7548828125-4.23779296875-1.7548828125-1.7119140625,0-3.1103515625.5849609375-4.1943359375,1.7548828125-1.08447265625,1.169921875-1.62646484375,2.62109375-1.62646484375,4.3515625,0,1.7314453125.5419921875,3.177734375,1.62646484375,4.337890625,1.083984375,1.16015625,2.49169921875,1.740234375,4.22314453125,1.740234375Z" fill="#ffa12a" stroke-width="0"/><path d="M557.32275390625,384.9609375l5.3642578125,14.267578125,5.47900390625-14.267578125h6.47705078125l-9.15966796875,22.828125h-5.478515625l-9.15966796875-22.828125h6.4775390625Z" fill="#ffa12a" stroke-width="0"/><path d="M579.46533203125,377.185546875c.6083984375-.6181640625,1.4267578125-.927734375,2.45361328125-.927734375,1.103515625,0,1.95947265625.3095703125,2.568359375.927734375.6083984375.6181640625.9130859375,1.3837890625.9130859375,2.296875s-.3046875,1.673828125-.9130859375,2.283203125c-.60888671875.6083984375-1.44580078125.9130859375-2.51123046875.9130859375s-1.90234375-.3046875-2.5107421875-.9130859375c-.609375-.609375-.9130859375-1.3701171875-.9130859375-2.283203125s.3037109375-1.6787109375.9130859375-2.296875ZM585.17236328125,407.7890625v-22.8564453125h-6.39208984375v22.8564453125h6.39208984375Z" fill="#ffa12a" stroke-width="0"/><path d="M589.5380859375,396.375c0-3.34765625,1.06494140625-6.0869140625,3.19580078125-8.2177734375,2.13037109375-2.130859375,4.8603515625-3.1962890625,8.189453125-3.1962890625,3.34814453125,0,6.01123046875,1.0654296875,7.98974609375,3.1962890625,1.97802734375,2.130859375,2.9677734375,4.8701171875,2.9677734375,8.2177734375v2.283203125h-15.72265625c.15185546875,1.2177734375.6845703125,2.16796875,1.59765625,2.853515625.9130859375.6845703125,1.96923828125,1.02734375,3.16748046875,1.02734375,2.13037109375,0,4.03271484375-.609375,5.70703125-1.826171875l3.65234375,3.65234375c-1.67431640625,2.2822265625-4.7939453125,3.423828125-9.359375,3.423828125-3.3486328125,0-6.0830078125-1.0654296875-8.20361328125-3.1962890625-2.12158203125-2.1298828125-3.181640625-4.869140625-3.181640625-8.2177734375ZM604.119140625,391.2392578125c-.9130859375-.685546875-1.978515625-1.02734375-3.19580078125-1.02734375-1.2177734375,0-2.2783203125.341796875-3.181640625,1.02734375-.90380859375.6845703125-1.35546875,1.6357421875-1.35546875,2.853515625h9.1025390625c0-1.2177734375-.45654296875-2.1689453125-1.36962890625-2.853515625Z" fill="#ffa12a" stroke-width="0"/><path d="M640.30029296875,373.546875v27.8505859375h18.26220703125v6.3916015625h-25.11083984375v-34.2421875h6.8486328125Z" fill="#ffa12a" stroke-width="0"/><path d="M664.326171875,377.185546875c.6083984375-.6181640625,1.4267578125-.927734375,2.45361328125-.927734375,1.103515625,0,1.95947265625.3095703125,2.568359375.927734375.6083984375.6181640625.9130859375,1.3837890625.9130859375,2.296875s-.3046875,1.673828125-.9130859375,2.283203125c-.60888671875.6083984375-1.44580078125.9130859375-2.51123046875.9130859375s-1.90234375-.3046875-2.5107421875-.9130859375c-.609375-.609375-.9130859375-1.3701171875-.9130859375-2.283203125s.3037109375-1.6787109375.9130859375-2.296875ZM670.033203125,407.7890625v-22.8564453125h-6.39208984375v22.8564453125h6.39208984375Z" fill="#ffa12a" stroke-width="0"/><path d="M677.8515625,404.935546875c-2.28271484375-1.90234375-3.42431640625-4.375-3.42431640625-7.4189453125v-2.283203125c0-3.04296875,1.1416015625-5.5166015625,3.42431640625-7.4189453125,2.28271484375-1.9013671875,4.955078125-2.853515625,8.01806640625-2.853515625,3.65234375,0,6.6865234375,1.2939453125,9.1025390625,3.880859375l-4.5654296875,3.4248046875c-1.36962890625-1.3701171875-2.8916015625-2.0546875-4.5654296875-2.0546875-1.5224609375,0-2.853515625.6083984375-3.9951171875,1.826171875-1.14111328125,1.2177734375-1.7119140625,2.6630859375-1.7119140625,4.3369140625,0,1.6748046875.5322265625,3.1201171875,1.59814453125,4.337890625,1.06494140625,1.216796875,2.4345703125,1.826171875,4.10888671875,1.826171875,1.673828125,0,3.19580078125-.685546875,4.5654296875-2.0546875l4.5654296875,3.423828125c-2.43505859375,2.587890625-5.478515625,3.880859375-9.130859375,3.880859375-3.0439453125,0-5.70703125-.951171875-7.98974609375-2.853515625Z" fill="#ffa12a" stroke-width="0"/><path d="M698.31103515625,396.375c0-3.34765625,1.06494140625-6.0869140625,3.19580078125-8.2177734375,2.13037109375-2.130859375,4.8603515625-3.1962890625,8.189453125-3.1962890625,3.34814453125,0,6.01123046875,1.0654296875,7.98974609375,3.1962890625,1.97802734375,2.130859375,2.9677734375,4.8701171875,2.9677734375,8.2177734375v2.283203125h-15.72265625c.15185546875,1.2177734375.6845703125,2.16796875,1.59765625,2.853515625.9130859375.6845703125,1.96923828125,1.02734375,3.16748046875,1.02734375,2.13037109375,0,4.03271484375-.609375,5.70703125-1.826171875l3.65234375,3.65234375c-1.67431640625,2.2822265625-4.7939453125,3.423828125-9.359375,3.423828125-3.3486328125,0-6.0830078125-1.0654296875-8.20361328125-3.1962890625-2.12158203125-2.1298828125-3.181640625-4.869140625-3.181640625-8.2177734375ZM712.89208984375,391.2392578125c-.9130859375-.685546875-1.978515625-1.02734375-3.19580078125-1.02734375-1.2177734375,0-2.2783203125.341796875-3.181640625,1.02734375-.90380859375.6845703125-1.35546875,1.6357421875-1.35546875,2.853515625h9.1025390625c0-1.2177734375-.45654296875-2.1689453125-1.36962890625-2.853515625Z" fill="#ffa12a" stroke-width="0"/><path d="M732.06689453125,393.2646484375v14.5244140625h-6.39208984375v-22.171875l6.39208984375-.6845703125v2.0830078125c1.54052734375-1.369140625,3.36669921875-2.0546875,5.478515625-2.0546875,2.89111328125,0,5.09765625.8759765625,6.6201171875,2.6259765625,1.521484375,1.75,2.28271484375,3.765625,2.28271484375,6.048828125v14.1533203125h-6.3916015625v-12.5556640625c0-1.521484375-.380859375-2.7001953125-1.1416015625-3.5380859375-.76123046875-.8369140625-1.91162109375-1.2744140625-3.45263671875-1.3125-1.3125.076171875-2.44482421875,1.037109375-3.3955078125,2.8818359375Z" fill="#ffa12a" stroke-width="0"/><path d="M764.6669921875,385.603515625c1.1884765625.5234375,2.306640625,1.2890625,3.353515625,2.296875l-3.5673828125,4.0234375c-1.02734375-1.236328125-2.3212890625-1.8544921875-3.880859375-1.8544921875-1.541015625,0-2.568359375.28515625-3.08203125.85546875-.513671875.5712890625-.513671875,1.08984375,0,1.5556640625s1.541015625.8515625,3.08203125,1.1552734375c2.263671875.2099609375,4.1181640625.8564453125,5.564453125,1.9404296875,1.4453125,1.083984375,2.1689453125,2.9677734375,2.1689453125,5.6494140625,0,2.1689453125-.8515625,3.84375-2.5537109375,5.0224609375-1.703125,1.1796875-3.6865234375,1.76953125-5.9501953125,1.76953125-2.1689453125,0-3.9716796875-.3095703125-5.4072265625-.927734375-1.4365234375-.6181640625-2.66796875-1.4404296875-3.6953125-2.4677734375l3.5380859375-3.9951171875c1.02734375,1.236328125,2.625,1.9501953125,4.7939453125,2.1396484375,1.75,0,2.8818359375-.28515625,3.3955078125-.85546875.513671875-.5712890625.58984375-1.1416015625.228515625-1.7119140625-.361328125-.5712890625-1.5693359375-.951171875-3.6240234375-1.1416015625-1.8642578125-.208984375-3.56640625-.7802734375-5.107421875-1.7119140625-1.541015625-.9326171875-2.3115234375-2.6826171875-2.3115234375-5.2509765625,0-2.3583984375.8798828125-4.1611328125,2.6396484375-5.4072265625,1.7587890625-1.24609375,3.5712890625-1.869140625,5.435546875-1.869140625,2.130859375,0,3.7900390625.26171875,4.9794921875.78515625Z" fill="#ffa12a" stroke-width="0"/><path d="M771.7578125,396.375c0-3.34765625,1.0654296875-6.0869140625,3.1962890625-8.2177734375,2.1298828125-2.130859375,4.8603515625-3.1962890625,8.189453125-3.1962890625,3.34765625,0,6.0107421875,1.0654296875,7.9892578125,3.1962890625s2.9677734375,4.8701171875,2.9677734375,8.2177734375v2.283203125h-15.72265625c.15234375,1.2177734375.685546875,2.16796875,1.5986328125,2.853515625.9130859375.6845703125,1.96875,1.02734375,3.1669921875,1.02734375,2.1298828125,0,4.033203125-.609375,5.70703125-1.826171875l3.65234375,3.65234375c-1.673828125,2.2822265625-4.7939453125,3.423828125-9.359375,3.423828125-3.3486328125,0-6.0830078125-1.0654296875-8.2041015625-3.1962890625-2.12109375-2.1298828125-3.181640625-4.869140625-3.181640625-8.2177734375ZM786.33984375,391.2392578125c-.9130859375-.685546875-1.9794921875-1.02734375-3.1962890625-1.02734375-1.2177734375,0-2.2783203125.341796875-3.181640625,1.02734375-.9033203125.6845703125-1.35546875,1.6357421875-1.35546875,2.853515625h9.1025390625c0-1.2177734375-.4560546875-2.1689453125-1.369140625-2.853515625Z" fill="#ffa12a" stroke-width="0"/><path d="M815.5869140625,407.7890625v-34.2705078125h13.2109375c10.6533203125,0,15.9794921875,5.716796875,15.9794921875,17.1494140625,0,11.4140625-5.326171875,17.12109375-15.9794921875,17.12109375h-13.2109375ZM828.7978515625,400.9697265625c6.068359375-.01953125,9.1123046875-3.453125,9.130859375-10.3017578125-.0185546875-6.84765625-3.0625-10.2724609375-9.130859375-10.2724609375h-6.36328125v20.57421875h6.36328125Z" fill="#ffa12a" stroke-width="0"/><path d="M851.99609375,387.7001953125c2.8916015625-1.826171875,6.2392578125-2.7392578125,10.0439453125-2.7392578125,2.7392578125,0,4.908203125.76171875,6.505859375,2.283203125,1.5986328125,1.5224609375,2.3974609375,3.8046875,2.3974609375,6.8486328125v13.6962890625h-6.3916015625v-1.826171875c-1.865234375,1.2177734375-3.5390625,1.826171875-5.0224609375,1.826171875-3.0439453125,0-5.3271484375-.646484375-6.8486328125-1.9404296875-1.5224609375-1.29296875-2.2822265625-3.08203125-2.2822265625-5.3642578125,0-2.130859375.7177734375-4.033203125,2.154296875-5.70703125,1.435546875-1.673828125,3.76171875-2.5107421875,6.9765625-2.5107421875,1.4833984375,0,3.1572265625.4560546875,5.0224609375,1.369140625v-.6845703125c-.0390625-1.673828125-1.255859375-2.5869140625-3.6533203125-2.7392578125-2.7392578125,0-4.8701171875.4560546875-6.3916015625,1.369140625l-2.5107421875-3.880859375ZM864.5517578125,400.9404296875v-2.5673828125c-.609375-1.1796875-2.0546875-1.76953125-4.337890625-1.76953125-2.7392578125.3046875-4.185546875,1.369140625-4.3369140625,3.1962890625.1513671875,1.806640625,1.59765625,2.7861328125,4.3369140625,2.9384765625,2.283203125,0,3.728515625-.5986328125,4.337890625-1.7978515625Z" fill="#ffa12a" stroke-width="0"/><path d="M886.9228515625,407.7890625c-2.587890625,0-4.63671875-.72265625-6.1494140625-2.1689453125-1.5126953125-1.4453125-2.2685546875-3.3095703125-2.2685546875-5.5927734375v-9.873046875h-3.423828125v-5.1640625h3.423828125v-6.1923828125l6.3916015625-.6845703125v6.876953125h3.4248046875v5.1640625h-3.4248046875v8.9599609375c0,1.2177734375.2568359375,2.07421875.7705078125,2.568359375.513671875.4951171875,1.169921875.7421875,1.96875.7421875.2470703125,0,.818359375-.095703125,1.712890625-.28515625l1.3408203125,4.5654296875c-1.103515625.72265625-2.359375,1.083984375-3.7666015625,1.083984375Z" fill="#ffa12a" stroke-width="0"/><path d="M894.998046875,387.7001953125c2.8916015625-1.826171875,6.2392578125-2.7392578125,10.0439453125-2.7392578125,2.7392578125,0,4.908203125.76171875,6.505859375,2.283203125,1.5986328125,1.5224609375,2.3974609375,3.8046875,2.3974609375,6.8486328125v13.6962890625h-6.3916015625v-1.826171875c-1.865234375,1.2177734375-3.5390625,1.826171875-5.0224609375,1.826171875-3.0439453125,0-5.3271484375-.646484375-6.8486328125-1.9404296875-1.5224609375-1.29296875-2.2822265625-3.08203125-2.2822265625-5.3642578125,0-2.130859375.7177734375-4.033203125,2.154296875-5.70703125,1.435546875-1.673828125,3.76171875-2.5107421875,6.9765625-2.5107421875,1.4833984375,0,3.1572265625.4560546875,5.0224609375,1.369140625v-.6845703125c-.0390625-1.673828125-1.255859375-2.5869140625-3.6533203125-2.7392578125-2.7392578125,0-4.8701171875.4560546875-6.3916015625,1.369140625l-2.5107421875-3.880859375ZM907.5537109375,400.9404296875v-2.5673828125c-.609375-1.1796875-2.0546875-1.76953125-4.337890625-1.76953125-2.7392578125.3046875-4.185546875,1.369140625-4.3369140625,3.1962890625.1513671875,1.806640625,1.59765625,2.7861328125,4.3369140625,2.9384765625,2.283203125,0,3.728515625-.5986328125,4.337890625-1.7978515625Z" fill="#ffa12a" stroke-width="0"/><path d="M925.814453125,373.546875v13.26953125c1.0654296875-1.0849609375,2.7392578125-1.703125,5.0224609375-1.85546875,3.5,0,6.27734375,1.1416015625,8.33203125,3.4248046875,2.0546875,2.2822265625,3.08203125,4.9462890625,3.08203125,7.9892578125,0,3.0439453125-1.02734375,5.70703125-3.08203125,7.990234375-2.0546875,2.2822265625-4.83203125,3.423828125-8.33203125,3.423828125-1.63671875,0-3.310546875-.6083984375-5.0224609375-1.826171875v1.826171875h-6.3916015625v-34.212890625l6.3916015625-.029296875ZM930.6083984375,402.5390625c3.95703125-.15234375,6.0107421875-2.359375,6.1640625-6.6201171875-.45703125-3.5-2.51171875-5.3935546875-6.1640625-5.6787109375-2.8916015625.4375-4.4892578125,1.9404296875-4.7939453125,4.5087890625v3.6806640625c.3046875,2.283203125,1.90234375,3.65234375,4.7939453125,4.109375Z" fill="#ffa12a" stroke-width="0"/><path d="M947.2158203125,387.7001953125c2.8916015625-1.826171875,6.2392578125-2.7392578125,10.0439453125-2.7392578125,2.7392578125,0,4.908203125.76171875,6.505859375,2.283203125,1.5986328125,1.5224609375,2.3974609375,3.8046875,2.3974609375,6.8486328125v13.6962890625h-6.3916015625v-1.826171875c-1.865234375,1.2177734375-3.5390625,1.826171875-5.0224609375,1.826171875-3.0439453125,0-5.3271484375-.646484375-6.8486328125-1.9404296875-1.5224609375-1.29296875-2.2822265625-3.08203125-2.2822265625-5.3642578125,0-2.130859375.7177734375-4.033203125,2.154296875-5.70703125,1.435546875-1.673828125,3.76171875-2.5107421875,6.9765625-2.5107421875,1.4833984375,0,3.1572265625.4560546875,5.0224609375,1.369140625v-.6845703125c-.0390625-1.673828125-1.255859375-2.5869140625-3.6533203125-2.7392578125-2.7392578125,0-4.8701171875.4560546875-6.3916015625,1.369140625l-2.5107421875-3.880859375ZM959.771484375,400.9404296875v-2.5673828125c-.609375-1.1796875-2.0546875-1.76953125-4.337890625-1.76953125-2.7392578125.3046875-4.185546875,1.369140625-4.3369140625,3.1962890625.1513671875,1.806640625,1.59765625,2.7861328125,4.3369140625,2.9384765625,2.283203125,0,3.728515625-.5986328125,4.337890625-1.7978515625Z" fill="#ffa12a" stroke-width="0"/><path d="M984.7236328125,385.603515625c1.1884765625.5234375,2.306640625,1.2890625,3.353515625,2.296875l-3.5673828125,4.0234375c-1.02734375-1.236328125-2.3212890625-1.8544921875-3.880859375-1.8544921875-1.541015625,0-2.568359375.28515625-3.08203125.85546875-.5126953125.5712890625-.5126953125,1.08984375,0,1.5556640625.513671875.4658203125,1.541015625.8515625,3.08203125,1.1552734375,2.263671875.2099609375,4.1181640625.8564453125,5.564453125,1.9404296875,1.4453125,1.083984375,2.1689453125,2.9677734375,2.1689453125,5.6494140625,0,2.1689453125-.8515625,3.84375-2.5537109375,5.0224609375-1.703125,1.1796875-3.6865234375,1.76953125-5.9501953125,1.76953125-2.16796875,0-3.970703125-.3095703125-5.4072265625-.927734375s-2.66796875-1.4404296875-3.6953125-2.4677734375l3.5380859375-3.9951171875c1.02734375,1.236328125,2.6259765625,1.9501953125,4.7939453125,2.1396484375,1.75,0,2.8828125-.28515625,3.3955078125-.85546875.513671875-.5712890625.58984375-1.1416015625.228515625-1.7119140625-.361328125-.5712890625-1.5693359375-.951171875-3.6240234375-1.1416015625-1.8642578125-.208984375-3.56640625-.7802734375-5.107421875-1.7119140625-1.541015625-.9326171875-2.3115234375-2.6826171875-2.3115234375-5.2509765625,0-2.3583984375.8798828125-4.1611328125,2.6396484375-5.4072265625s3.5712890625-1.869140625,5.435546875-1.869140625c2.130859375,0,3.791015625.26171875,4.9794921875.78515625Z" fill="#ffa12a" stroke-width="0"/><path d="M991.814453125,396.375c0-3.34765625,1.0654296875-6.0869140625,3.1962890625-8.2177734375,2.1298828125-2.130859375,4.8603515625-3.1962890625,8.189453125-3.1962890625,3.34765625,0,6.0107421875,1.0654296875,7.9892578125,3.1962890625s2.9677734375,4.8701171875,2.9677734375,8.2177734375v2.283203125h-15.72265625c.15234375,1.2177734375.685546875,2.16796875,1.5986328125,2.853515625.9130859375.6845703125,1.96875,1.02734375,3.1669921875,1.02734375,2.1298828125,0,4.033203125-.609375,5.70703125-1.826171875l3.65234375,3.65234375c-1.673828125,2.2822265625-4.7939453125,3.423828125-9.359375,3.423828125-3.3486328125,0-6.0830078125-1.0654296875-8.2041015625-3.1962890625-2.12109375-2.1298828125-3.181640625-4.869140625-3.181640625-8.2177734375ZM1006.396484375,391.2392578125c-.9130859375-.685546875-1.9794921875-1.02734375-3.1962890625-1.02734375-1.2177734375,0-2.2783203125.341796875-3.181640625,1.02734375-.9033203125.6845703125-1.35546875,1.6357421875-1.35546875,2.853515625h9.1025390625c0-1.2177734375-.4560546875-2.1689453125-1.369140625-2.853515625Z" fill="#ffa12a" stroke-width="0"/></svg>