<?xml version="1.0" encoding="UTF-8"?><svg id="uuid-bca040af-5493-418f-a92f-3a057ca44dcd" xmlns="http://www.w3.org/2000/svg" xmlns:xlink="http://www.w3.org/1999/xlink" viewBox="0 0 1500 500"><defs><clipPath id="uuid-59853968-4012-4479-992e-2ec0625a7a3e"><path d="M524.3876953125,366.9951171875c0-1.7236328125.49267578125-2.955078125,1.2314453125-4.1865234375,2.70947265625-4.43359375,27.8330078125-53.44921875,50.4931640625-101.232421875,16.9951171875-35.71435546875,32.02001953125-70.44384765625,38.91650390625-85.71484375.49267578125-1.47802734375-.49267578125-1.97021484375-1.47802734375-.9853515625-8.86669921875,9.11376953125-31.52734375,34.23681640625-53.94140625,59.35986328125-32.7587890625,36.69970703125-64.5322265625,74.63134765625-76.6015625,74.63134765625-10.83740234375,0-14.28564453125-73.89208984375-16.74853515625-94.828125-.24658203125-1.47802734375-1.23193359375-1.72412109375-1.970703125-.49267578125-5.17236328125,9.11328125-14.03955078125,25.8623046875-19.2119140625,35.2216796875-9.35986328125,17.48779296875-16.7490234375,31.28076171875-19.70458984375,34.97509765625l-.24609375.2470703125c-1.23193359375,1.7236328125-3.4482421875,2.708984375-5.91162109375,2.708984375-4.43359375,0-7.8818359375-3.4482421875-7.8818359375-7.8818359375,0-2.216796875.73876953125-3.6943359375,1.970703125-5.1728515625.73876953125-.73828125,9.11328125-15.763671875,18.2265625-32.75830078125,13.79345703125-25.8623046875,29.80322265625-61.083984375,41.13330078125-61.083984375,10.3447265625,0,10.0986328125,29.310546875,12.3154296875,58.8671875,1.72412109375,21.42822265625,3.2021484375,35.96044921875,4.92626953125,46.30517578125.24609375,1.232421875,1.2314453125,1.478515625,1.97021484375.4931640625,18.71923828125-20.197265625,26.10888671875-28.3251953125,55.912109375-61.57666015625,43.59619140625-49.01513671875,58.37451171875-68.7197265625,72.16796875-68.7197265625,6.650390625,0,16.009765625,4.68017578125,13.546875,16.5029296875-5.91162109375,30.29541015625-86.4541015625,187.93212890625-94.58203125,199.50830078125-1.47802734375,2.216796875-3.69482421875,3.6943359375-6.650390625,3.6943359375-4.43359375,0-7.8818359375-3.4482421875-7.8818359375-7.8818359375ZM935.96484375,364.5322265625c-69.951171875-8.3740234375-175.86328125-34.4833984375-247.78466796875-51.478515625l-3.94091796875-.9853515625c-14.5322265625,29.8037109375-21.92138671875,39.1630859375-29.064453125,39.1630859375-12.3154296875,0-63.79345703125-57.8818359375-47.291015625-69.2119140625,5.6650390625-4.1875,30.78857421875,2.462890625,67.48828125,11.576171875,12.80810546875-28.3251953125,33.25146484375-74.63037109375,65.763671875-149.01513671875,1.2314453125-2.9560546875,4.1875-4.92626953125,7.3896484375-4.92626953125,4.43359375,0,7.8818359375,3.4482421875,7.8818359375,7.8818359375,0,1.2314453125-.24609375,2.216796875-.7392578125,3.20166015625-30.29541015625,69.458984375-50.49267578125,116.01025390625-64.5322265625,146.79931640625h.73876953125c71.92138671875,17.4873046875,176.84912109375,43.103515625,246.06103515625,51.2314453125,3.94140625.4931640625,6.896484375,3.94140625,6.896484375,7.8818359375,0,4.43359375-3.4482421875,8.1279296875-7.8818359375,7.8818359375h-.9853515625ZM668.7216796875,308.6201171875c-16.25634765625-4.1865234375-41.8720703125-12.5615234375-44.0888671875-9.60546875s26.60107421875,36.453125,30.5419921875,36.453125c.73876953125,0,3.94091796875-5.6650390625,13.546875-26.84765625ZM826.849609375,299.75390625c0-12.5625,13.79296875-39.1630859375,26.8466796875-64.77880859375,6.650390625-13.0546875,13.30078125-26.1083984375,18.4736328125-37.1923828125.9853515625-2.95556640625,3.9404296875-4.92626953125,7.142578125-4.92626953125,4.43359375,0,7.8818359375,3.4482421875,7.8818359375,7.8818359375,0,1.2314453125-.24609375,2.46337890625-.7392578125,3.4482421875-5.171875,11.33056640625-12.068359375,24.87744140625-18.71875,37.93115234375-11.576171875,22.90673828125-22.4140625,44.58154296875-24.630859375,54.43408203125,47.044921875-17.734375,152.4638671875-85.71484375,154.927734375-116.74951171875.24609375-3.94091796875-10.837890625-5.6650390625-28.326171875-5.6650390625-107.3896484375,0-151.724609375,14.03955078125-185.7158203125,33.498046875-1.2314453125.4921875-2.462890625.98486328125-3.9404296875.98486328125-4.43359375,0-7.8818359375-3.4482421875-7.8818359375-7.8818359375,0-2.95556640625,1.7236328125-5.41845703125,4.1875-6.896484375,35.7138671875-20.197265625,83.0048828125-35.46826171875,193.3505859375-35.46826171875,22.9072265625,0,46.552734375,1.47802734375,46.552734375,18.2265625,0,1.47802734375-.4931640625,3.69482421875-.9853515625,5.1728515625-16.9951171875,53.6943359375-165.5185546875,138.91650390625-182.759765625,128.81787109375-3.6953125-2.216796875-5.6650390625-6.1572265625-5.6650390625-10.8369140625ZM982.0185546875,297.537109375c-2.216796875-2.4638671875-1.970703125-8.375,3.6943359375-8.375-4.1865234375-1.970703125-5.171875-5.4189453125-3.2021484375-10.0986328125l69.212890625-162.06982421875c1.2314453125-2.95556640625,4.1875-4.92578125,7.3896484375-4.92578125,4.4326171875,0,7.880859375,3.4482421875,7.880859375,7.8818359375,0,1.2314453125-.24609375,2.216796875-.73828125,3.20166015625l-47.044921875,109.85302734375c14.0400390625-12.5615234375,27.8330078125-19.4580078125,40.1484375-19.4580078125,13.546875,0,22.1669921875,6.1572265625,22.1669921875,17.98046875,0,8.1279296875-4.6796875,18.9658203125-13.546875,33.74365234375-15.2705078125,25.8623046875-52.708984375,37.4384765625-71.4287109375,37.4384765625-6.158203125,0-11.576171875-1.4775390625-14.5322265625-5.171875ZM1054.6796875,257.388671875c7.8818359375-13.54638671875,11.0830078125-21.18212890625,11.0830078125-25.86181640625q0-2.216796875-6.4033203125-2.216796875c-16.7490234375,0-40.640625,20.197265625-62.31640625,57.63525390625,15.763671875-.24609375,45.5673828125-9.8525390625,57.63671875-29.556640625Z" fill="none" stroke-width="0"/></clipPath><linearGradient id="uuid-2bd17c9b-1425-4eff-833e-fc41f88e8b40" x1="749.998748454803717" y1="97.341017067414214" x2="749.998748454803717" y2="387.98279198147884" gradientUnits="userSpaceOnUse"><stop offset=".1" stop-color="#a6ce39"/><stop offset=".900000034097853" stop-color="#ffa12a"/></linearGradient></defs><g clip-path="url(#uuid-59853968-4012-4479-992e-2ec0625a7a3e)"><rect x="299.998737473796609" y="97.341017067414214" width="900.000021962013307" height="290.641774914065536" fill="url(#uuid-2bd17c9b-1425-4eff-833e-fc41f88e8b40)" stroke-width="0"/></g><path d="M485.900390625,430.072265625v-34.2421875h2.28271484375l14.83837890625,16.892578125,14.8662109375-16.892578125h2.283203125v34.2421875h-6.8486328125l-.0283203125-19.8603515625-10.2724609375,11.4140625-10.27294921875-11.4140625v19.8603515625h-6.84814453125Z" fill="#ffa12a" stroke-width="0"/><path d="M528.4599609375,426.9619140625c-2.21630859375-2.2255859375-3.32421875-4.9931640625-3.32421875-8.3037109375,0-3.3095703125,1.10791015625-6.078125,3.32421875-8.3037109375,2.2158203125-2.2255859375,4.9794921875-3.337890625,8.28955078125-3.337890625s6.07763671875,1.1123046875,8.3037109375,3.337890625c2.2255859375,2.2255859375,3.33837890625,4.994140625,3.33837890625,8.3037109375,0,3.310546875-1.1083984375,6.078125-3.32421875,8.3037109375-2.21630859375,2.2255859375-4.9892578125,3.3388671875-8.31787109375,3.3388671875-3.31005859375,0-6.07373046875-1.11328125-8.28955078125-3.3388671875ZM536.74951171875,424.7646484375c1.73046875,0,3.1337890625-.580078125,4.208984375-1.740234375,1.07421875-1.16015625,1.61181640625-2.6064453125,1.61181640625-4.337890625,0-1.73046875-.53759765625-3.181640625-1.61181640625-4.3515625-1.0751953125-1.169921875-2.48779296875-1.7548828125-4.23779296875-1.7548828125-1.7119140625,0-3.1103515625.5849609375-4.1943359375,1.7548828125-1.08447265625,1.169921875-1.62646484375,2.62109375-1.62646484375,4.3515625,0,1.7314453125.5419921875,3.177734375,1.62646484375,4.337890625,1.083984375,1.16015625,2.49169921875,1.740234375,4.22314453125,1.740234375Z" fill="#ffa12a" stroke-width="0"/><path d="M557.322265625,407.244140625l5.3642578125,14.267578125,5.47900390625-14.267578125h6.47705078125l-9.15966796875,22.828125h-5.478515625l-9.15966796875-22.828125h6.4775390625Z" fill="#ffa12a" stroke-width="0"/><path d="M579.46484375,399.46875c.6083984375-.6181640625,1.4267578125-.927734375,2.45361328125-.927734375,1.103515625,0,1.95947265625.3095703125,2.568359375.927734375.6083984375.6181640625.9130859375,1.3837890625.9130859375,2.296875s-.3046875,1.673828125-.9130859375,2.283203125c-.60888671875.6083984375-1.44580078125.9130859375-2.51123046875.9130859375s-1.90234375-.3046875-2.5107421875-.9130859375c-.609375-.609375-.9130859375-1.3701171875-.9130859375-2.283203125s.3037109375-1.6787109375.9130859375-2.296875ZM585.171875,430.072265625v-22.8564453125h-6.39208984375v22.8564453125h6.39208984375Z" fill="#ffa12a" stroke-width="0"/><path d="M589.53759765625,418.658203125c0-3.34765625,1.06494140625-6.0869140625,3.19580078125-8.2177734375,2.13037109375-2.130859375,4.8603515625-3.1962890625,8.189453125-3.1962890625,3.34814453125,0,6.01123046875,1.0654296875,7.98974609375,3.1962890625,1.97802734375,2.130859375,2.9677734375,4.8701171875,2.9677734375,8.2177734375v2.283203125h-15.72265625c.15185546875,1.2177734375.6845703125,2.16796875,1.59765625,2.853515625.9130859375.6845703125,1.96923828125,1.02734375,3.16748046875,1.02734375,2.13037109375,0,4.03271484375-.609375,5.70703125-1.826171875l3.65234375,3.65234375c-1.67431640625,2.2822265625-4.7939453125,3.423828125-9.359375,3.423828125-3.3486328125,0-6.0830078125-1.0654296875-8.20361328125-3.1962890625-2.12158203125-2.1298828125-3.181640625-4.869140625-3.181640625-8.2177734375ZM604.11865234375,413.5224609375c-.9130859375-.685546875-1.978515625-1.02734375-3.19580078125-1.02734375-1.2177734375,0-2.2783203125.341796875-3.181640625,1.02734375-.90380859375.6845703125-1.35546875,1.6357421875-1.35546875,2.853515625h9.1025390625c0-1.2177734375-.45654296875-2.1689453125-1.36962890625-2.853515625Z" fill="#ffa12a" stroke-width="0"/><path d="M640.2998046875,395.830078125v27.8505859375h18.26220703125v6.3916015625h-25.11083984375v-34.2421875h6.8486328125Z" fill="#ffa12a" stroke-width="0"/><path d="M664.32568359375,399.46875c.6083984375-.6181640625,1.4267578125-.927734375,2.45361328125-.927734375,1.103515625,0,1.95947265625.3095703125,2.568359375.927734375.6083984375.6181640625.9130859375,1.3837890625.9130859375,2.296875s-.3046875,1.673828125-.9130859375,2.283203125c-.60888671875.6083984375-1.44580078125.9130859375-2.51123046875.9130859375s-1.90234375-.3046875-2.5107421875-.9130859375c-.609375-.609375-.9130859375-1.3701171875-.9130859375-2.283203125s.3037109375-1.6787109375.9130859375-2.296875ZM670.03271484375,430.072265625v-22.8564453125h-6.39208984375v22.8564453125h6.39208984375Z" fill="#ffa12a" stroke-width="0"/><path d="M677.85107421875,427.21875c-2.28271484375-1.90234375-3.42431640625-4.375-3.42431640625-7.4189453125v-2.283203125c0-3.04296875,1.1416015625-5.5166015625,3.42431640625-7.4189453125,2.28271484375-1.9013671875,4.955078125-2.853515625,8.01806640625-2.853515625,3.65234375,0,6.6865234375,1.2939453125,9.1025390625,3.880859375l-4.5654296875,3.4248046875c-1.36962890625-1.3701171875-2.8916015625-2.0546875-4.5654296875-2.0546875-1.5224609375,0-2.853515625.6083984375-3.9951171875,1.826171875-1.14111328125,1.2177734375-1.7119140625,2.6630859375-1.7119140625,4.3369140625,0,1.6748046875.5322265625,3.1201171875,1.59814453125,4.337890625,1.06494140625,1.216796875,2.4345703125,1.826171875,4.10888671875,1.826171875,1.673828125,0,3.19580078125-.685546875,4.5654296875-2.0546875l4.5654296875,3.423828125c-2.43505859375,2.587890625-5.478515625,3.880859375-9.130859375,3.880859375-3.0439453125,0-5.70703125-.951171875-7.98974609375-2.853515625Z" fill="#ffa12a" stroke-width="0"/><path d="M698.310546875,418.658203125c0-3.34765625,1.06494140625-6.0869140625,3.19580078125-8.2177734375,2.13037109375-2.130859375,4.8603515625-3.1962890625,8.189453125-3.1962890625,3.34814453125,0,6.01123046875,1.0654296875,7.98974609375,3.1962890625,1.97802734375,2.130859375,2.9677734375,4.8701171875,2.9677734375,8.2177734375v2.283203125h-15.72265625c.15185546875,1.2177734375.6845703125,2.16796875,1.59765625,2.853515625.9130859375.6845703125,1.96923828125,1.02734375,3.16748046875,1.02734375,2.13037109375,0,4.03271484375-.609375,5.70703125-1.826171875l3.65234375,3.65234375c-1.67431640625,2.2822265625-4.7939453125,3.423828125-9.359375,3.423828125-3.3486328125,0-6.0830078125-1.0654296875-8.20361328125-3.1962890625-2.12158203125-2.1298828125-3.181640625-4.869140625-3.181640625-8.2177734375ZM712.8916015625,413.5224609375c-.9130859375-.685546875-1.978515625-1.02734375-3.19580078125-1.02734375-1.2177734375,0-2.2783203125.341796875-3.181640625,1.02734375-.90380859375.6845703125-1.35546875,1.6357421875-1.35546875,2.853515625h9.1025390625c0-1.2177734375-.45654296875-2.1689453125-1.36962890625-2.853515625Z" fill="#ffa12a" stroke-width="0"/><path d="M732.06640625,415.5478515625v14.5244140625h-6.39208984375v-22.171875l6.39208984375-.6845703125v2.0830078125c1.54052734375-1.369140625,3.36669921875-2.0546875,5.478515625-2.0546875,2.89111328125,0,5.09765625.8759765625,6.6201171875,2.6259765625,1.521484375,1.75,2.28271484375,3.765625,2.28271484375,6.048828125v14.1533203125h-6.3916015625v-12.5556640625c0-1.521484375-.380859375-2.7001953125-1.1416015625-3.5380859375-.76123046875-.8369140625-1.91162109375-1.2744140625-3.45263671875-1.3125-1.3125.076171875-2.44482421875,1.037109375-3.3955078125,2.8818359375Z" fill="#ffa12a" stroke-width="0"/><path d="M764.6669921875,407.88671875c1.1884765625.5234375,2.306640625,1.2890625,3.353515625,2.296875l-3.5673828125,4.0234375c-1.02734375-1.236328125-2.3212890625-1.8544921875-3.880859375-1.8544921875-1.541015625,0-2.568359375.28515625-3.08203125.85546875-.513671875.5712890625-.513671875,1.08984375,0,1.5556640625s1.541015625.8515625,3.08203125,1.1552734375c2.263671875.2099609375,4.1181640625.8564453125,5.564453125,1.9404296875,1.4453125,1.083984375,2.1689453125,2.9677734375,2.1689453125,5.6494140625,0,2.1689453125-.8515625,3.84375-2.5537109375,5.0224609375-1.703125,1.1796875-3.6865234375,1.76953125-5.9501953125,1.76953125-2.1689453125,0-3.9716796875-.3095703125-5.4072265625-.927734375-1.4365234375-.6181640625-2.66796875-1.4404296875-3.69580078125-2.4677734375l3.53857421875-3.9951171875c1.02734375,1.236328125,2.625,1.9501953125,4.7939453125,2.1396484375,1.75,0,2.8818359375-.28515625,3.3955078125-.85546875.513671875-.5712890625.58984375-1.1416015625.228515625-1.7119140625-.361328125-.5712890625-1.5693359375-.951171875-3.6240234375-1.1416015625-1.8642578125-.208984375-3.56640625-.7802734375-5.107421875-1.7119140625-1.541015625-.9326171875-2.3115234375-2.6826171875-2.3115234375-5.2509765625,0-2.3583984375.8798828125-4.1611328125,2.6396484375-5.4072265625,1.7587890625-1.24609375,3.5712890625-1.869140625,5.435546875-1.869140625,2.130859375,0,3.7900390625.26171875,4.9794921875.78515625Z" fill="#ffa12a" stroke-width="0"/><path d="M771.7578125,418.658203125c0-3.34765625,1.0654296875-6.0869140625,3.1962890625-8.2177734375,2.1298828125-2.130859375,4.8603515625-3.1962890625,8.189453125-3.1962890625,3.34765625,0,6.0107421875,1.0654296875,7.9892578125,3.1962890625s2.9677734375,4.8701171875,2.9677734375,8.2177734375v2.283203125h-15.72265625c.15234375,1.2177734375.685546875,2.16796875,1.5986328125,2.853515625.9130859375.6845703125,1.96875,1.02734375,3.1669921875,1.02734375,2.1298828125,0,4.033203125-.609375,5.70703125-1.826171875l3.65234375,3.65234375c-1.673828125,2.2822265625-4.7939453125,3.423828125-9.359375,3.423828125-3.3486328125,0-6.0830078125-1.0654296875-8.2041015625-3.1962890625-2.12109375-2.1298828125-3.181640625-4.869140625-3.181640625-8.2177734375ZM786.33984375,413.5224609375c-.9130859375-.685546875-1.9794921875-1.02734375-3.1962890625-1.02734375-1.2177734375,0-2.2783203125.341796875-3.181640625,1.02734375-.9033203125.6845703125-1.35546875,1.6357421875-1.35546875,2.853515625h9.1025390625c0-1.2177734375-.4560546875-2.1689453125-1.369140625-2.853515625Z" fill="#ffa12a" stroke-width="0"/><path d="M815.5869140625,430.072265625v-34.2705078125h13.2109375c10.6533203125,0,15.9794921875,5.716796875,15.9794921875,17.1494140625,0,11.4140625-5.326171875,17.12109375-15.9794921875,17.12109375h-13.2109375ZM828.7978515625,423.2529296875c6.068359375-.01953125,9.1123046875-3.453125,9.130859375-10.3017578125-.0185546875-6.84765625-3.0625-10.2724609375-9.130859375-10.2724609375h-6.36328125v20.57421875h6.36328125Z" fill="#ffa12a" stroke-width="0"/><path d="M851.99609375,409.9833984375c2.8916015625-1.826171875,6.2392578125-2.7392578125,10.0439453125-2.7392578125,2.7392578125,0,4.908203125.76171875,6.505859375,2.283203125,1.5986328125,1.5224609375,2.3974609375,3.8046875,2.3974609375,6.8486328125v13.6962890625h-6.3916015625v-1.826171875c-1.865234375,1.2177734375-3.5390625,1.826171875-5.0224609375,1.826171875-3.0439453125,0-5.3271484375-.646484375-6.8486328125-1.9404296875-1.5224609375-1.29296875-2.2822265625-3.08203125-2.2822265625-5.3642578125,0-2.130859375.7177734375-4.033203125,2.154296875-5.70703125,1.435546875-1.673828125,3.76171875-2.5107421875,6.9765625-2.5107421875,1.4833984375,0,3.1572265625.4560546875,5.0224609375,1.369140625v-.6845703125c-.0390625-1.673828125-1.255859375-2.5869140625-3.6533203125-2.7392578125-2.7392578125,0-4.8701171875.4560546875-6.3916015625,1.369140625l-2.5107421875-3.880859375ZM864.5517578125,423.2236328125v-2.5673828125c-.609375-1.1796875-2.0546875-1.76953125-4.337890625-1.76953125-2.7392578125.3046875-4.185546875,1.369140625-4.3369140625,3.1962890625.1513671875,1.806640625,1.59765625,2.7861328125,4.3369140625,2.9384765625,2.283203125,0,3.728515625-.5986328125,4.337890625-1.7978515625Z" fill="#ffa12a" stroke-width="0"/><path d="M886.9228515625,430.072265625c-2.587890625,0-4.63671875-.72265625-6.1494140625-2.1689453125-1.5126953125-1.4453125-2.2685546875-3.3095703125-2.2685546875-5.5927734375v-9.873046875h-3.423828125v-5.1640625h3.423828125v-6.1923828125l6.3916015625-.6845703125v6.876953125h3.4248046875v5.1640625h-3.4248046875v8.9599609375c0,1.2177734375.2568359375,2.07421875.7705078125,2.568359375.513671875.4951171875,1.169921875.7421875,1.96875.7421875.2470703125,0,.818359375-.095703125,1.712890625-.28515625l1.3408203125,4.5654296875c-1.103515625.72265625-2.359375,1.083984375-3.7666015625,1.083984375Z" fill="#ffa12a" stroke-width="0"/><path d="M894.998046875,409.9833984375c2.8916015625-1.826171875,6.2392578125-2.7392578125,10.0439453125-2.7392578125,2.7392578125,0,4.908203125.76171875,6.505859375,2.283203125,1.5986328125,1.5224609375,2.3974609375,3.8046875,2.3974609375,6.8486328125v13.6962890625h-6.3916015625v-1.826171875c-1.865234375,1.2177734375-3.5390625,1.826171875-5.0224609375,1.826171875-3.0439453125,0-5.3271484375-.646484375-6.8486328125-1.9404296875-1.5224609375-1.29296875-2.2822265625-3.08203125-2.2822265625-5.3642578125,0-2.130859375.7177734375-4.033203125,2.154296875-5.70703125,1.435546875-1.673828125,3.76171875-2.5107421875,6.9765625-2.5107421875,1.4833984375,0,3.1572265625.4560546875,5.0224609375,1.369140625v-.6845703125c-.0390625-1.673828125-1.255859375-2.5869140625-3.6533203125-2.7392578125-2.7392578125,0-4.8701171875.4560546875-6.3916015625,1.369140625l-2.5107421875-3.880859375ZM907.5537109375,423.2236328125v-2.5673828125c-.609375-1.1796875-2.0546875-1.76953125-4.337890625-1.76953125-2.7392578125.3046875-4.185546875,1.369140625-4.3369140625,3.1962890625.1513671875,1.806640625,1.59765625,2.7861328125,4.3369140625,2.9384765625,2.283203125,0,3.728515625-.5986328125,4.337890625-1.7978515625Z" fill="#ffa12a" stroke-width="0"/><path d="M925.814453125,395.830078125v13.26953125c1.0654296875-1.0849609375,2.7392578125-1.703125,5.0224609375-1.85546875,3.5,0,6.27734375,1.1416015625,8.33203125,3.4248046875,2.0546875,2.2822265625,3.08203125,4.9462890625,3.08203125,7.9892578125,0,3.0439453125-1.02734375,5.70703125-3.08203125,7.990234375-2.0546875,2.2822265625-4.83203125,3.423828125-8.33203125,3.423828125-1.63671875,0-3.310546875-.6083984375-5.0224609375-1.826171875v1.826171875h-6.3916015625v-34.212890625l6.3916015625-.029296875ZM930.6083984375,424.822265625c3.95703125-.15234375,6.0107421875-2.359375,6.1640625-6.6201171875-.45703125-3.5-2.51171875-5.3935546875-6.1640625-5.6787109375-2.8916015625.4375-4.4892578125,1.9404296875-4.7939453125,4.5087890625v3.6806640625c.3046875,2.283203125,1.90234375,3.65234375,4.7939453125,4.109375Z" fill="#ffa12a" stroke-width="0"/><path d="M947.2158203125,409.9833984375c2.8916015625-1.826171875,6.2392578125-2.7392578125,10.0439453125-2.7392578125,2.7392578125,0,4.908203125.76171875,6.505859375,2.283203125,1.5986328125,1.5224609375,2.3974609375,3.8046875,2.3974609375,6.8486328125v13.6962890625h-6.3916015625v-1.826171875c-1.865234375,1.2177734375-3.5390625,1.826171875-5.0224609375,1.826171875-3.0439453125,0-5.3271484375-.646484375-6.8486328125-1.9404296875-1.5224609375-1.29296875-2.2822265625-3.08203125-2.2822265625-5.3642578125,0-2.130859375.7177734375-4.033203125,2.154296875-5.70703125,1.435546875-1.673828125,3.76171875-2.5107421875,6.9765625-2.5107421875,1.4833984375,0,3.1572265625.4560546875,5.0224609375,1.369140625v-.6845703125c-.0390625-1.673828125-1.255859375-2.5869140625-3.6533203125-2.7392578125-2.7392578125,0-4.8701171875.4560546875-6.3916015625,1.369140625l-2.5107421875-3.880859375ZM959.771484375,423.2236328125v-2.5673828125c-.609375-1.1796875-2.0546875-1.76953125-4.337890625-1.76953125-2.7392578125.3046875-4.185546875,1.369140625-4.3369140625,3.1962890625.1513671875,1.806640625,1.59765625,2.7861328125,4.3369140625,2.9384765625,2.283203125,0,3.728515625-.5986328125,4.337890625-1.7978515625Z" fill="#ffa12a" stroke-width="0"/><path d="M984.7236328125,407.88671875c1.1884765625.5234375,2.306640625,1.2890625,3.353515625,2.296875l-3.5673828125,4.0234375c-1.02734375-1.236328125-2.3212890625-1.8544921875-3.880859375-1.8544921875-1.541015625,0-2.568359375.28515625-3.08203125.85546875-.5126953125.5712890625-.5126953125,1.08984375,0,1.5556640625.513671875.4658203125,1.541015625.8515625,3.08203125,1.1552734375,2.263671875.2099609375,4.1181640625.8564453125,5.564453125,1.9404296875,1.4453125,1.083984375,2.1689453125,2.9677734375,2.1689453125,5.6494140625,0,2.1689453125-.8515625,3.84375-2.5537109375,5.0224609375-1.703125,1.1796875-3.6865234375,1.76953125-5.9501953125,1.76953125-2.16796875,0-3.970703125-.3095703125-5.4072265625-.927734375s-2.66796875-1.4404296875-3.6953125-2.4677734375l3.5380859375-3.9951171875c1.02734375,1.236328125,2.6259765625,1.9501953125,4.7939453125,2.1396484375,1.75,0,2.8828125-.28515625,3.3955078125-.85546875.513671875-.5712890625.58984375-1.1416015625.228515625-1.7119140625-.361328125-.5712890625-1.5693359375-.951171875-3.6240234375-1.1416015625-1.8642578125-.208984375-3.56640625-.7802734375-5.107421875-1.7119140625-1.541015625-.9326171875-2.3115234375-2.6826171875-2.3115234375-5.2509765625,0-2.3583984375.8798828125-4.1611328125,2.6396484375-5.4072265625s3.5712890625-1.869140625,5.435546875-1.869140625c2.130859375,0,3.791015625.26171875,4.9794921875.78515625Z" fill="#ffa12a" stroke-width="0"/><path d="M991.814453125,418.658203125c0-3.34765625,1.0654296875-6.0869140625,3.1962890625-8.2177734375,2.1298828125-2.130859375,4.8603515625-3.1962890625,8.189453125-3.1962890625,3.34765625,0,6.0107421875,1.0654296875,7.9892578125,3.1962890625s2.9677734375,4.8701171875,2.9677734375,8.2177734375v2.283203125h-15.72265625c.15234375,1.2177734375.685546875,2.16796875,1.5986328125,2.853515625.9130859375.6845703125,1.96875,1.02734375,3.1669921875,1.02734375,2.1298828125,0,4.033203125-.609375,5.70703125-1.826171875l3.65234375,3.65234375c-1.673828125,2.2822265625-4.7939453125,3.423828125-9.359375,3.423828125-3.3486328125,0-6.0830078125-1.0654296875-8.2041015625-3.1962890625-2.12109375-2.1298828125-3.181640625-4.869140625-3.181640625-8.2177734375ZM1006.396484375,413.5224609375c-.9130859375-.685546875-1.9794921875-1.02734375-3.1962890625-1.02734375-1.2177734375,0-2.2783203125.341796875-3.181640625,1.02734375-.9033203125.6845703125-1.35546875,1.6357421875-1.35546875,2.853515625h9.1025390625c0-1.2177734375-.4560546875-2.1689453125-1.369140625-2.853515625Z" fill="#ffa12a" stroke-width="0"/></svg>