<?xml version="1.0" encoding="UTF-8"?><svg id="uuid-577931eb-6c54-4176-aec0-24a9ee0cf9d5" xmlns="http://www.w3.org/2000/svg" xmlns:xlink="http://www.w3.org/1999/xlink" viewBox="0 0 1500 500"><defs><clipPath id="uuid-670ace08-e71b-4640-803a-104d6278fe8e"><path d="M302.46,305.665c-1.478-1.478-2.463-3.694-2.463-5.911,0-4.434,3.448-7.882,7.882-7.882,1.97,0,3.941.738,5.418,1.97,22.168,20.443,40.641,26.602,48.03,26.602h.246c3.695-1.231,12.069-13.055,72.907-157.144,1.232-2.956,3.941-4.926,7.39-4.926,4.434,0,7.882,3.448,7.882,7.882,0,1.231-.247,2.217-.739,3.202-62.069,147.044-71.921,162.808-82.513,166.01-1.231.493-3.448.739-5.172.739-10.838,0-33.744-7.882-58.868-30.542ZM452.215,255.172c-1.724-2.463-3.695-4.679-5.665-6.65-6.65,5.665-11.577,9.113-15.025,9.113-19.212,0-.739-34.729,12.069-34.729,1.724,0,3.448.739,5.172,1.971l4.434-3.694c21.182-19.212,50.493-45.813,71.675-59.853,25.616-16.749,40.148-23.153,58.375-23.153,7.882,0,16.749,1.231,27.34,2.956,3.695.739,6.404,3.941,6.404,7.882,0,4.434-3.448,7.882-7.882,7.882h-1.478v-.246c-10.099-1.724-17.488-2.709-24.384-2.709-14.779,0-25.616,4.68-49.508,20.69-20.197,13.3-48.769,39.163-69.951,58.128l-4.68,4.188c1.971,2.955,3.941,6.157,6.158,9.359,12.562,18.719,26.848,39.902,30.789,39.902,6.158,0,22.66-12.562,61.577-42.611,1.478-1.231,3.202-1.725,4.926-1.725,4.434,0,7.882,3.448,7.882,7.882,0,2.462-1.231,4.679-3.202,6.404-38.67,29.803-58.867,45.813-71.183,45.813-13.054,0-30.296-26.602-43.843-46.799ZM545.809,274.876c0-5.418,1.478-12.068,4.187-18.473,7.39-16.995,21.429-28.818,37.685-31.527-1.231-1.478-1.97-3.448-1.97-5.419,0-4.187,3.202-7.389,7.143-7.882,2.709-.246,5.419-.492,7.882-.492,20.444,0,33.498,10.345,33.498,27.586,0,7.144-2.463,15.517-7.143,24.138-11.083,21.183-33.251,40.641-53.941,40.641-16.996,0-27.34-12.315-27.34-28.572ZM613.297,255.418c3.694-7.142,5.172-12.069,5.172-16.749,0-8.374-3.941-11.576-17.242-11.822,1.232,1.478,1.971,3.202,1.971,5.172,0,4.434-3.448,7.882-7.882,7.882-13.793,0-24.384,7.882-31.035,22.414-1.724,4.927-2.709,8.621-2.709,12.562,0,9.36,2.956,12.809,11.577,12.809,14.039,0,30.542-14.286,40.148-32.267ZM896.795,376.108c-10.344-1.231-21.674-4.926-32.512-12.562l-122.662-86.946-18.719,38.917c-1.231,2.709-3.941,4.68-7.144,4.68-4.434,0-7.882-3.448-7.882-7.882,0-1.231.246-2.463.739-3.448l49.754-103.695c1.23-2.709,3.941-4.68,7.143-4.68,4.434,0,7.881,3.448,7.881,7.882,0,1.231-.246,2.463-.738,3.448l-24.138,50.246c42.857-9.605,105.173-44.334,105.173-49.261,0-3.941-35.715-38.67-154.927-38.67-4.434,0-7.882-3.448-7.882-7.882s3.448-7.882,7.882-7.882c127.341,0,170.691,40.641,170.691,54.434,0,15.025-59.113,47.537-104.434,61.084l108.621,76.848c8.621,6.157,16.502,8.62,24.877,9.605,3.941.493,7.143,3.695,7.143,7.882,0,4.434-3.447,7.882-7.881,7.882h-.986ZM968.715,366.995c0-1.724.492-2.955,1.23-4.187,2.709-4.434,27.834-53.449,50.494-101.232,16.994-35.714,32.02-70.444,38.916-85.715.492-1.478-.492-1.97-1.479-.985-8.867,9.114-31.527,34.237-53.941,59.36-32.758,36.7-64.531,74.631-76.602,74.631-10.836,0-14.285-73.892-16.748-94.828-.246-1.478-1.232-1.724-1.971-.493-5.172,9.113-14.039,25.862-19.211,35.222-9.361,17.488-16.75,31.281-19.705,34.975l-.246.247c-1.232,1.724-3.449,2.709-5.912,2.709-4.434,0-7.881-3.448-7.881-7.882,0-2.217.738-3.694,1.969-5.173.74-.738,9.113-15.764,18.229-32.758,13.793-25.862,29.803-61.084,41.133-61.084,10.344,0,10.098,29.311,12.314,58.867,1.725,21.428,3.203,35.96,4.926,46.305.248,1.232,1.232,1.479,1.971.493,18.721-20.197,26.109-28.325,55.912-61.577,43.596-49.015,58.375-68.72,72.168-68.72,6.65,0,16.01,4.68,13.547,16.503-5.91,30.295-86.453,187.932-94.582,199.508-1.477,2.217-3.693,3.694-6.65,3.694-4.434,0-7.881-3.448-7.881-7.882ZM1053.193,282.512c0-38.669,41.379-65.271,80.297-67.734h.984c4.434-.246,7.883,3.448,7.883,7.882,0,3.941-2.957,7.39-6.896,7.882-34.484,4.188-66.504,22.906-66.504,51.97,0,6.158,1.232,7.636,5.172,7.636,5.666,0,35.469-21.183,56.158-43.349l.986-1.971c1.723-3.694,3.939-6.896,7.635-7.144,15.764-.984,16.01,4.927,7.637,14.532l-3.203,3.695c-1.971,3.694-3.941,7.635-5.912,11.33-4.434,8.62-8.127,15.517-10.098,20.443,12.314-4.927,33.744-21.922,59.605-44.088,1.479-1.231,3.203-1.971,5.174-1.971,4.434,0,7.881,3.448,7.881,7.882,0,2.462-.984,4.433-2.709,5.911-30.543,26.355-58.621,49.016-75.617,49.262-7.143,0-11.576-4.926-11.576-11.576,0-2.464.494-5.173,1.479-8.129-15.518,12.069-30.543,20.937-37.439,20.937-10.836,0-20.936-8.867-20.936-23.399Z" fill="none" stroke-width="0"/></clipPath><linearGradient id="uuid-71e600a0-8fb8-48db-80a1-4433a66cc005" x1="749.999" y1="97.341" x2="749.999" y2="387.983" gradientUnits="userSpaceOnUse"><stop offset=".1" stop-color="#a6ce39"/><stop offset=".9" stop-color="#ffa12a"/></linearGradient></defs><g clip-path="url(#uuid-670ace08-e71b-4640-803a-104d6278fe8e)"><rect x="299.999" y="97.341" width="900" height="290.642" fill="url(#uuid-71e600a0-8fb8-48db-80a1-4433a66cc005)" stroke-width="0"/></g><path d="M302.881,395.83h6.849v13.697l11.414-13.697h7.676l-13.383,15.979,16.208,18.263h-8.903l-13.012-14.781v14.781h-6.849v-34.242Z" fill="#ffa12a" stroke-width="0"/><path d="M337.223,426.962c-2.216-2.226-3.324-4.993-3.324-8.304s1.108-6.078,3.324-8.304c2.216-2.226,4.979-3.338,8.29-3.338s6.078,1.112,8.304,3.338c2.226,2.226,3.338,4.994,3.338,8.304s-1.108,6.078-3.324,8.304c-2.216,2.226-4.989,3.339-8.318,3.339-3.31,0-6.074-1.113-8.29-3.339ZM345.512,424.765c1.73,0,3.134-.58,4.209-1.74,1.074-1.16,1.612-2.606,1.612-4.338s-.538-3.182-1.612-4.352c-1.075-1.17-2.488-1.755-4.238-1.755-1.712,0-3.11.585-4.194,1.755-1.084,1.17-1.626,2.621-1.626,4.352s.542,3.178,1.626,4.338c1.084,1.16,2.492,1.74,4.223,1.74Z" fill="#ffa12a" stroke-width="0"/><path d="M367.797,415.463v14.609h-6.392v-22.172l6.392-.685v2.055c1.427-1.331,3.253-2.007,5.479-2.026,2.891,0,5.098.876,6.62,2.626,1.674-1.75,4.185-2.626,7.533-2.626,2.892,0,5.094.876,6.606,2.626s2.269,3.766,2.269,6.049v14.153h-6.363v-12.556c0-1.521-.342-2.7-1.027-3.538-.685-.837-1.797-1.274-3.338-1.312-1.255.096-2.35.933-3.282,2.511-.076.476-.114.952-.114,1.427v13.469h-6.392v-12.556c0-1.521-.342-2.7-1.027-3.538-.685-.837-1.797-1.274-3.338-1.312-1.389.076-2.597,1.009-3.624,2.797Z" fill="#ffa12a" stroke-width="0"/><path d="M408.259,415.463v14.609h-6.392v-22.172l6.392-.685v2.055c1.427-1.331,3.253-2.007,5.479-2.026,2.891,0,5.098.876,6.62,2.626,1.674-1.75,4.185-2.626,7.533-2.626,2.892,0,5.094.876,6.606,2.626s2.269,3.766,2.269,6.049v14.153h-6.363v-12.556c0-1.521-.342-2.7-1.027-3.538-.685-.837-1.797-1.274-3.338-1.312-1.255.096-2.35.933-3.282,2.511-.076.476-.114.952-.114,1.427v13.469h-6.392v-12.556c0-1.521-.342-2.7-1.027-3.538-.685-.837-1.797-1.274-3.338-1.312-1.389.076-2.597,1.009-3.624,2.797Z" fill="#ffa12a" stroke-width="0"/><path d="M456.168,421.969v-14.753h6.392v22.856h-6.392v-2.083c-1.541,1.37-3.367,2.055-5.479,2.055-2.892,0-5.099-.875-6.62-2.625-1.522-1.75-2.283-3.767-2.283-6.05v-14.153h6.392v12.556c0,1.521.38,2.701,1.141,3.538s1.912,1.284,3.453,1.341c1.312-.095,2.444-.988,3.396-2.682Z" fill="#ffa12a" stroke-width="0"/><path d="M474.459,415.548v14.524h-6.392v-22.172l6.392-.685v2.083c1.541-1.369,3.367-2.055,5.479-2.055,2.891,0,5.098.876,6.62,2.626,1.521,1.75,2.283,3.766,2.283,6.049v14.153h-6.392v-12.556c0-1.521-.381-2.7-1.142-3.538-.761-.837-1.912-1.274-3.453-1.312-1.312.076-2.445,1.037-3.396,2.882Z" fill="#ffa12a" stroke-width="0"/><path d="M494.604,409.983c2.891-1.826,6.239-2.739,10.044-2.739,2.74,0,4.908.762,6.506,2.283,1.598,1.522,2.397,3.805,2.397,6.849v13.696h-6.392v-1.826c-1.865,1.218-3.538,1.826-5.022,1.826-3.044,0-5.327-.646-6.849-1.94-1.522-1.293-2.283-3.082-2.283-5.364,0-2.131.718-4.033,2.154-5.707,1.436-1.674,3.762-2.511,6.977-2.511,1.484,0,3.157.456,5.022,1.369v-.685c-.039-1.674-1.255-2.587-3.652-2.739-2.739,0-4.87.456-6.392,1.369l-2.511-3.881ZM507.159,423.224v-2.567c-.609-1.18-2.055-1.77-4.337-1.77-2.739.305-4.185,1.369-4.337,3.196.152,1.807,1.598,2.786,4.337,2.938,2.283,0,3.729-.599,4.337-1.798Z" fill="#ffa12a" stroke-width="0"/><path d="M519.229,430.072v-34.242h6.392v34.242h-6.392Z" fill="#ffa12a" stroke-width="0"/><path d="M531.099,418.658c0-3.348,1.065-6.087,3.196-8.218,2.13-2.131,4.86-3.196,8.189-3.196,3.348,0,6.011,1.065,7.99,3.196,1.978,2.131,2.968,4.87,2.968,8.218v2.283h-15.723c.152,1.218.685,2.168,1.598,2.854.913.685,1.969,1.027,3.167,1.027,2.13,0,4.033-.609,5.707-1.826l3.652,3.652c-1.674,2.282-4.794,3.424-9.359,3.424-3.349,0-6.083-1.065-8.204-3.196-2.122-2.13-3.182-4.869-3.182-8.218ZM545.68,413.522c-.913-.686-1.979-1.027-3.196-1.027s-2.278.342-3.182,1.027c-.904.685-1.355,1.636-1.355,2.854h9.103c0-1.218-.457-2.169-1.37-2.854Z" fill="#ffa12a" stroke-width="0"/><path d="M571.346,407.887c1.189.523,2.307,1.289,3.353,2.297l-3.567,4.023c-1.027-1.236-2.321-1.854-3.881-1.854-1.541,0-2.568.285-3.082.855-.514.571-.514,1.09,0,1.556s1.541.852,3.082,1.155c2.264.21,4.119.856,5.564,1.94,1.445,1.084,2.168,2.968,2.168,5.649,0,2.169-.852,3.844-2.554,5.022-1.703,1.18-3.686,1.77-5.949,1.77-2.169,0-3.972-.31-5.408-.928-1.437-.618-2.668-1.44-3.695-2.468l3.539-3.995c1.027,1.236,2.625,1.95,4.794,2.14,1.75,0,2.882-.285,3.396-.855.514-.571.589-1.142.228-1.712-.361-.571-1.569-.951-3.624-1.142-1.865-.209-3.567-.78-5.108-1.712-1.541-.933-2.311-2.683-2.311-5.251,0-2.358.879-4.161,2.639-5.407,1.759-1.246,3.571-1.869,5.436-1.869,2.13,0,3.79.262,4.979.785Z" fill="#ffa12a" stroke-width="0"/><path d="M595.5,416.347c.038-3.157.466-6.173,1.284-9.045.837-3.006,2.121-5.859,3.852-8.561,1.046-1.655,1.998-2.968,2.854-3.938l.799-.856h6.363c-.114.229-.324.514-.628.856-.476.513-.809.903-.999,1.17-1.693,2.567-3.063,5.383-4.109,8.446-1.046,3.062-1.569,6.439-1.569,10.13,0,.608.009,1.208.028,1.797-.019.571-.028,1.18-.028,1.826,0,3.71.523,7.077,1.569,10.102,1.046,3.024,2.416,5.812,4.109,8.361.19.266.523.675.999,1.227.286.343.495.637.628.885h-6.363l-.799-.885c-.856-.971-1.808-2.273-2.854-3.909-1.731-2.701-3.025-5.555-3.881-8.561-.799-2.872-1.218-5.888-1.255-9.046Z" fill="#ffa12a" stroke-width="0"/><path d="M617.643,430.072v-34.242h24.055v6.393h-17.207v7.305h12.698v6.363h-12.698v14.182h-6.848Z" fill="#ffa12a" stroke-width="0"/><path d="M646.833,399.469c.608-.618,1.427-.928,2.454-.928,1.104,0,1.959.31,2.568.928.608.618.913,1.384.913,2.297s-.305,1.674-.913,2.283c-.609.608-1.446.913-2.511.913s-1.902-.305-2.511-.913-.913-1.37-.913-2.283.304-1.679.913-2.297ZM652.541,430.072v-22.856h-6.392v22.856h6.392Z" fill="#ffa12a" stroke-width="0"/><path d="M658.104,430.072v-34.242h6.392v34.242h-6.392Z" fill="#ffa12a" stroke-width="0"/><path d="M677.479,415.463v14.609h-6.392v-22.172l6.392-.685v2.055c1.427-1.331,3.253-2.007,5.479-2.026,2.891,0,5.098.876,6.62,2.626,1.674-1.75,4.185-2.626,7.533-2.626,2.892,0,5.094.876,6.606,2.626s2.269,3.766,2.269,6.049v14.153h-6.363v-12.556c0-1.521-.342-2.7-1.027-3.538-.685-.837-1.797-1.274-3.338-1.312-1.255.096-2.35.933-3.282,2.511-.076.476-.114.952-.114,1.427v13.469h-6.392v-12.556c0-1.521-.342-2.7-1.027-3.538-.685-.837-1.797-1.274-3.338-1.312-1.389.076-2.597,1.009-3.624,2.797Z" fill="#ffa12a" stroke-width="0"/><path d="M711.178,420.912v-4.536h14.153v4.536h-14.153Z" fill="#ffa12a" stroke-width="0"/><path d="M746.048,425.393c-.856,3.006-2.15,5.859-3.881,8.561-1.046,1.636-1.997,2.938-2.854,3.909l-.799.885h-6.363c.114-.267.323-.562.628-.885.475-.533.808-.941.999-1.227,1.693-2.55,3.062-5.337,4.109-8.361s1.57-6.392,1.57-10.102c0-.627-.01-1.236-.029-1.826.019-.589.029-1.188.029-1.797,0-3.69-.523-7.067-1.57-10.13-1.046-3.063-2.416-5.879-4.109-8.446-.19-.267-.523-.657-.999-1.17-.286-.343-.495-.628-.628-.856h6.363l.799.856c.856.951,1.807,2.264,2.854,3.938,1.731,2.701,3.015,5.555,3.853,8.561.817,2.872,1.246,5.888,1.284,9.045-.038,3.178-.457,6.192-1.255,9.046Z" fill="#ffa12a" stroke-width="0"/><path d="M775.296,415.148l8.532,14.924h-7.847l-8.219-14.153h-6.249v14.153h-6.849v-34.242h14.924c7.99,0,11.985,3.292,11.985,9.873.019,4.946-2.074,8.095-6.278,9.445ZM761.514,409.527h9.588c2.758-.038,4.176-1.294,4.252-3.767-.076-2.244-1.465-3.414-4.166-3.51h-9.674v7.276Z" fill="#ffa12a" stroke-width="0"/><path d="M785.654,418.658c0-3.348,1.065-6.087,3.196-8.218,2.13-2.131,4.86-3.196,8.189-3.196,3.348,0,6.011,1.065,7.989,3.196s2.968,4.87,2.968,8.218v2.283h-15.723c.152,1.218.686,2.168,1.599,2.854.913.685,1.969,1.027,3.167,1.027,2.13,0,4.033-.609,5.707-1.826l3.652,3.652c-1.674,2.282-4.794,3.424-9.359,3.424-3.349,0-6.083-1.065-8.204-3.196-2.121-2.13-3.182-4.869-3.182-8.218ZM800.236,413.522c-.913-.686-1.979-1.027-3.196-1.027s-2.278.342-3.182,1.027c-.903.685-1.355,1.636-1.355,2.854h9.103c0-1.218-.456-2.169-1.369-2.854Z" fill="#ffa12a" stroke-width="0"/><path d="M815.272,427.219c-2.283-1.902-3.424-4.375-3.424-7.419v-2.283c0-3.043,1.141-5.517,3.424-7.419,2.282-1.901,4.955-2.854,8.019-2.854,3.652,0,6.687,1.294,9.103,3.881l-4.565,3.425c-1.37-1.37-2.893-2.055-4.566-2.055-1.521,0-2.854.608-3.994,1.826-1.142,1.218-1.713,2.663-1.713,4.337s.533,3.12,1.599,4.338c1.065,1.217,2.435,1.826,4.108,1.826s3.196-.686,4.566-2.055l4.565,3.424c-2.436,2.588-5.479,3.881-9.132,3.881-3.043,0-5.707-.951-7.989-2.854Z" fill="#ffa12a" stroke-width="0"/><path d="M843.322,414.635v15.438h-6.392v-34.242h6.392v13.469c1.541-1.369,3.367-2.055,5.479-2.055,2.892,0,5.098.876,6.62,2.626,1.521,1.75,2.282,3.766,2.282,6.049v14.153h-6.392v-12.556c0-1.521-.381-2.7-1.142-3.538-.761-.837-1.911-1.274-3.452-1.312-1.312.076-2.444.732-3.396,1.969Z" fill="#ffa12a" stroke-width="0"/><path d="M872.313,430.072c-2.588,0-4.637-.723-6.149-2.169-1.513-1.445-2.269-3.31-2.269-5.593v-9.873h-3.424v-5.164h3.424v-6.192l6.392-.685v6.877h3.425v5.164h-3.425v8.96c0,1.218.257,2.074.771,2.568.514.495,1.17.742,1.969.742.247,0,.818-.096,1.713-.285l1.341,4.565c-1.104.723-2.359,1.084-3.767,1.084Z" fill="#ffa12a" stroke-width="0"/><path d="M878.762,418.658c0-3.348,1.065-6.087,3.196-8.218,2.13-2.131,4.86-3.196,8.189-3.196,3.348,0,6.011,1.065,7.989,3.196s2.968,4.87,2.968,8.218v2.283h-15.723c.152,1.218.686,2.168,1.599,2.854.913.685,1.969,1.027,3.167,1.027,2.13,0,4.033-.609,5.707-1.826l3.652,3.652c-1.674,2.282-4.794,3.424-9.359,3.424-3.349,0-6.083-1.065-8.204-3.196-2.121-2.13-3.182-4.869-3.182-8.218ZM893.344,413.522c-.913-.686-1.979-1.027-3.196-1.027s-2.278.342-3.182,1.027c-.903.685-1.355,1.636-1.355,2.854h9.103c0-1.218-.456-2.169-1.369-2.854Z" fill="#ffa12a" stroke-width="0"/><path d="M922.591,430.072v-34.242h2.282l14.838,16.893,14.867-16.893h2.282v34.242h-6.848l-.029-19.86-10.272,11.414-10.272-11.414v19.86h-6.848Z" fill="#ffa12a" stroke-width="0"/><path d="M963.566,409.983c2.892-1.826,6.239-2.739,10.044-2.739,2.739,0,4.908.762,6.506,2.283,1.599,1.522,2.397,3.805,2.397,6.849v13.696h-6.392v-1.826c-1.865,1.218-3.539,1.826-5.022,1.826-3.044,0-5.327-.646-6.849-1.94-1.522-1.293-2.282-3.082-2.282-5.364,0-2.131.718-4.033,2.154-5.707,1.436-1.674,3.762-2.511,6.977-2.511,1.483,0,3.157.456,5.022,1.369v-.685c-.039-1.674-1.256-2.587-3.653-2.739-2.739,0-4.87.456-6.392,1.369l-2.511-3.881ZM976.122,423.224v-2.567c-.609-1.18-2.055-1.77-4.338-1.77-2.739.305-4.186,1.369-4.337,3.196.151,1.807,1.598,2.786,4.337,2.938,2.283,0,3.729-.599,4.338-1.798Z" fill="#ffa12a" stroke-width="0"/><path d="M994.583,415.548v14.524h-6.392v-22.172l6.392-.685v2.083c1.541-1.369,3.367-2.055,5.479-2.055,2.892,0,5.098.876,6.62,2.626,1.521,1.75,2.282,3.766,2.282,6.049v14.153h-6.392v-12.556c0-1.521-.381-2.7-1.142-3.538-.761-.837-1.911-1.274-3.452-1.312-1.312.076-2.444,1.037-3.396,2.882Z" fill="#ffa12a" stroke-width="0"/><path d="M1014.729,409.983c2.892-1.826,6.239-2.739,10.044-2.739,2.739,0,4.908.762,6.506,2.283,1.599,1.522,2.397,3.805,2.397,6.849v13.696h-6.392v-1.826c-1.865,1.218-3.539,1.826-5.022,1.826-3.044,0-5.327-.646-6.849-1.94-1.522-1.293-2.282-3.082-2.282-5.364,0-2.131.718-4.033,2.154-5.707,1.436-1.674,3.762-2.511,6.977-2.511,1.483,0,3.157.456,5.022,1.369v-.685c-.039-1.674-1.256-2.587-3.653-2.739-2.739,0-4.87.456-6.392,1.369l-2.511-3.881ZM1027.284,423.224v-2.567c-.609-1.18-2.055-1.77-4.338-1.77-2.739.305-4.186,1.369-4.337,3.196.151,1.807,1.598,2.786,4.337,2.938,2.283,0,3.729-.599,4.338-1.798Z" fill="#ffa12a" stroke-width="0"/><path d="M1060.896,407.93v20.316c0,3.196-.951,5.868-2.854,8.019-1.902,2.149-4.299,3.281-7.19,3.396l-1.369.143c-4.414-.096-7.838-1.36-10.273-3.795l2.968-3.425c1.674,1.218,3.71,1.902,6.106,2.055,2.436,0,4.081-.57,4.937-1.712.856-1.142,1.284-2.396,1.284-3.767v-1.142c-1.712,1.37-3.69,2.055-5.935,2.055-3.501,0-6.126-1.027-7.876-3.082-1.751-2.055-2.625-4.831-2.625-8.332,0-3.348.951-6.087,2.854-8.218,1.901-2.131,4.604-3.196,8.104-3.196,2.587.152,4.413.847,5.479,2.083v-2.083l6.392.686ZM1054.505,420.713v-3.681c-.305-2.55-1.902-4.053-4.794-4.509-3.805.133-5.859,2.026-6.163,5.679.152,4.261,2.206,6.468,6.163,6.62,2.892-.457,4.489-1.826,4.794-4.109Z" fill="#ffa12a" stroke-width="0"/><path d="M1064.234,418.658c0-3.348,1.065-6.087,3.196-8.218,2.13-2.131,4.86-3.196,8.189-3.196,3.348,0,6.011,1.065,7.989,3.196s2.968,4.87,2.968,8.218v2.283h-15.723c.152,1.218.686,2.168,1.599,2.854.913.685,1.969,1.027,3.167,1.027,2.13,0,4.033-.609,5.707-1.826l3.652,3.652c-1.674,2.282-4.794,3.424-9.359,3.424-3.349,0-6.083-1.065-8.204-3.196-2.121-2.13-3.182-4.869-3.182-8.218ZM1078.816,413.522c-.913-.686-1.979-1.027-3.196-1.027s-2.278.342-3.182,1.027c-.903.685-1.355,1.636-1.355,2.854h9.103c0-1.218-.456-2.169-1.369-2.854Z" fill="#ffa12a" stroke-width="0"/><path d="M1097.905,415.463v14.609h-6.392v-22.172l6.392-.685v2.055c1.427-1.331,3.253-2.007,5.479-2.026,2.892,0,5.099.876,6.62,2.626,1.674-1.75,4.185-2.626,7.533-2.626,2.892,0,5.094.876,6.606,2.626,1.512,1.75,2.269,3.766,2.269,6.049v14.153h-6.363v-12.556c0-1.521-.343-2.7-1.027-3.538-.686-.837-1.798-1.274-3.339-1.312-1.256.096-2.35.933-3.281,2.511-.076.476-.114.952-.114,1.427v13.469h-6.392v-12.556c0-1.521-.343-2.7-1.027-3.538-.686-.837-1.798-1.274-3.339-1.312-1.389.076-2.597,1.009-3.624,2.797Z" fill="#ffa12a" stroke-width="0"/><path d="M1130.862,418.658c0-3.348,1.065-6.087,3.196-8.218,2.13-2.131,4.86-3.196,8.189-3.196,3.348,0,6.011,1.065,7.989,3.196s2.968,4.87,2.968,8.218v2.283h-15.723c.152,1.218.686,2.168,1.599,2.854.913.685,1.969,1.027,3.167,1.027,2.13,0,4.033-.609,5.707-1.826l3.652,3.652c-1.674,2.282-4.794,3.424-9.359,3.424-3.349,0-6.083-1.065-8.204-3.196-2.121-2.13-3.182-4.869-3.182-8.218ZM1145.444,413.522c-.913-.686-1.979-1.027-3.196-1.027s-2.278.342-3.182,1.027c-.903.685-1.355,1.636-1.355,2.854h9.103c0-1.218-.456-2.169-1.369-2.854Z" fill="#ffa12a" stroke-width="0"/><path d="M1164.618,415.548v14.524h-6.392v-22.172l6.392-.685v2.083c1.541-1.369,3.367-2.055,5.479-2.055,2.892,0,5.098.876,6.62,2.626,1.521,1.75,2.282,3.766,2.282,6.049v14.153h-6.392v-12.556c0-1.521-.381-2.7-1.142-3.538-.761-.837-1.911-1.274-3.452-1.312-1.312.076-2.444,1.037-3.396,2.882Z" fill="#ffa12a" stroke-width="0"/><path d="M1194.636,430.072c-2.588,0-4.637-.723-6.149-2.169-1.513-1.445-2.269-3.31-2.269-5.593v-9.873h-3.424v-5.164h3.424v-6.192l6.392-.685v6.877h3.425v5.164h-3.425v8.96c0,1.218.257,2.074.771,2.568.514.495,1.17.742,1.969.742.247,0,.818-.096,1.713-.285l1.341,4.565c-1.104.723-2.359,1.084-3.767,1.084Z" fill="#ffa12a" stroke-width="0"/></svg>