<?xml version="1.0" encoding="UTF-8"?><svg id="uuid-3b3c1bad-37e0-4ec3-8b2e-484b4caa9581" xmlns="http://www.w3.org/2000/svg" xmlns:xlink="http://www.w3.org/1999/xlink" viewBox="0 0 512 512"><defs><clipPath id="uuid-58fa3b55-95d7-4b93-a162-669815081e1d"><path d="M28.99365234375,221.43310546875c-1.197265625-1.1962890625-1.99560546875-2.99072265625-1.99560546875-4.78564453125,0-3.5888671875,2.7939453125-6.380859375,6.38623046875-6.380859375,1.5966796875,0,3.19287109375.59814453125,4.390625,1.59521484375,17.9609375,16.55029296875,32.9287109375,21.53564453125,38.916015625,21.53564453125h.19970703125c2.9931640625-.9970703125,9.77880859375-10.568359375,59.072265625-127.21875.998046875-2.392578125,3.193359375-3.98779296875,5.9873046875-3.98779296875,3.59228515625,0,6.38623046875,2.79150390625,6.38623046875,6.380859375,0,.9970703125-.19970703125,1.79443359375-.5986328125,2.59228515625-50.29150390625,119.04296875-58.2744140625,131.8046875-66.85595703125,134.39697265625-.998046875.3984375-2.7939453125.59814453125-4.19091796875.59814453125-8.78125,0-27.34130859375-6.380859375-47.697265625-24.72607421875ZM150.33203125,180.5556640625c-1.39697265625-1.99365234375-2.99365234375-3.78857421875-4.59033203125-5.3837890625-5.38818359375,4.58642578125-9.37939453125,7.3779296875-12.17333984375,7.3779296875-15.56640625,0-.59912109375-28.11572265625,9.77880859375-28.11572265625,1.39697265625,0,2.7939453125.59814453125,4.19091796875,1.59521484375l3.59228515625-2.99072265625c17.1630859375-15.5537109375,40.91162109375-37.0888671875,58.07470703125-48.45458984375,20.75537109375-13.5595703125,32.52978515625-18.744140625,47.2978515625-18.744140625,6.38671875,0,13.5712890625.9970703125,22.15234375,2.39306640625,2.9931640625.59814453125,5.1884765625,3.1904296875,5.1884765625,6.380859375,0,3.58935546875-2.7939453125,6.380859375-6.3857421875,6.380859375h-1.197265625v-.19970703125c-8.1826171875-1.3955078125-14.169921875-2.193359375-19.7578125-2.193359375-11.97412109375,0-20.7548828125,3.78857421875-40.11328125,16.75-16.36474609375,10.767578125-39.5146484375,31.70458984375-56.677734375,47.05859375l-3.7919921875,3.39013671875c1.5966796875,2.392578125,3.193359375,4.98486328125,4.9892578125,7.5771484375,10.17822265625,15.154296875,21.7529296875,32.30322265625,24.9462890625,32.30322265625,4.9892578125,0,18.3603515625-10.169921875,49.892578125-34.49658203125,1.197265625-.9970703125,2.59423828125-1.39599609375,3.9912109375-1.39599609375,3.59228515625,0,6.38623046875,2.79150390625,6.38623046875,6.380859375,0,1.994140625-.998046875,3.78857421875-2.59423828125,5.1845703125-31.33251953125,24.12744140625-47.697265625,37.0888671875-57.67578125,37.0888671875-10.5771484375,0-24.546875-21.53564453125-35.5234375-37.88671875ZM226.1630859375,196.5078125c0-4.38671875,1.19775390625-9.7705078125,3.39306640625-14.955078125,5.98681640625-13.7587890625,17.3623046875-23.330078125,30.53369140625-25.5234375-.9970703125-1.1962890625-1.5966796875-2.79150390625-1.5966796875-4.38671875,0-3.3896484375,2.5947265625-5.98193359375,5.7880859375-6.380859375,2.1953125-.19921875,4.390625-.39892578125,6.3857421875-.39892578125,16.564453125,0,27.1416015625,8.375,27.1416015625,22.3330078125,0,5.78271484375-1.9951171875,12.5625-5.787109375,19.54150390625-8.98046875,17.1484375-26.9423828125,32.9013671875-43.7060546875,32.9013671875-13.77001953125,0-22.15234375-9.97021484375-22.15234375-23.130859375ZM280.845703125,180.75537109375c2.9931640625-5.78271484375,4.1904296875-9.77099609375,4.1904296875-13.5595703125,0-6.77978515625-3.1923828125-9.37158203125-13.9697265625-9.5712890625.998046875,1.19677734375,1.5966796875,2.59228515625,1.5966796875,4.1875,0,3.58935546875-2.7939453125,6.380859375-6.38671875,6.380859375-11.17529296875,0-19.7568359375,6.380859375-25.1455078125,18.1455078125-1.39697265625,3.98828125-2.1953125,6.97900390625-2.1953125,10.16943359375,0,7.57763671875,2.39501953125,10.369140625,9.3798828125,10.369140625,11.3759765625,0,24.7470703125-11.5654296875,32.5302734375-26.12158203125ZM477.8193359375,278.4619140625c-8.3818359375-.9970703125-17.5625-3.9873046875-26.34375-10.1689453125l-99.3857421875-70.38916015625-15.1669921875,31.50537109375c-.998046875,2.193359375-3.193359375,3.78857421875-5.787109375,3.78857421875-3.5927734375,0-6.38671875-2.79150390625-6.38671875-6.380859375,0-.99658203125.19921875-1.99365234375.5986328125-2.79150390625l40.3134765625-83.9482421875c.998046875-2.193359375,3.193359375-3.78857421875,5.787109375-3.78857421875,3.5927734375,0,6.38671875,2.79150390625,6.38671875,6.380859375,0,.9970703125-.2001953125,1.994140625-.5986328125,2.79150390625l-19.55859375,40.67822265625c34.7255859375-7.77685546875,85.216796875-35.892578125,85.216796875-39.88037109375,0-3.1904296875-28.9375-31.30615234375-125.529296875-31.30615234375-3.5927734375,0-6.38671875-2.79150390625-6.38671875-6.380859375s2.7939453125-6.380859375,6.38671875-6.380859375c103.177734375,0,138.3017578125,32.9013671875,138.3017578125,44.06787109375,0,12.16357421875-47.896484375,38.484375-84.6181640625,49.45166015625l88.0107421875,62.21337890625c6.9853515625,4.9853515625,13.37109375,6.978515625,20.15625,7.7763671875,3.193359375.3994140625,5.7880859375,2.9912109375,5.7880859375,6.380859375,0,3.58984375-2.7939453125,6.380859375-6.38671875,6.380859375h-.7978515625ZM199.72314453125,430.3447265625c0-1.3955078125.3994140625-2.392578125.998046875-3.3896484375,2.1953125-3.58984375,22.55126953125-43.2705078125,40.91162109375-81.9541015625,13.7705078125-28.9140625,25.9443359375-57.029296875,31.5322265625-69.392578125.3994140625-1.1962890625-.3994140625-1.5947265625-1.197265625-.796875-7.1845703125,7.3779296875-25.544921875,27.716796875-43.7060546875,48.0556640625-26.54248046875,29.7109375-52.287109375,60.4189453125-62.06591796875,60.4189453125-8.78125,0-11.5751953125-59.8212890625-13.57080078125-76.7705078125-.19970703125-1.1962890625-.998046875-1.3955078125-1.5966796875-.3984375-4.19091796875,7.3779296875-11.37548828125,20.9375-15.56640625,28.5146484375-7.58349609375,14.1572265625-13.57080078125,25.32421875-15.96533203125,28.314453125l-.19970703125.2001953125c-.998046875,1.3955078125-2.7939453125,2.193359375-4.78955078125,2.193359375-3.59228515625,0-6.38623046875-2.7919921875-6.38623046875-6.380859375,0-1.794921875.5986328125-2.9912109375,1.59619140625-4.1875.5986328125-.5986328125,7.38427734375-12.76171875,14.76806640625-26.5205078125,11.17626953125-20.9375,24.14794921875-49.4521484375,33.32861328125-49.4521484375,8.3818359375,0,8.18212890625,23.7294921875,9.97802734375,47.6572265625,1.3974609375,17.34765625,2.5947265625,29.1123046875,3.99169921875,37.4873046875.19970703125.9970703125.99755859375,1.197265625,1.5966796875.3994140625,15.1669921875-16.3515625,21.154296875-22.931640625,45.30224609375-49.8505859375,35.32373046875-39.6806640625,47.2978515625-55.6328125,58.4736328125-55.6328125,5.388671875,0,12.97265625,3.7880859375,10.9765625,13.359375-4.7900390625,24.5263671875-70.048828125,152.1435546875-76.634765625,161.515625-1.197265625,1.794921875-2.99365234375,2.9912109375-5.388671875,2.9912109375-3.591796875,0-6.38623046875-2.7919921875-6.38623046875-6.380859375ZM268.1708984375,361.94921875c0-31.3056640625,33.52734375-52.8408203125,65.0595703125-54.8349609375h.798828125c3.591796875-.19921875,6.3857421875,2.7919921875,6.3857421875,6.380859375,0,3.1904296875-2.39453125,5.982421875-5.587890625,6.380859375-27.939453125,3.3896484375-53.8837890625,18.5439453125-53.8837890625,42.0732421875,0,4.9853515625.998046875,6.181640625,4.19140625,6.181640625,4.58984375,0,28.7373046875-17.1484375,45.501953125-35.0947265625l.7978515625-1.5947265625c1.396484375-2.9912109375,3.193359375-5.5830078125,6.1865234375-5.783203125,12.7724609375-.796875,12.9716796875,3.98828125,6.1865234375,11.7646484375l-2.59375,2.9912109375c-1.5966796875,2.9912109375-3.193359375,6.181640625-4.7900390625,9.1728515625-3.5927734375,6.978515625-6.5859375,12.5625-8.1826171875,16.5498046875,9.978515625-3.9873046875,27.3408203125-17.74609375,48.2958984375-35.6923828125,1.197265625-.9970703125,2.5947265625-1.595703125,4.19140625-1.595703125,3.591796875,0,6.3857421875,2.7919921875,6.3857421875,6.380859375,0,1.994140625-.7978515625,3.58984375-2.1953125,4.7861328125-24.74609375,21.3359375-47.4970703125,39.6806640625-61.267578125,39.8798828125-5.787109375,0-9.3798828125-3.9873046875-9.3798828125-9.37109375,0-1.994140625.3994140625-4.1875,1.197265625-6.5810546875-12.572265625,9.771484375-24.74609375,16.94921875-30.333984375,16.94921875-8.78125,0-16.9638671875-7.177734375-16.9638671875-18.943359375Z" fill="none" stroke-width="0"/></clipPath><linearGradient id="uuid-7d870880-d6f8-42cb-ba9e-ad4362a157d4" x1="513.171778435847955" y1="107.522542672742929" x2="-1.171143269585286" y2="404.478566975153342" gradientUnits="userSpaceOnUse"><stop offset=".1" stop-color="#a6ce39"/><stop offset=".9" stop-color="#ffa12a"/></linearGradient></defs><g clip-path="url(#uuid-58fa3b55-95d7-4b93-a162-669815081e1d)"><rect x="27.000824676536467" y="58.727262840855474" width="457.998985813187574" height="394.546583966184699" fill="url(#uuid-7d870880-d6f8-42cb-ba9e-ad4362a157d4)" stroke-width="0"/></g></svg>