<?xml version="1.0" standalone="no"?>
<!DOCTYPE svg PUBLIC "-//W3C//DTD SVG 20010904//EN"
 "http://www.w3.org/TR/2001/REC-SVG-20010904/DTD/svg10.dtd">
<svg version="1.0" xmlns="http://www.w3.org/2000/svg"
 width="700.000000pt" height="700.000000pt" viewBox="0 0 700.000000 700.000000"
 preserveAspectRatio="xMidYMid meet">
<metadata>
Created by potrace 1.14, written by Peter Selinger 2001-2017
</metadata>
<g transform="translate(0.000000,700.000000) scale(0.100000,-0.100000)"
fill="#000000" stroke="none">
<path d="M3170 6554 c-583 -63 -1145 -297 -1604 -667 -92 -74 -322 -296 -388
-374 -475 -561 -725 -1206 -745 -1918 -8 -308 20 -573 92 -856 277 -1089 1135
-1942 2230 -2218 465 -117 1028 -117 1490 0 975 248 1778 962 2127 1894 83
223 126 393 170 670 28 185 31 611 4 804 -51 370 -147 680 -309 1001 -238 471
-592 869 -1037 1165 -419 279 -864 441 -1370 499 -146 17 -510 17 -660 0z
m2790 -2003 c5 -11 10 -26 10 -34 0 -8 -83 -208 -184 -444 -101 -235 -182
-430 -180 -431 1 -2 27 14 56 37 155 117 331 134 401 40 25 -35 24 -110 -3
-179 -27 -69 -93 -181 -133 -227 -97 -110 -293 -201 -469 -217 -76 -7 -127 9
-145 44 -11 22 -10 27 7 41 18 15 18 18 4 30 -10 8 -14 22 -11 38 3 14 80 199
170 411 91 212 211 493 267 625 56 132 108 250 116 263 19 29 78 31 94 3z
m-2436 -204 c39 -28 55 13 -326 -851 -87 -198 -155 -363 -151 -367 8 -6 428
-107 788 -189 410 -94 893 -186 1073 -206 99 -11 136 -52 93 -105 -18 -23 -19
-23 -117 -10 -281 36 -898 161 -1434 290 -223 54 -465 110 -466 108 0 -1 -22
-42 -49 -92 -62 -116 -110 -182 -146 -201 -27 -13 -32 -13 -71 7 -47 24 -174
147 -236 230 -63 84 -112 184 -112 229 0 31 5 43 26 56 23 16 32 16 122 1 53
-9 164 -32 245 -52 82 -21 153 -33 157 -29 4 5 74 160 155 344 81 184 174 396
207 470 33 74 80 182 105 240 56 133 88 163 137 127z m-989 -123 c41 -19 60
-61 50 -111 -23 -127 -339 -810 -622 -1347 -109 -206 -130 -236 -164 -236 -27
0 -59 27 -59 50 0 10 52 118 114 241 210 410 604 1255 591 1267 -8 9 -40 -25
-273 -283 -124 -137 -300 -333 -391 -434 -170 -189 -291 -302 -341 -319 -23
-8 -31 -7 -43 6 -35 39 -65 210 -93 527 -14 167 -24 220 -37 204 -2 -2 -64
-114 -137 -249 -173 -318 -174 -320 -216 -320 -34 0 -54 20 -54 55 0 9 33 76
73 148 41 73 104 191 142 262 148 284 208 362 272 356 32 -3 57 -109 68 -286
9 -139 36 -445 44 -490 4 -22 12 -40 18 -40 7 0 49 41 94 90 45 50 105 115
133 145 27 30 172 193 322 361 288 323 334 370 399 400 49 23 68 23 110 3z
m2937 -34 c89 -32 117 -85 88 -169 -55 -163 -300 -403 -650 -636 -300 -199
-566 -332 -717 -359 -41 -7 -80 23 -88 68 -11 56 45 198 205 519 83 165 156
307 162 314 19 23 70 12 87 -19 15 -25 10 -37 -146 -355 -176 -359 -200 -413
-180 -413 23 0 201 86 322 154 440 251 785 528 863 695 28 61 23 80 -23 93
-61 16 -239 19 -474 9 -521 -24 -779 -74 -1064 -209 -100 -47 -122 -54 -145
-46 -23 8 -27 15 -27 49 l0 40 100 52 c228 119 547 193 960 222 182 13 682 7
727 -9z"/>
<path d="M5874 3661 c-71 -17 -132 -58 -220 -146 -89 -89 -234 -288 -220 -303
4 -3 43 1 87 10 108 23 236 86 297 147 50 50 119 164 142 235 11 35 11 41 -6
53 -19 14 -33 15 -80 4z"/>
<path d="M2523 3114 c-6 -17 6 -37 86 -136 60 -75 134 -148 149 -148 5 0 30
44 55 98 42 88 55 122 43 122 -2 0 -60 15 -127 34 -163 44 -198 49 -206 30z"/>
</g>
</svg>
