<?xml version="1.0" standalone="no"?>
<!DOCTYPE svg PUBLIC "-//W3C//DTD SVG 20010904//EN"
 "http://www.w3.org/TR/2001/REC-SVG-20010904/DTD/svg10.dtd">
<svg version="1.0" xmlns="http://www.w3.org/2000/svg"
 width="700.000000pt" height="700.000000pt" viewBox="0 0 700.000000 700.000000"
 preserveAspectRatio="xMidYMid meet">
<metadata>
Created by potrace 1.14, written by Peter Selinger 2001-2017
</metadata>
<g transform="translate(0.000000,700.000000) scale(0.100000,-0.100000)"
fill="#000000" stroke="none">
<path d="M3365 5813 c-186 -38 -445 -184 -730 -411 -66 -52 -127 -102 -136
-111 -8 -9 -34 -31 -57 -49 -23 -19 -52 -44 -65 -55 -13 -12 -41 -37 -63 -56
-54 -48 -222 -199 -261 -234 -29 -27 -33 -28 -66 -16 -28 10 -41 10 -65 0 -48
-20 -117 -97 -153 -169 -59 -120 -39 -205 48 -205 40 0 68 14 136 66 37 29 38
29 58 11 11 -10 55 -70 98 -133 208 -306 328 -428 429 -436 75 -6 221 74 455
249 49 36 92 66 95 66 4 0 8 -25 9 -55 4 -155 135 -276 298 -276 202 0 449
181 588 432 59 106 80 173 83 270 3 80 1 92 -27 148 -60 119 -198 180 -380
168 -58 -4 -76 -9 -95 -29 -25 -25 -34 -67 -21 -104 7 -19 3 -23 -30 -29 -68
-12 -163 -68 -232 -134 -77 -74 -195 -169 -406 -326 -205 -153 -290 -205 -334
-205 -32 0 -106 94 -299 379 l-112 164 23 19 c25 22 35 31 173 153 165 147
216 193 339 295 242 201 513 375 665 426 42 14 85 19 180 19 69 0 141 -3 160
-7 19 -4 62 -10 95 -13 57 -7 62 -5 88 20 56 57 24 137 -60 151 -27 4 -50 8
-53 9 -3 1 -34 5 -70 9 -110 14 -232 14 -305 -1z m463 -989 c64 -24 82 -80 57
-177 -47 -180 -225 -389 -385 -451 -101 -40 -188 -29 -216 27 -23 44 -15 166
16 232 65 140 167 224 295 241 78 11 93 16 110 34 19 21 25 73 11 101 -6 15
-2 16 31 13 21 -3 57 -12 81 -20z"/>
<path d="M4301 5592 c-55 -26 -65 -86 -23 -132 l27 -30 180 -4 c178 -5 314
-13 388 -21 20 -3 65 -7 100 -11 54 -5 276 -42 362 -59 139 -28 332 -90 448
-144 144 -66 267 -154 267 -190 -1 -46 -376 -256 -700 -391 -66 -27 -126 -50
-133 -50 -7 0 -17 -4 -22 -9 -15 -13 -266 -91 -295 -91 -5 0 13 45 40 99 27
55 63 129 80 166 17 37 55 116 85 176 30 60 56 122 58 138 5 30 -26 90 -46 92
-7 0 -21 2 -31 4 -42 8 -76 -24 -115 -108 -21 -45 -74 -154 -116 -242 -43 -88
-97 -200 -120 -250 -24 -49 -75 -157 -115 -240 -148 -307 -180 -378 -180 -400
0 -31 34 -71 66 -79 58 -15 81 8 146 143 73 153 159 325 163 329 2 2 90 -59
196 -134 107 -76 230 -163 274 -194 210 -147 675 -477 712 -504 116 -86 227
-159 279 -185 80 -40 198 -74 257 -75 42 -1 52 3 73 27 33 39 31 81 -5 118
-20 20 -39 29 -61 29 -44 0 -172 45 -223 78 -23 15 -89 60 -147 101 -58 41
-235 167 -395 279 -159 113 -382 271 -494 350 l-204 145 119 42 c528 186 1034
496 1034 632 0 86 -128 212 -320 314 -148 80 -405 166 -605 205 -11 2 -42 8
-70 14 -61 12 -90 16 -245 36 -14 2 -56 6 -95 9 -38 4 -81 8 -95 11 -21 3
-123 8 -413 18 -33 1 -71 -4 -86 -12z"/>
<path d="M1878 5573 c-14 -16 -30 -41 -35 -58 -24 -69 -395 -926 -551 -1270
-73 -161 -182 -371 -210 -405 l-30 -35 -58 12 c-118 25 -265 112 -466 275 -44
35 -78 41 -117 17 -33 -20 -47 -55 -37 -95 21 -81 378 -316 541 -355 2 0 26
-6 52 -13 99 -25 159 -10 218 56 74 83 169 258 328 608 147 324 501 1148 513
1194 19 78 -91 130 -148 69z"/>
<path d="M3705 3438 c-80 -41 -163 -118 -333 -307 -47 -53 -88 -98 -92 -101
-3 -3 -52 -59 -110 -125 -57 -66 -107 -122 -110 -125 -3 -3 -23 -25 -44 -50
-22 -25 -76 -85 -121 -135 -45 -49 -128 -142 -185 -205 -57 -63 -151 -166
-209 -228 -57 -62 -112 -122 -121 -133 -10 -10 -20 -19 -23 -19 -6 0 -17 69
-32 200 -3 30 -8 73 -10 95 -10 83 -26 285 -30 377 -4 70 -7 117 -21 256 -11
122 -32 193 -66 230 -28 28 -45 28 -94 -4 -74 -48 -147 -162 -354 -559 -94
-180 -232 -430 -247 -447 -8 -9 -17 -34 -20 -55 -7 -55 27 -95 80 -95 58 0 73
18 185 225 15 27 38 70 52 95 14 26 52 97 84 157 32 61 62 115 66 120 4 6 31
55 60 110 29 55 55 102 57 104 11 14 22 -24 27 -94 4 -44 9 -98 11 -120 3 -22
7 -67 9 -100 5 -64 8 -98 31 -300 13 -113 25 -188 50 -309 11 -54 47 -125 66
-131 28 -9 57 3 124 50 91 65 236 210 435 433 36 40 79 88 95 106 17 18 57 63
90 101 33 38 67 76 75 85 8 9 51 56 95 106 43 49 86 96 95 105 21 23 144 159
170 189 12 13 61 68 110 121 49 52 108 117 130 142 23 26 46 45 50 42 5 -3 -5
-36 -21 -73 -41 -90 -53 -119 -77 -172 -98 -216 -179 -397 -207 -455 -13 -27
-35 -76 -50 -109 -61 -137 -482 -991 -589 -1196 -31 -58 -56 -113 -56 -122 -1
-73 93 -116 144 -65 24 24 89 138 201 352 80 152 465 920 465 928 0 2 35 78
78 168 95 198 101 212 147 319 20 46 42 98 50 114 70 152 129 334 127 390 -5
109 -130 170 -237 114z"/>
<path d="M4410 2780 c-374 -77 -652 -303 -726 -590 -48 -189 13 -345 152 -386
67 -19 96 -14 197 37 72 36 215 128 261 168 18 15 18 15 11 -19 -11 -49 -9
-85 7 -116 56 -114 222 -80 478 99 80 56 235 175 290 223 14 12 59 50 100 84
101 84 110 96 110 140 0 55 -58 97 -109 79 -13 -5 -87 -62 -165 -127 -77 -64
-148 -123 -156 -129 -121 -100 -353 -253 -365 -241 -7 6 154 319 184 356 51
65 81 116 81 139 0 29 -39 49 -102 52 -61 3 -82 -9 -122 -72 -57 -88 -289
-294 -472 -419 -133 -91 -175 -106 -208 -73 -21 21 -14 144 11 211 83 214 353
382 689 428 70 9 108 55 92 113 -18 66 -75 76 -238 43z"/>
</g>
</svg>
